<svg width="16" height="14" viewBox="0 0 16 14" fill="none" xmlns="http://www.w3.org/2000/svg">
<path d="M5.4111 9.48099V8.44368C5.4111 8.2268 5.4111 8.11836 5.43641 8.01648C5.45702 7.93349 5.48993 7.85404 5.53404 7.78078C5.58818 7.69085 5.66486 7.61417 5.81821 7.46082L5.81822 7.46081L12.1503 1.12868C12.5016 0.777442 12.6772 0.60182 12.8809 0.539151C13.0453 0.488577 13.2211 0.488577 13.3855 0.539151C13.5892 0.60182 13.7648 0.777439 14.1161 1.12868L14.1161 1.12868L15.1534 2.166C15.5046 2.51724 15.6803 2.69286 15.7429 2.89657C15.7935 3.06096 15.7935 3.23676 15.7429 3.40115C15.6803 3.60486 15.5046 3.78048 15.1534 4.13173L8.82126 10.4639L8.82125 10.4639C8.6679 10.6172 8.59122 10.6939 8.50129 10.748C8.42803 10.7921 8.34858 10.825 8.26559 10.8457C8.16371 10.871 8.05528 10.871 7.8384 10.871H6.80108C6.30435 10.871 6.05598 10.871 5.86762 10.7712C5.71562 10.6908 5.59131 10.5665 5.51083 10.4144C5.4111 10.2261 5.4111 9.97772 5.4111 9.48099Z" fill="white"/>
<path d="M9.70117 1.86182H2.12105C1.56876 1.86182 1.12105 2.30953 1.12105 2.86182V11.587C1.12105 12.1393 1.56876 12.587 2.12105 12.587H11.7042C12.2565 12.587 12.7042 12.1393 12.7042 11.587V8.29691" stroke="white" stroke-linecap="round"/>
</svg>
