<svg width="623" height="504" viewBox="0 0 623 504" fill="none" xmlns="http://www.w3.org/2000/svg">
<path d="M209.337 122.776C174.983 136.489 149.93 161.567 138.783 189.335C132.187 205.782 130.131 223.117 122.61 239.356C101.21 285.52 39.5294 315.551 13.2506 360.277C-1.42681 385.185 -3.94792 414.222 8.38282 439.814C20.7136 465.406 48.2926 487.043 82.7901 496.077C103.932 501.612 126.659 502.441 149.063 502.971C190.997 503.965 233.264 504.079 274.554 498.544C294.215 495.905 313.591 491.996 333.438 490.295C371.836 486.996 406.699 494.895 444.849 490.295C471.413 487.09 507 490.295 533.404 490.295C551.469 483.562 560.819 453.198 575.734 443.043C615.147 416.175 629.746 372.611 619.159 333.652C608.572 294.692 575.291 260.47 533.404 235.762C514.99 224.897 494.927 215.697 475.619 205.723C450.74 192.88 427.108 178.752 404.896 163.445C351.757 126.81 283.211 93.3072 209.337 122.776Z" fill="#F8455B" fill-opacity="0.52"/>
<g clip-path="url(#clip0_477_4861)">
<path opacity="0.5" d="M370.673 313.949H83.6533C71.442 313.949 61.5 304.008 61.5 291.691V137.614C61.5 125.404 71.442 115.464 83.6533 115.464H370.565C382.776 115.464 392.718 125.404 392.718 137.614V291.691C392.826 304.008 382.885 313.949 370.673 313.949Z" fill="#D8DCE2"/>
<path opacity="0.8" d="M382.344 300.335H95.4326C83.2213 300.335 73.2793 290.394 73.2793 278.185V124.107C73.2793 111.898 83.2213 101.958 95.4326 101.958H382.344C394.556 101.958 404.498 111.898 404.498 124.107V278.185C404.498 290.394 394.556 300.335 382.344 300.335Z" fill="white"/>
<path d="M73.1709 197.148V121.082C73.1709 110.385 80.1951 101.741 88.8403 101.741H388.936C397.581 101.741 404.605 110.385 404.605 121.082V280.994C404.605 291.691 397.581 300.335 388.936 300.335H88.8403C80.1951 300.335 73.1709 291.691 73.1709 280.994V256.791" stroke="#E9E9E9" stroke-width="2.82692" stroke-miterlimit="10"/>
<path d="M86.2471 123.459H391.422" stroke="#F7F7F7" stroke-width="2.82692" stroke-miterlimit="10"/>
<path d="M129.148 112.655V286.937" stroke="#F7F7F7" stroke-width="2.82692" stroke-miterlimit="10"/>
<path d="M163.729 112.655V286.937" stroke="#F7F7F7" stroke-width="2.82692" stroke-miterlimit="10"/>
<path d="M198.311 112.655V286.937" stroke="#F7F7F7" stroke-width="2.82692" stroke-miterlimit="10"/>
<path d="M232.999 112.655V286.937" stroke="#F7F7F7" stroke-width="2.82692" stroke-miterlimit="10"/>
<path d="M267.579 112.655V286.937" stroke="#F7F7F7" stroke-width="2.82692" stroke-miterlimit="10"/>
<path d="M302.16 112.655V286.937" stroke="#F7F7F7" stroke-width="2.82692" stroke-miterlimit="10"/>
<path d="M336.741 112.655V286.937" stroke="#F7F7F7" stroke-width="2.82692" stroke-miterlimit="10"/>
<path d="M371.321 112.655V286.937" stroke="#F7F7F7" stroke-width="2.82692" stroke-miterlimit="10"/>
<path d="M86.2471 161.493H391.422" stroke="#F7F7F7" stroke-width="2.82692" stroke-miterlimit="10"/>
<path d="M86.2471 198.337H391.422" stroke="#F7F7F7" stroke-width="2.82692" stroke-miterlimit="10"/>
<path d="M86.2471 237.559H391.422" stroke="#F7F7F7" stroke-width="2.82692" stroke-miterlimit="10"/>
<path d="M86.2471 275.592H391.422" stroke="#F7F7F7" stroke-width="2.82692" stroke-miterlimit="10"/>
<path d="M94.8916 276.024H169.348C169.348 104.875 150.113 86.5066 130.229 87.1549C110.237 87.6951 94.8916 139.126 94.8916 276.024Z" fill="#EF0F3F"/>
<path d="M152.922 274.511C154.435 275.051 155.948 275.483 157.461 276.024H161.568C151.301 272.674 141.035 269.217 130.769 265.867C118.774 261.869 106.887 257.98 94.8916 253.982C94.8916 254.414 94.8916 254.846 94.8916 255.386C97.161 256.143 99.4303 256.899 101.7 257.655C118.882 263.166 135.848 268.784 152.922 274.511Z" fill="#EF0F3F"/>
<path d="M152.274 267.272C157.245 270.189 162.324 273.106 167.403 275.915H169.24C169.24 275.807 169.24 275.699 169.24 275.483C156.164 268.028 143.196 260.356 130.337 252.469C118.557 245.23 106.995 237.774 95.4316 230.103C95.4316 230.643 95.4316 231.075 95.4316 231.616C97.4849 233.02 99.5381 234.425 101.591 235.721C118.233 246.742 135.199 257.223 152.274 267.272Z" fill="#EF0F3F"/>
<path d="M164.269 156.522C164.161 155.982 164.161 155.549 164.053 155.009C160.486 153.388 156.812 151.768 153.246 150.147C137.361 143.016 121.475 135.885 105.698 128.753C105.589 128.753 105.589 128.645 105.481 128.645C105.373 129.078 105.265 129.51 105.157 129.942C112.073 133.075 118.881 136.101 125.798 139.234C138.549 145.069 151.409 150.795 164.269 156.522Z" fill="#EF0F3F"/>
<path d="M166.754 185.695C166.754 185.047 166.646 184.506 166.646 183.858C163.512 181.157 160.378 178.564 157.136 175.971C140.927 162.681 124.393 149.715 107.535 137.289C106.346 136.425 105.157 135.56 104.076 134.804C103.968 135.236 103.86 135.668 103.86 136.209C112.289 142.367 120.718 148.742 129.039 155.117C141.899 165.058 154.435 175.214 166.754 185.695Z" fill="#EF0F3F"/>
<path d="M167.727 202.551C167.727 202.119 167.727 201.578 167.619 201.146C160.163 197.905 152.706 194.555 145.25 191.314C129.905 184.615 114.451 177.808 99.1061 171.109C99.1061 171.541 98.998 171.973 98.998 172.513C103.105 174.35 107.211 176.079 111.425 177.916C130.121 186.127 148.924 194.339 167.727 202.551Z" fill="#EF0F3F"/>
<path d="M168.916 237.018C168.916 236.478 168.916 235.938 168.916 235.397C163.296 230.859 157.677 226.429 151.949 222.107C142.007 214.652 131.957 207.305 121.799 200.066C113.911 194.447 106.022 188.72 98.0251 183.102C98.0251 183.642 97.917 184.074 97.917 184.615C104.401 189.261 110.885 193.907 117.369 198.553C134.767 210.978 152.165 223.512 168.916 237.018Z" fill="#EF0F3F"/>
<path d="M161.675 137.722C161.567 137.073 161.459 136.425 161.351 135.777C160.378 135.02 159.514 134.156 158.541 133.4C144.493 121.73 129.904 110.493 114.991 99.9047C114.775 100.337 114.559 100.661 114.343 101.093C120.502 105.415 126.554 109.845 132.606 114.491C142.44 121.947 152.165 129.726 161.675 137.722Z" fill="#EF0F3F"/>
<path d="M144.71 238.963C152.922 241.988 161.135 245.23 169.132 248.903C169.132 248.471 169.132 247.931 169.132 247.499C162.864 244.69 156.489 241.988 150.005 239.503C139.63 235.505 129.04 231.94 118.45 228.266C110.885 225.673 103.321 222.972 95.8643 220.271C95.8643 220.703 95.8643 221.135 95.8643 221.675C101.7 223.836 107.535 225.889 113.371 227.942C123.745 231.508 134.335 235.073 144.71 238.963Z" fill="#EF0F3F"/>
<path d="M137.036 275.483L130.12 87.1548" stroke="#DFEBFF" stroke-width="0.942308" stroke-miterlimit="10"/>
<path d="M319.99 276.023H384.397C384.397 159.007 363.216 138.37 345.277 146.905C325.718 156.198 319.99 182.345 319.99 276.023Z" fill="#EF0F3F"/>
<path d="M384.181 255.926C384.181 255.386 384.181 254.954 384.181 254.414C377.049 258.412 369.809 262.301 362.676 266.299C356.841 269.541 351.005 272.782 345.17 275.915H347.872C359.543 269.433 371.214 263.058 382.885 256.575C383.317 256.359 383.749 256.143 384.181 255.926Z" fill="#EF0F3F"/>
<path d="M375.86 248.579C378.454 246.958 381.155 245.338 383.749 243.717C383.749 243.177 383.749 242.744 383.641 242.204C381.912 243.285 380.183 244.257 378.562 245.23C369.052 251.064 359.651 257.115 350.357 263.274C344.197 267.38 338.038 271.593 331.878 275.915H334.039C338.578 272.782 343.117 269.649 347.763 266.515C357.165 260.464 366.459 254.414 375.86 248.579Z" fill="#EF0F3F"/>
<path d="M370.349 176.079C371.862 175.43 373.375 174.782 374.888 174.026C374.78 173.594 374.672 173.161 374.564 172.729C374.348 172.837 374.24 172.837 374.023 172.945C363.433 177.591 353.059 182.562 342.793 187.856C335.985 191.422 329.285 194.987 322.585 198.769C322.585 199.309 322.477 199.849 322.477 200.39C328.096 197.256 333.715 194.123 339.335 191.097C349.493 185.911 359.867 180.833 370.349 176.079Z" fill="#EF0F3F"/>
<path d="M363.216 192.718C367.863 189.801 372.618 186.883 377.373 183.966C377.265 183.534 377.157 183.102 377.048 182.67C373.482 184.831 370.024 186.991 366.458 189.152C354.787 196.392 343.332 203.955 332.094 211.735C328.419 214.328 324.745 216.921 321.071 219.514C321.071 220.054 320.963 220.595 320.963 221.135C323.556 219.19 326.258 217.353 328.852 215.516C340.198 207.629 351.545 200.065 363.216 192.718Z" fill="#EF0F3F"/>
<path d="M361.271 148.526C355.976 152.632 350.681 156.738 345.602 161.06C338.794 166.679 332.094 172.513 325.61 178.456C325.502 179.212 325.286 179.861 325.178 180.617C337.065 169.704 349.492 159.223 362.352 149.391C361.92 149.067 361.596 148.851 361.271 148.526Z" fill="#EF0F3F"/>
<path d="M358.569 212.491C365.81 209.034 373.158 205.9 380.507 202.875C380.398 202.443 380.398 202.01 380.29 201.578C374.239 204.063 368.187 206.657 362.244 209.358C351.221 214.436 340.415 219.838 329.824 225.673C326.798 227.294 323.664 229.023 320.639 230.751C320.639 231.292 320.639 231.724 320.639 232.264C322.476 231.184 324.421 230.211 326.258 229.131C336.848 223.296 347.547 217.677 358.569 212.491Z" fill="#EF0F3F"/>
<path d="M363.757 241.556C370.241 238.639 376.725 235.722 383.316 233.02C383.316 232.588 383.317 232.048 383.208 231.616C378.021 233.777 372.834 236.046 367.647 238.423C356.3 243.501 345.062 248.904 334.039 254.522C329.392 256.899 324.745 259.276 320.099 261.653C320.099 262.194 320.099 262.626 320.099 263.166C323.449 261.437 326.799 259.6 330.257 257.98C341.279 252.253 352.41 246.743 363.757 241.556Z" fill="#EF0F3F"/>
<path d="M361.92 230.859C368.728 226.537 375.428 222.215 382.236 217.894C382.236 217.353 382.128 216.921 382.128 216.381C376.508 219.946 370.997 223.512 365.378 227.078C354.571 233.993 343.765 240.908 332.958 247.715L320.099 255.927C320.099 256.467 320.099 257.007 320.099 257.439L329.5 251.497C340.307 244.69 351.113 237.774 361.92 230.859Z" fill="#EF0F3F"/>
<path d="M352.193 275.591V145.177" stroke="#DFEBFF" stroke-width="0.942308" stroke-miterlimit="10"/>
<path d="M356.624 222.54V275.916H302.483V166.787L356.624 222.54Z" fill="#DFEBFF"/>
<path d="M356.624 222.54V229.131L302.483 173.27V166.787L356.624 222.54Z" fill="#EF0F3F"/>
<path d="M260.662 131.563H202.307V276.024H260.662V131.563Z" fill="#DFEBFF"/>
<path d="M260.662 133.076V142.152L202.307 207.197V198.121L260.662 133.076Z" fill="#EF0F3F"/>
<path d="M204.901 192.394H147.194V276.024H204.901V192.394Z" fill="#EF0F3F"/>
<path d="M198.201 196.068H140.278L202.74 126.377H260.662L198.201 196.068Z" fill="#DFEBFF"/>
<path d="M198.2 196.068L201.658 201.254L264.12 131.563L260.662 126.377L198.2 196.068Z" fill="#EF0F3F"/>
<path d="M201.659 201.254H143.736L140.278 196.068H198.093L201.659 201.254Z" fill="#7A252D"/>
<path d="M361.379 227.51H356.624V222.54L361.379 227.51Z" fill="#3C3D72"/>
<path d="M361.379 219.947V227.51L302.483 166.787V159.223L361.379 219.947Z" fill="#EF0F3F"/>
<path d="M302.483 161.709H260.662V275.916H302.483V161.709Z" fill="#EF0F3F"/>
<path d="M302.483 159.223H260.662V166.787H302.483V159.223Z" fill="#7A252D"/>
<path d="M280.653 176.187C289.623 176.187 296.971 183.426 296.971 192.503V261.113H264.444V192.503C264.335 183.426 271.684 176.187 280.653 176.187Z" fill="#3C3D72"/>
<path d="M282.059 178.24C290.272 178.24 296.864 184.831 296.864 193.043V261.006H267.254V193.043C267.254 184.831 273.954 178.24 282.059 178.24Z" fill="white"/>
<path d="M282.059 181.59C288.326 181.59 293.514 186.668 293.514 193.043V257.764H270.712V193.043C270.712 186.668 275.791 181.59 282.059 181.59Z" fill="#F2CB6D"/>
<path d="M283.788 181.698C278.276 182.562 274.062 187.208 274.062 192.935V257.656H270.712V192.935C270.712 186.668 275.791 181.482 282.167 181.482C282.707 181.59 283.247 181.59 283.788 181.698Z" fill="#D2881D"/>
<path opacity="0.5" d="M264.012 220.595L302.807 184.831" stroke="#F4D79A" stroke-width="28.2692" stroke-miterlimit="10"/>
<path opacity="0.5" d="M264.012 243.177L302.807 207.413" stroke="#F4D79A" stroke-width="9.42308" stroke-miterlimit="10"/>
<path opacity="0.5" d="M264.012 255.063L302.807 219.299" stroke="#F4D79A" stroke-width="9.42308" stroke-miterlimit="10"/>
<path d="M280.183 259.239H283.857V180.039H280.183V259.239Z" fill="white"/>
<path d="M268.982 217.748V221.422H295.134V217.748H268.982Z" fill="white"/>
<path opacity="0.9" d="M296.864 193.043V199.85C293.946 195.42 288.975 192.503 283.247 192.503C275.251 192.503 268.659 198.229 267.254 205.793V193.043C267.254 184.831 273.846 178.24 282.059 178.24C290.272 178.24 296.864 184.831 296.864 193.043Z" fill="#DFEBFF"/>
<path d="M255.475 206.873H213.87V276.024H255.475V206.873Z" fill="#EF0F3F"/>
<path d="M252.341 209.79H213.87V276.024H252.341V209.79Z" fill="white"/>
<path d="M249.207 212.816H217.004V275.916H249.207V212.816Z" fill="#F8455B"/>
<path d="M243.047 249.876C243.696 249.876 244.128 249.336 244.128 248.796V246.635C244.128 245.987 243.588 245.554 243.047 245.554C242.399 245.554 241.967 246.095 241.967 246.635V248.796C241.967 249.444 242.399 249.876 243.047 249.876Z" fill="#F2CB6D"/>
<path d="M243.047 252.037C242.723 252.037 242.398 251.713 242.398 251.389C242.398 251.065 242.723 250.741 243.047 250.741C243.371 250.741 243.695 251.065 243.695 251.389C243.695 251.713 243.371 252.037 243.047 252.037Z" fill="#3C3D72"/>
<path d="M244.56 255.495V266.516C242.399 266.516 240.562 268.245 240.562 270.514H222.839C222.839 268.353 221.11 266.516 218.841 266.516V255.495C221.002 255.495 222.839 253.766 222.839 251.497H240.562C240.67 253.658 242.399 255.495 244.56 255.495Z" fill="#7A252D"/>
<path d="M242.831 257.224V264.787C240.669 264.787 238.292 267.164 238.292 269.001H225.108C225.108 267.164 222.731 264.787 220.569 264.787V257.224C222.731 257.224 225.108 254.847 225.108 253.01H238.292C238.4 254.847 240.669 257.224 242.831 257.224Z" stroke="#6C727F" stroke-width="0.942308" stroke-miterlimit="10"/>
<path d="M226.405 245.555H222.839C222.839 243.394 221.11 241.557 218.841 241.557V223.837C221.002 223.837 222.839 222.108 222.839 219.839H226.405C226.405 222 228.134 223.837 230.404 223.837V241.557C228.242 241.665 226.405 243.394 226.405 245.555Z" fill="#7A252D"/>
<path d="M225.325 243.07H224.028C224.028 241.665 222.083 239.72 220.678 239.72V225.89C222.083 225.89 224.028 223.945 224.028 222.54H225.325C225.325 223.945 227.27 225.89 228.675 225.89V239.72C227.27 239.612 225.325 241.665 225.325 243.07Z" stroke="#6C727F" stroke-width="0.942308" stroke-miterlimit="10"/>
<path d="M240.67 245.555H237.104C237.104 243.394 235.375 241.557 233.105 241.557V223.837C235.267 223.837 237.104 222.108 237.104 219.839H240.67C240.67 222 242.399 223.837 244.668 223.837V241.557C242.399 241.665 240.67 243.394 240.67 245.555Z" fill="#7A252D"/>
<path d="M239.481 243.07H238.184C238.184 241.665 236.239 239.72 234.834 239.72V225.89C236.239 225.89 238.184 223.945 238.184 222.54H239.481C239.481 223.945 241.426 225.89 242.831 225.89V239.72C241.426 239.612 239.481 241.665 239.481 243.07Z" stroke="#6C727F" stroke-width="0.942308" stroke-miterlimit="10"/>
<path d="M234.186 219.191C234.186 220.487 233.105 221.568 231.808 221.568C230.511 221.568 229.431 220.487 229.431 219.191C229.431 217.894 230.511 216.813 231.808 216.813C233.105 216.813 234.186 217.786 234.186 219.191Z" stroke="#3C3D72" stroke-width="0.942308" stroke-miterlimit="10"/>
<path d="M233.105 216.814C233.105 217.57 232.565 218.11 231.809 218.11C231.052 218.11 230.512 217.57 230.512 216.814C230.512 216.057 231.052 215.517 231.809 215.517C232.457 215.409 233.105 216.057 233.105 216.814Z" fill="#F2CB6D"/>
<path d="M236.348 246.743H227.162V248.472H236.348V246.743Z" fill="#A62400"/>
<path d="M249.207 212.816H246.182V275.916H249.207V212.816Z" fill="#A62400"/>
<path d="M296.864 256.143H262.392V261.005H296.864V256.143Z" fill="#DFEBFF"/>
<path d="M296.864 256.143H290.272V261.005H296.864V256.143Z" fill="#EF0F3F"/>
<path d="M343.224 225.673V261.005H316.1V225.673C316.1 218.542 322.151 212.816 329.716 212.816C337.172 212.816 343.224 218.65 343.224 225.673Z" fill="#EF0F3F"/>
<path d="M340.09 226.43V261.005H314.803V226.43C314.803 219.515 320.422 213.788 327.446 213.788C334.471 213.788 340.09 219.515 340.09 226.43Z" fill="white"/>
<path d="M327.447 216.705C321.935 216.705 317.396 221.135 317.396 226.754V258.196H337.388V226.754C337.497 221.243 332.958 216.705 327.447 216.705Z" fill="#F2CB6D"/>
<path d="M337.497 226.754V258.196H334.903V226.754C334.903 221.676 331.121 217.462 326.258 216.813C326.69 216.705 327.122 216.705 327.555 216.705C332.958 216.705 337.497 221.243 337.497 226.754Z" fill="#D2881D"/>
<g opacity="0.4">
<path opacity="0.4" d="M309.508 248.255L342.251 218.11" stroke="#F4D79A" stroke-width="18.8462" stroke-miterlimit="10"/>
<path opacity="0.4" d="M311.453 261.329L339.658 235.722" stroke="#F4D79A" stroke-width="4.71154" stroke-miterlimit="10"/>
</g>
<path d="M328.851 214.652H326.149V260.249H328.851V214.652Z" fill="white"/>
<path d="M340.09 236.91H314.803V239.612H340.09V236.91Z" fill="white"/>
<path opacity="0.9" d="M340.09 226.43V228.699C337.172 225.457 332.633 223.404 327.446 223.404C322.259 223.404 317.72 225.457 314.803 228.699V226.43C314.803 219.515 320.422 213.788 327.446 213.788C334.471 213.896 340.09 219.515 340.09 226.43Z" fill="#DFEBFF"/>
<path d="M324.313 256.143H313.831V261.005H324.313V256.143Z" fill="#EF0F3F"/>
<path d="M348.411 256.143H320.963V261.005H348.411V256.143Z" fill="#DFEBFF"/>
<path d="M162 225.673V261.005H189.124V225.673C189.124 218.542 183.073 212.816 175.508 212.816C167.944 212.816 162 218.65 162 225.673Z" fill="#3C3D72"/>
<path d="M165.241 226.429V261.005H190.528V226.429C190.528 219.514 184.909 213.788 177.885 213.788C170.861 213.896 165.241 219.514 165.241 226.429Z" fill="white"/>
<path d="M177.777 216.705C183.288 216.705 187.827 221.135 187.827 226.754V258.196H167.835V226.754C167.835 221.243 172.266 216.705 177.777 216.705Z" fill="#F2CB6D"/>
<path d="M167.835 226.754V258.196H170.429V226.754C170.429 221.675 174.211 217.462 179.074 216.813C178.641 216.705 178.209 216.705 177.777 216.705C172.266 216.705 167.835 221.243 167.835 226.754Z" fill="#D2881D"/>
<g opacity="0.4">
<path opacity="0.4" d="M164.377 243.717L192.582 218.11" stroke="#F4D79A" stroke-width="18.8462" stroke-miterlimit="10"/>
<path opacity="0.4" d="M161.892 261.113L190.096 235.506" stroke="#F4D79A" stroke-width="4.71154" stroke-miterlimit="10"/>
</g>
<path d="M176.461 260.195H179.163V214.599H176.461V260.195Z" fill="white"/>
<path d="M190.528 236.91H165.241V239.611H190.528V236.91Z" fill="white"/>
<path opacity="0.9" d="M165.241 226.429V228.698C168.159 225.457 172.698 223.404 177.885 223.404C183.072 223.404 187.611 225.457 190.528 228.698V226.429C190.528 219.514 184.909 213.788 177.885 213.788C170.861 213.896 165.241 219.514 165.241 226.429Z" fill="#DFEBFF"/>
<path d="M180.965 261.089H191.447V256.227H180.965V261.089Z" fill="#EF0F3F"/>
<path d="M156.845 261.089H184.293V256.227H156.845V261.089Z" fill="#DFEBFF"/>
<path d="M213.87 202.335H255.259V155.874L213.87 202.335Z" fill="#EF0F3F"/>
<path d="M252.341 159.223V202.335H213.87L230.62 183.426L252.341 159.223Z" fill="white"/>
<path d="M249.424 167.543V198.877H221.327L246.182 171.109L249.424 167.543Z" fill="#F2CB6D"/>
<path d="M249.424 167.543V198.877H246.182V171.109L249.424 167.543Z" fill="#D2881D"/>
<g opacity="0.6">
<g opacity="0.6">
<path opacity="0.6" d="M209.656 205.252L257.529 173.486" stroke="#F4D79A" stroke-width="9.42308" stroke-miterlimit="10"/>
<path opacity="0.6" d="M221.327 207.305L253.098 186.236" stroke="#F4D79A" stroke-width="4.71154" stroke-miterlimit="10"/>
</g>
</g>
<path opacity="0.9" d="M252.341 159.223V174.458L230.62 183.426L252.341 159.223Z" fill="#DFEBFF"/>
<path d="M489.113 202.227C489.113 251.065 491.814 252.037 516.453 256.251C540.984 260.357 512.779 296.769 502.729 300.659C482.088 308.654 414.224 299.794 414.224 299.794C414.224 299.794 418.762 186.56 417.574 187.856C416.385 189.153 489.113 202.227 489.113 202.227Z" fill="black"/>
<path d="M392.179 347.444L355.545 271.918L346.36 279.049C343.658 304.441 348.413 360.95 366.135 386.233L392.179 347.444Z" fill="#EDB1A6"/>
<path d="M359.111 279.049L354.14 290.502C332.419 282.939 328.961 265.759 323.558 258.304L349.385 249.768L359.111 279.049Z" fill="#EDB1A6"/>
<path d="M336.418 252.253C336.526 252.793 336.526 253.334 336.418 253.874C336.418 253.982 336.31 254.198 336.31 254.306C335.878 255.819 334.689 256.899 333.284 257.332C332.744 257.44 332.095 257.548 331.555 257.44L327.773 256.899L322.478 256.143C321.721 256.035 321.073 255.711 320.532 255.279C319.776 254.63 319.236 253.766 319.02 252.793C318.911 252.253 318.911 251.713 319.02 251.173C319.344 249.12 321.181 247.715 323.234 247.715C323.342 247.715 323.45 247.715 323.558 247.715L332.636 248.688C332.744 248.688 332.852 248.688 332.852 248.688C334.689 249.228 336.094 250.524 336.418 252.253Z" fill="#EDB1A6"/>
<path d="M324.422 224.485C325.719 222.756 328.096 222.54 329.717 223.944L343.441 236.046L352.303 252.469L339.227 261.113L333.716 238.855L324.746 229.131C323.558 227.726 323.45 225.889 324.422 224.485Z" fill="#EDB1A6"/>
<path d="M352.303 252.361L350.574 249.011L339.119 240.8L334.473 241.988L339.768 261.653L352.303 252.361Z" fill="#CF6D5E"/>
<path d="M316.101 259.06C315.885 260.573 316.426 262.085 317.614 263.058L324.855 268.676C326.692 270.081 329.393 269.865 330.906 268.028C331.338 267.488 331.663 266.948 331.771 266.299C331.771 266.191 331.879 266.083 331.879 265.975C331.879 265.867 331.879 265.759 331.879 265.651C331.987 264.138 331.447 262.626 330.15 261.653L322.801 256.251C321.721 255.494 320.424 255.278 319.235 255.603C319.019 255.603 318.911 255.711 318.695 255.819C318.046 256.035 317.506 256.467 317.074 257.007C316.534 257.655 316.317 258.412 316.101 259.06Z" fill="#EDB1A6"/>
<path d="M319.234 255.711C319.342 256.467 319.667 257.331 320.207 257.98L326.042 265.003C327.555 266.732 330.473 267.704 332.634 265.543C332.742 264.03 331.446 262.734 330.149 261.761L322.801 256.359C321.72 255.603 320.423 255.387 319.234 255.711Z" fill="#CF6D5E"/>
<path d="M324.422 254.846C324.098 256.035 324.314 257.223 325.071 258.304L328.853 263.382C330.258 265.327 332.851 265.759 334.796 264.463C335.661 263.922 336.201 263.058 336.526 262.194C336.526 262.086 336.634 261.977 336.634 261.869C336.958 260.573 336.742 259.276 335.877 258.196L331.879 253.334C331.23 252.469 330.258 251.929 329.285 251.713C328.313 251.497 327.124 251.713 326.259 252.361C325.287 252.901 324.638 253.874 324.422 254.846Z" fill="#CF6D5E"/>
<path d="M334.688 261.437C334.688 261.545 334.688 261.653 334.58 261.761C334.58 261.869 334.472 261.977 334.472 262.086C334.256 262.842 333.716 263.598 333.067 264.138C331.23 265.543 328.528 265.327 327.016 263.49L321.18 256.467C320.856 256.143 320.64 255.711 320.532 255.386C320.208 254.63 320.099 253.874 320.316 253.117C320.532 252.037 321.072 251.173 321.937 250.416C322.477 250.092 323.017 249.768 323.558 249.66C323.99 249.552 324.422 249.552 324.962 249.552C325.935 249.66 326.908 250.092 327.664 250.957L333.391 257.331L333.716 257.764C334.58 258.844 334.904 260.141 334.688 261.437Z" fill="#EDB1A6"/>
<path d="M333.283 257.331L333.607 257.763C334.472 258.844 334.904 260.141 334.688 261.437C334.688 261.545 334.688 261.653 334.58 261.761C334.58 261.869 334.472 261.977 334.472 262.085C332.635 262.626 330.581 261.869 329.609 260.141L327.772 257.007L323.773 250.308C323.665 250.092 323.557 249.876 323.449 249.768C323.233 249.12 323.125 248.579 323.125 247.931C323.233 247.931 323.341 247.931 323.449 247.931L332.527 248.903C332.635 248.903 332.743 248.903 332.743 248.903L336.201 254.414C335.985 255.819 334.796 256.899 333.283 257.331Z" fill="#CF6D5E"/>
<path d="M341.28 248.147C341.388 248.903 341.388 249.66 341.172 250.416C340.415 252.685 338.038 253.874 335.768 253.225L332.959 252.361L327.015 250.524C326.151 250.308 325.394 249.768 324.854 249.011C324.422 248.579 324.205 247.931 324.097 247.391C323.989 246.634 323.989 245.878 324.205 245.122C324.962 243.069 327.123 241.88 329.284 242.421L332.094 243.177L335.12 243.933L338.038 244.69C339.875 245.338 340.955 246.634 341.28 248.147Z" fill="#EDB1A6"/>
<path d="M329.177 249.66C328.745 250.74 328.745 252.037 329.285 253.225L332.203 258.736C333.284 260.789 335.769 261.761 337.93 260.681C338.903 260.249 339.551 259.492 339.984 258.628C339.984 258.52 340.092 258.412 340.092 258.412C340.632 257.223 340.524 255.819 339.875 254.63L336.742 249.228C336.201 248.255 335.337 247.607 334.364 247.283C333.392 246.959 332.311 246.959 331.23 247.391C330.258 247.823 329.609 248.687 329.177 249.66Z" fill="#CF6D5E"/>
<path d="M325.287 247.175C324.963 248.255 324.963 249.552 325.719 250.632L330.474 258.412C331.663 260.465 334.256 261.113 336.309 259.925C337.174 259.384 337.822 258.628 338.147 257.764C338.147 257.656 338.255 257.547 338.255 257.547C338.687 256.359 338.579 254.954 337.822 253.766L332.851 246.094C332.203 245.23 331.338 244.582 330.366 244.366C329.393 244.041 328.313 244.257 327.232 244.69C326.367 245.338 325.611 246.202 325.287 247.175Z" fill="#EDB1A6"/>
<path d="M354.033 276.996L348.197 254.414L336.418 246.418L334.905 254.846L338.579 259.384C338.471 259.276 332.42 277.32 354.033 276.996Z" fill="#CF6D5E"/>
<path d="M336.418 246.31L328.637 249.12C326.908 249.768 326.043 251.605 326.584 253.226C327.124 254.738 328.637 255.711 330.15 255.386L334.797 254.63L336.418 246.31Z" fill="#CF6D5E"/>
<path d="M359.111 279.049L352.303 252.361L338.471 242.853L336.634 252.793L340.848 258.088C340.848 258.088 333.608 279.481 359.111 279.049Z" fill="#EDB1A6"/>
<path d="M335.229 244.041V251.605L332.96 252.361L330.042 253.334C329.934 253.442 329.718 253.442 329.61 253.442C327.989 253.766 326.26 253.009 325.395 251.497C324.963 250.74 324.855 249.768 324.963 249.012C325.179 247.931 325.827 246.851 326.8 246.31L332.203 243.177L335.229 244.041Z" fill="#CF6D5E"/>
<path d="M338.471 242.853L329.285 246.094C327.232 246.851 326.26 249.012 326.908 250.957C327.556 252.793 329.285 253.874 331.123 253.55L336.634 252.685L338.471 242.853Z" fill="#EDB1A6"/>
<path d="M366.243 386.233C359.651 343.338 379.535 299.038 407.632 269.325C414.116 262.518 424.814 261.977 432.163 267.812C438.539 272.998 440.7 281.75 437.458 289.314L397.582 364.299C391.314 376.185 379.643 384.396 366.243 386.233Z" fill="#EDB1A6"/>
<path d="M376.834 315.786L395.637 276.888L433.244 319.243L392.719 375.753C386.776 384.072 376.402 388.178 366.352 386.341L376.834 315.786Z" fill="#EF0F3F"/>
<path d="M533.744 490.5H396.609L414.224 414.434V370.242H486.519C488.356 372.187 490.193 374.24 492.031 376.293C493.868 378.346 495.597 380.507 497.326 382.668C501 387.422 504.458 392.284 507.7 397.254C509.429 400.063 511.158 402.981 512.779 405.898C513.643 407.411 514.4 408.923 515.156 410.436C516.021 412.165 516.885 413.786 517.642 415.514C518.398 417.243 519.263 418.972 519.911 420.701C520.127 421.241 520.452 421.889 520.668 422.429C521.1 423.618 521.64 424.699 522.073 425.887C522.289 426.427 522.505 427.076 522.721 427.616C523.153 428.804 523.585 429.993 524.018 431.181C524.342 432.262 524.774 433.234 525.098 434.315C525.314 435.071 525.639 435.936 525.855 436.692C526.179 437.772 526.503 438.853 526.827 439.933C527.368 441.878 527.908 443.823 528.448 445.876C529.205 448.901 529.853 451.819 530.502 454.844C530.718 455.816 530.934 456.897 531.042 457.869C531.258 458.842 531.366 459.922 531.582 460.895C531.69 461.867 531.906 462.948 532.014 463.92C532.123 464.893 532.231 465.865 532.339 466.729C532.339 466.945 532.339 467.054 532.447 467.162C532.555 468.134 532.663 468.998 532.771 469.971C532.879 471.051 532.987 472.024 533.095 473.104C533.311 475.157 533.419 477.21 533.527 479.263L533.744 490.5Z" fill="#7A252D"/>
<path d="M533.744 490.5H514.724L514.292 480.56C512.887 448.577 502.729 417.675 485.223 391.312C484.034 389.583 482.953 387.854 481.657 386.233C477.658 380.723 473.444 375.32 468.797 370.242H486.411C488.249 372.187 490.086 374.24 491.923 376.293C493.76 378.346 495.489 380.507 497.218 382.668C500.892 387.422 504.35 392.284 507.592 397.254C509.321 400.063 511.05 402.981 512.671 405.898C513.536 407.411 514.292 408.923 515.049 410.436C516.778 413.786 518.399 417.243 519.803 420.701C520.02 421.241 520.344 421.889 520.56 422.429C520.992 423.618 521.532 424.699 521.965 425.887C522.181 426.427 522.397 427.076 522.613 427.616C523.045 428.804 523.478 429.993 523.91 431.181C529.313 446.632 532.555 462.948 533.312 479.479L533.744 490.5Z" fill="#F8455B" fill-opacity="0.65"/>
<path d="M424.692 425.984L423.248 429.943L484.063 452.116L485.506 448.157L424.692 425.984Z" fill="#D23817"/>
<path d="M406.443 195.636C399.635 171.649 430.541 138.37 458.962 179.104L406.443 195.636Z" fill="black"/>
<path d="M465.987 210.006L468.364 267.812L437.025 282.398L425.57 222.864L465.987 210.006Z" fill="#EDB1A6"/>
<path d="M456.153 231.724C469.77 251.28 480.9 246.31 487.708 214.22C494.949 179.536 475.605 153.388 417.574 180.076L456.153 231.724Z" fill="black"/>
<path d="M432.162 257.115C432.162 257.115 447.399 250.524 448.372 232.912L429.244 242.961L432.162 257.115Z" fill="#EDB1A6"/>
<path d="M463.934 195.311L458.963 208.277L456.693 214.22L450.534 230.103C447.184 238.639 439.727 244.906 430.65 246.634L416.601 249.228C404.39 251.497 393.367 241.88 393.692 229.563C394.016 220.487 395.204 210.006 400.067 199.201C405.579 186.776 417.25 177.808 430.109 175.322L432.379 174.89H432.595C433.675 174.782 434.864 174.674 435.945 174.566C438.646 174.458 441.456 174.566 444.158 174.998L452.911 176.295C461.772 177.699 467.176 186.992 463.934 195.311Z" fill="#EDB1A6"/>
<path d="M399.311 207.953C398.987 211.302 399.96 214.004 401.473 214.22C402.986 214.328 404.498 211.843 404.823 208.493C405.147 205.144 404.174 202.442 402.661 202.226C401.148 202.118 399.636 204.712 399.311 207.953Z" fill="black"/>
<path d="M411.954 204.82C410.225 211.951 405.794 214.004 402.661 214.544C400.607 214.868 399.202 216.705 399.311 218.866C399.527 221.567 401.256 223.944 403.849 224.917L412.927 228.158C417.898 229.023 422.544 225.349 422.869 220.379L424.165 203.307L411.954 204.82Z" fill="#EDB1A6"/>
<path d="M403.31 226.322C400.176 225.241 397.906 222.324 397.69 218.974C397.474 216.057 399.419 213.572 402.337 213.032C405.147 212.599 408.929 210.655 410.442 204.388L413.468 205.144C411.414 213.464 406.011 215.517 402.877 216.057C401.581 216.273 400.716 217.354 400.824 218.65C400.932 220.811 402.337 222.648 404.39 223.296L403.31 226.322Z" fill="#EDB1A6"/>
<path d="M448.264 212.599C489.004 189.693 487.167 239.503 447.399 231.508L448.264 212.599Z" fill="#EDB1A6"/>
<path d="M419.303 210.979C418.978 214.328 419.951 217.029 421.464 217.245C422.977 217.353 424.49 214.868 424.814 211.519C425.138 208.169 424.166 205.468 422.653 205.252C421.14 205.144 419.627 207.737 419.303 210.979Z" fill="black"/>
<path d="M427.84 197.905C435.296 201.038 437.458 197.149 432.054 193.907C426.219 190.342 418.546 194.015 427.84 197.905Z" fill="black"/>
<path d="M406.227 194.339C412.062 193.366 410.442 189.693 405.579 189.693C400.283 189.585 398.879 195.527 406.227 194.339Z" fill="black"/>
<path d="M451.614 217.245C441.24 215.733 435.08 204.388 440.267 186.992C440.267 186.992 433.567 178.888 423.625 177.267C423.625 177.267 447.075 163.869 464.365 175.755C481.656 187.64 451.614 217.245 451.614 217.245Z" fill="black"/>
<path d="M393.151 282.939L405.038 302.712L421.356 335.558L422.221 337.287L428.056 349.064L442.537 378.238C458.422 368.405 477.01 357.276 491.382 339.448C492.355 338.26 493.327 336.963 494.3 335.666C497.866 330.804 501.108 325.51 503.918 319.567C515.156 296.013 501.108 268.244 475.929 262.734C475.281 262.626 474.632 262.518 473.984 262.301L436.269 256.035L418.222 259.924C417.25 260.141 416.385 260.357 415.629 260.681C402.229 265.327 397.042 271.594 393.151 282.939Z" fill="#EF0F3F"/>
<path d="M409.145 299.795L446.859 307.034C456.801 278.401 467.608 270.621 475.82 262.95C475.172 262.842 474.524 262.626 473.875 262.518L436.269 256.251L418.222 260.141C417.357 260.357 416.493 260.573 415.628 260.897C409.253 279.265 409.145 299.795 409.145 299.795Z" fill="#EDB1A6"/>
<path d="M415.521 260.897L414.116 300.659L409.145 299.794C409.145 299.794 408.929 277.536 415.521 260.897Z" fill="#EDB1A6"/>
<path d="M425.138 386.017L488.896 386.233C495.704 386.233 501 380.182 499.919 373.375L494.732 339.556L491.274 339.448L458.314 338.368L441.996 337.827L432.162 337.611L422.22 337.287L409.253 336.855L408.172 351.982L407.199 366.676C406.335 377.049 414.656 385.909 425.138 386.017Z" fill="#EF0F3F"/>
<path d="M392.179 327.023C392.179 335.559 399.419 345.823 408.064 351.874C413.684 355.764 419.843 357.925 425.138 356.844L427.948 349.065L432.163 337.611L432.379 337.071L433.243 334.694L406.551 299.794C406.011 300.767 405.471 301.739 404.93 302.712C399.743 311.68 392.179 320.432 392.179 327.023Z" fill="#EF0F3F"/>
<path d="M408.064 351.874L407.091 366.568C406.335 377.049 414.656 385.909 425.138 386.017L488.896 386.233C495.704 386.233 501 380.182 499.919 373.375L489.112 295.688C489.112 295.688 449.561 295.58 443.941 345.175C443.941 345.175 427.948 348.956 395.528 338.152C398.554 343.446 403.093 348.416 408.064 351.874Z" fill="#FFDCDF" fill-opacity="0.46"/>
<path d="M408.605 355.007C380.076 332.317 389.585 319.891 398.014 308.87C399.419 307.142 400.824 305.197 402.013 303.36L405.471 305.629C404.174 307.574 402.661 309.519 401.256 311.355C392.935 322.16 385.803 331.561 411.09 351.658L408.605 355.007Z" fill="#34B5D2"/>
<path d="M325.179 331.777L315.777 316.542C315.777 316.542 328.961 323.133 338.039 322.052C358.679 319.567 369.594 307.142 369.594 307.142L432.703 366.46C432.703 366.46 428.057 373.592 412.711 376.293C397.366 379.102 325.179 331.777 325.179 331.777Z" fill="white"/>
<path d="M325.179 331.777L313.292 319.567C313.292 319.567 331.231 319.243 340.308 320.54C357.382 322.917 368.513 310.599 368.513 310.599L432.704 371.971C432.704 371.971 428.057 373.808 412.712 376.509C397.366 379.102 325.179 331.777 325.179 331.777Z" fill="#F0F2F6"/>
<path d="M321.83 316.65L349.71 312.976C351.007 312.76 352.196 313.192 353.168 314.165L358.572 319.675L326.692 323.457C326.368 323.457 326.152 323.349 325.936 323.241L318.804 321.512L320.209 318.055C320.425 317.298 321.073 316.758 321.83 316.65Z" fill="#FDFAF7"/>
<path d="M312.103 324.43C312.536 323.565 313.4 323.025 314.373 322.917L366.136 315.894C368.621 315.57 370.999 316.434 372.728 318.163L431.407 376.185L378.887 376.725L310.158 327.779L312.103 324.43Z" fill="#F2CB6D"/>
<path d="M430.11 380.399L410.442 380.615L377.591 380.939L328.313 343.338L310.699 329.94C309.51 328.968 310.05 327.023 311.563 326.807L364.839 320.108C367.324 319.784 369.702 320.648 371.431 322.377L430.11 380.399Z" fill="#7A252D"/>
<path d="M410.442 380.615L377.59 380.939L328.312 343.338C329.717 342.149 331.663 341.285 334.256 340.637C340.632 339.124 347.44 339.124 353.924 340.313C364.082 342.041 373.592 346.147 383.101 350.253C389.045 352.846 395.097 355.439 400.284 359.437C405.363 363.435 409.577 369.053 410.442 375.536C410.658 377.265 410.658 378.994 410.442 380.615Z" fill="#D7002E"/>
<path d="M353.925 323.565L356.194 317.298L348.846 317.622L353.925 323.565Z" fill="#FDFAF7"/>
<path d="M319.559 320.756L347.332 317.082C347.872 316.974 348.521 317.19 348.953 317.622L353.816 322.485C354.356 323.025 354.032 323.997 353.275 323.997L325.287 327.347C324.746 327.455 324.206 327.239 323.774 326.807L319.127 322.269C318.479 321.836 318.695 320.864 319.559 320.756Z" fill="#E9E1E0"/>
<path d="M376.834 383.316L333.716 353.927L389.153 358.033L393.8 376.617L376.834 383.316Z" fill="#EDB1A6"/>
<path d="M384.722 359.978L392.503 358.897C394.772 358.573 396.177 356.196 395.313 354.035L394.989 353.387C393.26 349.281 388.505 347.552 384.614 349.605C382.021 351.01 380.4 353.819 380.616 356.736C380.832 358.789 382.777 360.302 384.722 359.978Z" fill="#EDB1A6"/>
<path d="M367.648 359.653L333.716 353.927L333.284 352.954C331.663 349.065 328.529 346.039 324.422 344.635C323.774 344.419 323.342 343.77 323.342 343.122C323.342 343.014 323.342 342.906 323.342 342.798C323.99 340.097 326.368 338.26 329.069 338.368C329.501 338.368 329.934 338.476 330.366 338.584L332.419 339.232L332.635 339.34C336.093 340.529 338.795 343.338 339.768 346.904L366.676 359.221L367.648 359.653Z" fill="#EDB1A6"/>
<path d="M355.005 361.058L339.552 355.764C337.391 349.173 333.608 346.58 329.61 345.283C328.962 345.067 328.529 344.419 328.529 343.77C328.529 343.662 328.529 343.554 328.529 343.446C328.962 341.393 330.474 339.773 332.42 339.232L332.636 339.34C336.094 340.529 338.795 343.338 339.768 346.904L342.686 354.035L355.005 361.058Z" fill="#EDB1A6"/>
<path d="M342.793 354.035L342.361 353.062C340.74 349.173 337.606 346.147 333.5 344.743C332.743 344.527 332.311 343.77 332.527 343.014C333.284 339.881 336.418 337.936 339.552 338.692L341.821 339.448C345.279 340.637 347.981 343.446 348.953 347.012L376.726 359.762L342.793 354.035Z" fill="#EDB1A6"/>
<path d="M464.691 402.441L376.51 383.424C376.51 383.424 384.615 367.109 452.155 365.812L464.691 402.441Z" fill="#EDB1A6"/>
<path d="M475.82 262.95C497.217 257.223 512.994 271.81 514.723 288.989L490.841 379.858C487.599 392.068 477.225 401.036 464.581 402.332L452.046 365.812L475.82 262.95Z" fill="#EF0F3F"/>
<path d="M508.996 268.892C496.569 276.996 477.765 279.157 468.364 275.915C461.88 273.754 456.26 260.248 456.152 232.48C476.144 232.264 477.981 225.673 477.981 225.673L475.928 251.28L508.996 268.892Z" fill="black"/>
<path d="M407.307 230.103C410.765 228.591 416.061 229.239 417.682 230.211C418.978 230.968 415.953 236.046 412.927 236.478C409.577 236.91 405.362 230.968 407.307 230.103Z" fill="white"/>
<path opacity="0.3" d="M315.667 146.15C301.403 146.15 289.84 134.589 289.84 120.326C289.84 106.064 301.403 94.5026 315.667 94.5026C329.932 94.5026 341.495 106.064 341.495 120.326C341.387 134.589 329.932 146.15 315.667 146.15Z" fill="#D8DCE2"/>
<path d="M108.724 354.683L76.1962 365.38C73.2785 356.412 78.1414 346.687 87.1108 343.77C96.0801 340.853 105.806 345.715 108.724 354.683Z" fill="#F8455B"/>
<path d="M136.929 45.4482L155.3 32.4824C158.866 37.5607 157.677 44.5839 152.598 48.1495C147.519 51.7151 140.495 50.5265 136.929 45.4482Z" fill="#5A7F6C"/>
<path d="M287.139 437.232C290.123 437.232 292.542 434.813 292.542 431.83C292.542 428.846 290.123 426.427 287.139 426.427C284.154 426.427 281.735 428.846 281.735 431.83C281.735 434.813 284.154 437.232 287.139 437.232Z" fill="#5A7F6C"/>
<path d="M545.846 185.695C545.846 188.72 543.468 191.097 540.442 191.097C537.416 191.097 535.039 188.72 535.039 185.695C535.039 182.67 537.416 180.292 540.442 180.292C543.36 180.292 545.846 182.778 545.846 185.695Z" fill="#E2B754"/>
<path d="M394.822 16.6836C396.011 11.6296 392.877 6.56909 387.822 5.38074C382.767 4.19238 377.706 7.32613 376.517 12.3802C375.329 17.4342 378.463 22.4946 383.518 23.683C388.573 24.8713 393.634 21.7376 394.822 16.6836Z" fill="#fff"/>
<path d="M243.914 4.0656C243.914 6.01047 242.293 7.6312 240.347 7.6312C238.402 7.6312 236.781 6.01047 236.781 4.0656C236.781 2.12073 238.402 0.5 240.347 0.5C242.401 0.5 243.914 2.12073 243.914 4.0656Z" fill="white"/>
<path d="M300.431 35.3996C300.431 33.4547 298.81 31.834 296.865 31.834C294.92 31.834 293.299 33.4547 293.299 35.3996C293.299 37.3445 294.92 38.9652 296.865 38.9652C298.918 38.9652 300.431 37.3445 300.431 35.3996Z" fill="white"/>
<path d="M223.273 415.406C223.273 419.08 220.247 421.997 216.681 421.997C213.007 421.997 210.089 418.972 210.089 415.406C210.089 411.733 213.115 408.815 216.681 408.815C220.355 408.815 223.273 411.733 223.273 415.406Z" fill="white"/>
<path d="M493.975 144.313C496.959 144.313 499.378 141.894 499.378 138.91C499.378 135.927 496.959 133.508 493.975 133.508C490.99 133.508 488.571 135.927 488.571 138.91C488.571 141.894 490.99 144.313 493.975 144.313Z" fill="white"/>
<path d="M122.34 330.264C124.19 330.264 125.69 328.764 125.69 326.914C125.69 325.065 124.19 323.565 122.34 323.565C120.49 323.565 118.99 325.065 118.99 326.914C118.99 328.764 120.49 330.264 122.34 330.264Z" fill="white"/>
<path d="M525.313 222.972C526.746 222.972 527.907 221.811 527.907 220.379C527.907 218.947 526.746 217.786 525.313 217.786C523.881 217.786 522.72 218.947 522.72 220.379C522.72 221.811 523.881 222.972 525.313 222.972Z" fill="white"/>
<path d="M352.302 397.038C352.302 399.415 350.357 401.36 347.98 401.36C345.602 401.36 343.657 399.415 343.657 397.038C343.657 394.661 345.602 392.716 347.98 392.716C350.357 392.716 352.302 394.661 352.302 397.038Z" fill="white"/>
<path d="M477.657 56.4691C477.657 53.3357 475.171 50.8506 472.037 50.8506C468.903 50.8506 466.418 53.3357 466.418 56.4691C466.418 59.6025 468.903 62.0876 472.037 62.0876C475.063 62.1957 477.657 59.6025 477.657 56.4691Z" fill="white"/>
<path opacity="0.3" d="M299.351 400.496H157.678C152.599 400.496 148.492 396.39 148.492 391.311V308.762C148.492 303.684 152.599 299.578 157.678 299.578H299.459C304.538 299.578 308.644 303.684 308.644 308.762V391.311C308.644 396.39 304.538 400.496 299.351 400.496Z" fill="#D8DCE2"/>
<path opacity="0.8" d="M310.481 386.881H168.809C163.73 386.881 159.623 382.775 159.623 377.697V295.148C159.623 290.07 163.73 285.964 168.809 285.964H310.589C315.669 285.964 319.775 290.07 319.775 295.148V377.697C319.775 382.775 315.669 386.881 310.481 386.881Z" fill="white"/>
<path d="M159.515 334.37V295.689C159.515 290.286 162.865 285.856 167.079 285.856H312.21C316.425 285.856 319.775 290.286 319.775 295.689V377.049C319.775 382.451 316.425 386.881 312.21 386.881H167.079C162.865 386.881 159.515 382.451 159.515 377.049V364.731" stroke="#E9E9E9" stroke-width="2.82692" stroke-miterlimit="10"/>
<path d="M169.457 345.499H166.863V299.578C166.863 295.796 169.889 292.771 173.671 292.771H181.02V318.595C180.804 318.811 180.588 319.135 180.479 319.351L169.457 345.499Z" fill="#DFEBFF"/>
<path d="M195.608 362.03H166.863V351.765H169.997C170.105 351.765 170.105 351.873 170.213 351.873C170.646 352.09 170.97 352.09 171.402 352.09C171.834 352.09 172.375 351.981 172.807 351.765H190.529L195.608 362.03Z" fill="#DFEBFF"/>
<path d="M198.85 368.189L204.794 379.966H173.671C169.889 379.966 166.863 376.941 166.863 373.159V368.297H198.85V368.189Z" fill="#DFEBFF"/>
<path d="M176.157 345.499L185.343 324.105H208.361L190.854 345.499H176.157Z" fill="#EF0F3F"/>
<path d="M216.357 324.105H227.272L201.228 359.221L196.041 349.064L216.357 324.105Z" fill="#DFEBFF"/>
<path d="M242.941 350.793L229.649 379.966H211.819L204.362 365.488L214.52 351.657L242.941 350.793Z" fill="#EF0F3F"/>
<path d="M232.027 317.946H187.288V292.771H254.72L232.027 317.946Z" fill="#DFEBFF"/>
<path d="M245.966 344.526L219.274 345.391L234.944 324.105H257.313L245.966 344.526Z" fill="#DFEBFF"/>
<path d="M277.738 364.407L249.749 379.966H236.457L249.317 351.657L277.738 364.407Z" fill="#DFEBFF"/>
<path d="M240.348 317.946L263.041 292.771H281.52V317.946H240.348Z" fill="#DFEBFF"/>
<path d="M283.466 360.193L252.127 346.147L263.69 325.401L293.624 345.066L283.466 360.193Z" fill="#EF0F3F"/>
<path d="M284.762 367.648L309.077 379.102C308.104 379.642 306.916 380.074 305.619 380.074H262.501L284.762 367.648Z" fill="#DFEBFF"/>
<path d="M312.427 299.686V317.946H287.68V292.771H305.618C309.401 292.771 312.427 295.904 312.427 299.686Z" fill="#DFEBFF"/>
<path d="M312.427 324.105V350.037L299.675 341.609L272.983 324.105H312.427Z" fill="#DFEBFF"/>
<path d="M298.81 348.524L312.426 357.492V373.159C312.426 373.375 312.426 373.591 312.426 373.807L289.192 362.894L298.81 348.524Z" fill="#DFEBFF"/>
<path d="M228.352 329.508C218.41 329.616 211.17 338.584 212.142 348.416C213.223 359.113 221.004 366.352 225.434 369.594C227.271 370.998 229.757 370.998 231.594 369.594C236.349 366.028 245.102 357.816 245.102 346.039C245.102 336.855 237.537 329.4 228.352 329.508ZM228.568 354.251C223.921 354.251 220.139 350.469 220.139 345.823C220.139 341.177 223.921 337.395 228.568 337.395C233.215 337.395 236.997 341.177 236.997 345.823C236.997 350.469 233.215 354.251 228.568 354.251Z" fill="#7A252D"/>
<path d="M242.509 337.071C239.591 332.425 234.404 329.4 228.568 329.4C222.733 329.4 217.546 332.425 214.628 337.071C213.656 338.692 212.899 340.421 212.467 342.257C214.412 347.66 218.843 351.766 224.462 353.17C221.868 351.766 220.139 348.956 220.139 345.715C220.139 344.526 220.356 343.338 220.896 342.365C222.193 339.34 225.218 337.287 228.677 337.287C232.135 337.287 235.16 339.34 236.457 342.365C236.889 343.446 237.214 344.526 237.214 345.715C237.214 348.956 235.485 351.658 232.891 353.17C238.51 351.766 243.049 347.66 244.886 342.257C244.238 340.421 243.481 338.692 242.509 337.071Z" fill="#7A252D"/>
<path d="M236.998 345.823C236.998 350.469 233.215 354.251 228.569 354.251C223.922 354.251 220.14 350.469 220.14 345.823C220.14 344.959 220.248 344.202 220.464 343.446C221.436 347.012 224.786 349.605 228.569 349.605C232.459 349.605 235.701 347.012 236.674 343.446C236.89 344.202 236.998 344.959 236.998 345.823Z" fill="#EA9C2A"/>
<path d="M275.9 303.252C265.958 303.36 258.718 312.328 259.69 322.161C260.771 332.857 268.551 340.097 272.982 343.338C274.819 344.743 277.305 344.743 279.142 343.338C283.897 339.772 292.65 331.561 292.65 319.784C292.758 310.599 285.193 303.144 275.9 303.252ZM276.116 328.103C271.469 328.103 267.687 324.322 267.687 319.675C267.687 315.029 271.469 311.248 276.116 311.248C280.763 311.248 284.545 315.029 284.545 319.675C284.653 324.322 280.871 328.103 276.116 328.103Z" fill="#7A252D"/>
<path d="M290.057 310.923C287.139 306.277 281.952 303.252 276.116 303.252C270.281 303.252 265.094 306.277 262.176 310.923C261.203 312.544 260.447 314.273 260.015 316.11C261.96 321.512 266.39 325.618 272.01 327.023C269.416 325.618 267.687 322.809 267.687 319.567C267.687 318.379 267.903 317.19 268.444 316.218C269.74 313.192 272.766 311.139 276.224 311.139C279.682 311.139 282.708 313.192 284.005 316.218C284.437 317.298 284.761 318.379 284.761 319.567C284.761 322.809 283.032 325.51 280.439 327.023C286.058 325.618 290.597 321.512 292.434 316.11C291.894 314.273 291.137 312.544 290.057 310.923Z" fill="#7A252D"/>
<path d="M284.653 319.675C284.653 324.321 280.871 328.103 276.224 328.103C271.577 328.103 267.795 324.321 267.795 319.675C267.795 318.811 267.903 318.055 268.119 317.298C269.092 320.864 272.442 323.457 276.224 323.457C280.114 323.457 283.356 320.864 284.329 317.298C284.545 318.055 284.653 318.811 284.653 319.675Z" fill="#EA9C2A"/>
<path d="M197.229 285.856C187.287 285.964 180.047 294.932 181.019 304.765C182.1 315.461 189.881 322.701 194.311 325.942C196.148 327.347 198.634 327.347 200.471 325.942C205.226 322.377 213.979 314.165 213.979 302.388C214.087 293.203 206.522 285.748 197.229 285.856ZM197.445 310.707C192.798 310.707 189.016 306.926 189.016 302.279C189.016 297.633 192.798 293.852 197.445 293.852C202.092 293.852 205.874 297.633 205.874 302.279C205.982 306.926 202.2 310.707 197.445 310.707Z" fill="#7A252D"/>
<path d="M211.386 293.528C208.468 288.881 203.281 285.856 197.445 285.856C191.61 285.856 186.423 288.881 183.505 293.528C182.532 295.148 181.776 296.877 181.344 298.714C183.289 304.116 187.72 308.222 193.339 309.627C190.745 308.222 189.016 305.413 189.016 302.171C189.016 300.983 189.232 299.794 189.773 298.822C191.07 295.797 194.095 293.744 197.553 293.744C201.012 293.744 204.037 295.797 205.334 298.822C205.766 299.902 206.091 300.983 206.091 302.171C206.091 305.413 204.362 308.114 201.768 309.627C207.387 308.222 211.926 304.116 213.763 298.714C213.223 296.877 212.466 295.148 211.386 293.528Z" fill="#7A252D"/>
<path d="M205.982 302.279C205.982 306.925 202.2 310.707 197.553 310.707C192.906 310.707 189.124 306.925 189.124 302.279C189.124 301.415 189.232 300.659 189.448 299.902C190.421 303.468 193.771 306.061 197.553 306.061C201.443 306.061 204.685 303.468 205.658 299.902C205.874 300.659 205.982 301.415 205.982 302.279Z" fill="#EA9C2A"/>
<path opacity="0.3" d="M416.06 90.3965H512.67C518.29 90.3965 522.828 94.9345 522.828 100.553V130.591C522.828 136.209 518.29 140.747 512.67 140.747H451.83L423.949 153.929L429.136 140.747H416.06C410.441 140.747 405.902 136.209 405.902 130.591V100.553C405.794 94.9345 410.441 90.3965 416.06 90.3965Z" fill="#D8DCE2"/>
<path d="M405.362 79.6997H501.972C507.591 79.6997 512.13 84.2377 512.13 89.8563V119.894C512.13 125.512 507.591 130.05 501.972 130.05H441.132L413.251 143.232L418.438 130.05H405.362C399.743 130.05 395.204 125.512 395.204 119.894V89.8563C395.096 84.2377 399.743 79.6997 405.362 79.6997Z" fill="white" stroke="#E9E9E9" stroke-width="2.82692" stroke-miterlimit="10"/>
<path d="M476.793 94.394H500.567C501.972 94.394 503.161 95.5826 503.161 96.9872C503.161 98.3918 501.972 99.5804 500.567 99.5804H476.793C475.388 99.5804 474.199 98.3918 474.199 96.9872C474.199 95.4745 475.388 94.394 476.793 94.394Z" fill="#EEEEEE"/>
<path d="M410.441 94.3942H465.122C466.527 94.3942 467.716 95.5827 467.716 96.9873C467.716 98.392 466.527 99.5805 465.122 99.5805H410.441C409.036 99.5805 407.848 98.392 407.848 96.9873C407.848 95.4747 409.036 94.3942 410.441 94.3942Z" fill="#EEEEEE"/>
<path d="M422.977 114.275H410.441C409.036 114.275 407.848 113.086 407.848 111.682C407.848 110.277 409.036 109.089 410.441 109.089H422.977C424.382 109.089 425.57 110.277 425.57 111.682C425.462 113.086 424.382 114.275 422.977 114.275Z" fill="#EEEEEE"/>
<path d="M500.567 114.275H434.647C433.242 114.275 432.054 113.086 432.054 111.682C432.054 110.277 433.242 109.089 434.647 109.089H500.567C501.972 109.089 503.16 110.277 503.16 111.682C503.052 113.086 501.972 114.275 500.567 114.275Z" fill="#EEEEEE"/>
<path opacity="0.3" d="M283.789 59.0623H186.963C177.345 59.0623 169.564 66.8418 169.564 76.4581C169.564 86.0744 177.345 93.8539 186.963 93.8539H283.789C293.407 93.8539 301.187 86.0744 301.187 76.4581C301.079 66.8418 293.299 59.0623 283.789 59.0623Z" fill="#D8DCE2"/>
<path d="M293.839 49.0137H197.013C187.395 49.0137 179.614 56.7932 179.614 66.4095C179.614 76.0258 187.395 83.8053 197.013 83.8053H293.839C303.456 83.8053 311.237 76.0258 311.237 66.4095C311.237 56.7932 303.456 49.0137 293.839 49.0137Z" fill="white" stroke="#E9E9E9" stroke-width="2.82692" stroke-miterlimit="10"/>
<path d="M215.492 64.6808C216.032 64.1406 215.708 63.1681 214.952 63.0601L209.656 62.3037C209.332 62.3037 209.116 62.0876 208.9 61.7635L206.522 57.0094C206.306 56.6852 205.982 56.4691 205.658 56.4691H205.55H205.442H205.334H205.226H205.118H205.01H204.901H204.793H204.685H204.577H204.469H204.361H204.253H204.145H204.037H203.929H203.821H203.713H203.605H203.497H203.389H203.281H203.172H203.064H202.956H202.848H202.74H202.632H202.524C202.2 56.4691 201.768 56.5772 201.66 57.0094L199.282 61.7635C199.174 62.0876 198.85 62.1957 198.526 62.3037L193.231 63.0601C192.474 63.1681 192.15 64.1406 192.69 64.6808L196.472 68.3545C196.689 68.5705 196.797 68.8947 196.797 69.2188L195.932 74.4052C195.824 75.0535 196.364 75.4857 196.905 75.4857H197.013H197.121H197.229H197.337H197.445H197.553H197.661H197.769H197.877H197.985H198.093H198.201H198.31H198.418H198.526H198.634H198.742H198.85H198.958H199.066H199.174H199.282H199.39H199.498H199.606H199.714H199.822H199.931H200.039C200.255 75.4857 200.363 75.4857 200.579 75.3776L204.253 73.4327L207.927 75.3776C208.143 75.4857 208.252 75.4857 208.468 75.4857H208.576H208.684H208.792H208.9H209.008H209.116H209.224H209.332H209.44H209.548H209.656H209.764H209.872H209.981H210.089H210.197H210.305H210.413H210.521H210.629H210.737H210.845H210.953H211.061H211.169H211.277H211.385H211.493H211.602C212.142 75.4857 212.682 74.9454 212.574 74.4052L211.71 69.2188C211.71 68.8947 211.71 68.5705 212.034 68.3545L215.492 64.6808Z" fill="#DFEBFF"/>
<path d="M244.021 64.6809C244.561 64.1407 244.237 63.1682 243.481 63.0602L238.186 62.3039C237.861 62.3039 237.645 62.0878 237.429 61.7636L235.052 57.0095C234.836 56.6853 234.511 56.4692 234.187 56.4692H234.079H233.971H233.863H233.755H233.647H233.539H233.431H233.323H233.215H233.107H232.999H232.89H232.782H232.674H232.566H232.458H232.35H232.242H232.134H232.026H231.918H231.81H231.702H231.594H231.486H231.378H231.27H231.161H231.053C230.729 56.4692 230.297 56.5773 230.189 57.0095L227.811 61.7636C227.703 62.0878 227.379 62.1958 227.055 62.3039L221.76 63.0602C221.003 63.1682 220.679 64.1407 221.219 64.6809L225.002 68.3546C225.218 68.5707 225.326 68.8948 225.326 69.219L224.461 74.4053C224.353 75.0536 224.894 75.4858 225.434 75.4858H225.542H225.65H225.758H225.866H225.974H226.082H226.19H226.299H226.407H226.515H226.623H226.731H226.839H226.947H227.055H227.163H227.271H227.379H227.487H227.595H227.703H227.811H227.919H228.028H228.136H228.244H228.352H228.46H228.568C228.784 75.4858 228.892 75.4858 229.108 75.3777L232.782 73.4329L236.457 75.3777C236.673 75.4858 236.781 75.4858 236.997 75.4858H237.105H237.213H237.321H237.429H237.537H237.645H237.753H237.861H237.97H238.078H238.186H238.294H238.402H238.51H238.618H238.726H238.834H238.942H239.05H239.158H239.266H239.374H239.482H239.59H239.699H239.807H239.915H240.023H240.131C240.671 75.4858 241.211 74.9455 241.103 74.4053L240.239 69.219C240.239 68.8948 240.239 68.5707 240.563 68.3546L244.021 64.6809Z" fill="#DFEBFF"/>
<path d="M272.442 64.6808C272.982 64.1406 272.658 63.1681 271.902 63.0601L266.607 62.3037C266.282 62.3037 266.066 62.0876 265.85 61.7635L263.473 57.0094C263.257 56.6852 262.932 56.4691 262.608 56.4691H262.5H262.392H262.284H262.176H262.068H261.96H261.852H261.744H261.636H261.528H261.419H261.311H261.203H261.095H260.987H260.879H260.771H260.663H260.555H260.447H260.339H260.231H260.123H260.015H259.907H259.798H259.69H259.582H259.474C259.15 56.4691 258.718 56.5772 258.61 57.0094L256.232 61.7635C256.124 62.0876 255.8 62.1957 255.476 62.3037L250.181 63.0601C249.424 63.1681 249.1 64.1406 249.64 64.6808L253.423 68.3545C253.639 68.5705 253.747 68.8947 253.747 69.2188L252.882 74.4052C252.774 75.0535 253.315 75.4857 253.855 75.4857H253.963H254.071H254.179H254.287H254.395H254.503H254.611H254.719H254.827H254.936H255.044H255.152H255.26H255.368H255.476H255.584H255.692H255.8H255.908H256.016H256.124H256.232H256.34H256.448H256.557H256.665H256.773H256.881H256.989C257.205 75.4857 257.313 75.4857 257.529 75.3776L261.203 73.4327L264.877 75.3776C265.094 75.4857 265.202 75.4857 265.418 75.4857H265.526H265.634H265.742H265.85H265.958H266.066H266.174H266.282H266.39H266.498H266.607H266.715H266.823H266.931H267.039H267.147H267.255H267.363H267.471H267.579H267.687H267.795H267.903H268.011H268.119H268.228H268.336H268.444H268.552C269.092 75.4857 269.632 74.9454 269.524 74.4052L268.66 69.2188C268.66 68.8947 268.66 68.5705 268.984 68.3545L272.442 64.6808Z" fill="#DFEBFF"/>
<path d="M300.971 64.6808C301.512 64.1406 301.187 63.1681 300.431 63.0601L295.136 62.3037C294.812 62.3037 294.596 62.0876 294.379 61.7635L292.002 57.0094C291.786 56.6852 291.462 56.4691 291.137 56.4691H291.029H290.921H290.813H290.705H290.597H290.489H290.381H290.273H290.165H290.057H289.949H289.841H289.733H289.625H289.516H289.408H289.3H289.192H289.084H288.976H288.868H288.76H288.652H288.544H288.436H288.328H288.22H288.112H288.004C287.679 56.4691 287.247 56.5772 287.139 57.0094L284.762 61.7635C284.654 62.0876 284.329 62.1957 284.005 62.3037L278.71 63.0601C277.954 63.1681 277.629 64.1406 278.17 64.6808L281.952 68.3545C282.168 68.5705 282.276 68.8947 282.276 69.2188L281.412 74.4052C281.304 75.0535 281.844 75.4857 282.384 75.4857H282.492H282.6H282.708H282.816H282.925H283.033H283.141H283.249H283.357H283.465H283.573H283.681H283.789H283.897H284.005H284.113H284.221H284.329H284.437H284.545H284.654H284.762H284.87H284.978H285.086H285.194H285.302H285.41H285.518C285.734 75.4857 285.842 75.4857 286.058 75.3776L289.733 73.4327L293.407 75.3776C293.623 75.4857 293.731 75.4857 293.947 75.4857H294.055H294.163H294.271H294.379H294.487H294.596H294.704H294.812H294.92H295.028H295.136H295.244H295.352H295.46H295.568H295.676H295.784H295.892H296H296.108H296.216H296.325H296.433H296.541H296.649H296.757H296.865H296.973H297.081C297.621 75.4857 298.162 74.9454 298.054 74.4052L297.189 69.2188C297.189 68.8947 297.189 68.5705 297.513 68.3545L300.971 64.6808Z" fill="#DFEBFF"/>
<path d="M232.026 57.0094L234.404 61.7635C234.512 62.0877 234.836 62.1957 235.16 62.3038L240.455 63.0601C241.212 63.1682 241.536 64.1406 240.996 64.6809L237.213 68.3545C236.997 68.5706 236.889 68.8947 236.889 69.2189L237.754 74.4052C237.862 75.1616 237.105 75.8099 236.349 75.3777L231.594 72.8925C231.27 72.7845 230.946 72.7845 230.73 72.8925L225.975 75.3777C225.218 75.7018 224.462 75.1616 224.57 74.4052L225.434 69.2189C225.434 68.8947 225.434 68.5706 225.11 68.3545L221.328 64.6809C220.788 64.1406 221.112 63.1682 221.868 63.0601L227.163 62.3038C227.488 62.3038 227.704 62.0877 227.92 61.7635L230.297 57.0094C230.73 56.3611 231.702 56.3611 232.026 57.0094Z" fill="#EE0033"/>
<path d="M260.555 57.0094L262.932 61.7635C263.04 62.0877 263.365 62.1957 263.689 62.3038L268.984 63.0601C269.74 63.1682 270.065 64.1406 269.524 64.6809L265.742 68.3545C265.526 68.5706 265.418 68.8947 265.418 69.2189L266.282 74.4052C266.39 75.1616 265.634 75.8099 264.878 75.3777L260.123 72.8925C259.799 72.7845 259.474 72.7845 259.258 72.8925L254.611 75.3777C253.855 75.7018 253.098 75.1616 253.207 74.4052L254.071 69.2189C254.071 68.8947 254.071 68.5706 253.747 68.3545L249.965 64.6809C249.424 64.1406 249.748 63.1682 250.505 63.0601L255.8 62.3038C256.124 62.3038 256.34 62.0877 256.557 61.7635L258.934 57.0094C259.15 56.3611 260.231 56.3611 260.555 57.0094Z" fill="#EE0033"/>
<path d="M289.084 57.0094L291.461 61.7635C291.569 62.0877 291.894 62.1957 292.218 62.3038L297.513 63.0601C298.269 63.1682 298.594 64.1406 298.053 64.6809L294.271 68.3545C294.055 68.5706 293.947 68.8947 293.947 69.2189L294.811 74.4052C294.919 75.1616 294.163 75.8099 293.407 75.3777L288.652 72.8925C288.327 72.7845 288.003 72.7845 287.787 72.8925L283.032 75.3777C282.276 75.7018 281.519 75.1616 281.627 74.4052L282.492 69.2189C282.492 68.8947 282.492 68.5706 282.168 68.3545L278.385 64.6809C277.845 64.1406 278.169 63.1682 278.926 63.0601L284.221 62.3038C284.545 62.3038 284.761 62.0877 284.977 61.7635L287.355 57.0094C287.679 56.3611 288.76 56.3611 289.084 57.0094Z" fill="#E9F1FF"/>
<path d="M203.605 57.0095L205.983 61.7637C206.091 62.0878 206.415 62.1959 206.739 62.3039L212.034 63.0603C212.791 63.1683 213.115 64.1407 212.575 64.681L208.793 68.3546C208.576 68.5707 208.468 68.8949 208.468 69.219L209.333 74.4053C209.441 75.1617 208.684 75.81 207.928 75.3778L203.173 72.8927C202.849 72.7846 202.525 72.7846 202.309 72.8927L197.554 75.3778C196.797 75.7019 196.041 75.1617 196.149 74.4053L197.013 69.219C197.013 68.8949 197.013 68.5707 196.689 68.3546L192.907 64.681C192.367 64.1407 192.691 63.1683 193.447 63.0603L198.742 62.3039C199.067 62.3039 199.283 62.0878 199.499 61.7637L201.876 57.0095C202.201 56.3612 203.173 56.3612 203.605 57.0095Z" fill="#EE0033"/>
</g>
<defs>
<clipPath id="clip0_477_4861">
<rect width="484.346" height="490" fill="white" transform="translate(61.5 0.5)"/>
</clipPath>
</defs>
</svg>
