<svg width="535" height="503" viewBox="0 0 535 503" fill="none" xmlns="http://www.w3.org/2000/svg">
<path d="M512.136 340.062C458.084 458.31 315.417 509.116 203.631 500.456C173.114 498.093 111.697 493.329 63.7444 450.894C-28.343 369.38 -14.1683 198.99 73.987 98.676C85.3229 85.7398 163.907 -0.808287 286.358 0.346409C376.009 1.19439 438.942 48.5911 446.595 54.5089C456.262 61.9783 477.572 79.6957 496.791 107.823C541.943 173.912 545.913 266.161 512.136 340.062Z" fill="url(#paint0_linear_477_5856)"/>
<path d="M247.957 112.749C243.412 100.877 275.06 74.4272 260.387 51.4776L232.191 46.4077C232.191 46.4077 241.129 79.1001 234.32 92.6317C227.491 106.163 220.299 99.2351 220.26 90.1058C220.222 80.9945 231.078 56.7098 223.713 47.8331C223.713 47.8331 217.824 40.8508 209.864 49.6553C201.885 58.4779 180.671 54.8334 173.267 49.3486C173.267 49.3486 174.38 54.4365 171.138 67.084C167.877 79.7315 163.657 92.2347 175.511 95.8793C187.384 99.5238 204.302 98.4954 205.318 105.658C206.335 112.821 175.972 120.759 162.813 100.931C162.813 100.931 156.004 120.669 159.092 126.461C162.181 132.252 174.859 136.853 192.314 130.087C209.768 123.321 219.915 125.144 220.682 130.52C221.449 135.897 167.705 148.364 158.057 131.512C158.057 131.512 161.759 170.014 164.751 174.038C167.724 178.061 191.489 174.182 204.724 166.659C217.978 159.135 233.188 161.877 237.139 166.081C241.091 170.285 221.296 170.231 212.991 174.561C204.685 178.891 165.748 181.796 165.748 181.796C165.748 181.796 170.812 183.871 174.111 196.681C177.429 209.491 190.837 228.778 198.912 225.584C206.987 222.373 241.954 200.127 254.863 197.204C267.771 194.281 278.781 194.516 273.679 200C268.577 205.485 251.985 209.491 240.976 215.661C229.985 221.831 203.822 241.01 195.92 237.257C195.92 237.257 213.835 268.416 249.051 265.421C249.051 265.421 263.609 254.055 269.325 238.214C275.06 222.355 278.206 215.95 284.42 215.895C290.616 215.841 286.549 226.757 282.713 236.536C278.877 246.314 270.437 269.246 262.497 271.916C262.497 271.916 315.206 264.501 316.05 230.311C316.836 198.25 312.693 194.985 312.175 194.714C314.189 195.634 375.127 222.824 382.473 152.026C382.473 152.026 375.99 167.741 364.021 168.499C352.052 169.257 335.096 181.345 333.427 173.478C331.74 165.612 375.242 162.942 380.325 146.397C385.408 129.853 371.789 106.867 351.879 103.673C351.879 103.673 355.14 119.172 341.963 131.368C328.786 143.565 307.514 156.609 309.988 143.095C312.463 129.582 352.685 103.98 352.359 92.3791C352.052 80.796 311.811 65.6406 311.811 65.6406C311.811 65.6406 312.444 71.6848 306.574 91.4228C300.705 111.161 289.733 132.469 286.281 127.778C282.828 123.087 291.038 109.645 297.904 97.3768C304.771 85.1081 306.075 67.1562 299.343 63.4034C292.61 59.6507 269.133 53.0472 269.133 53.0472C269.133 53.0472 266.985 79.7135 267.253 91.8739C267.522 104.034 252.484 124.62 247.957 112.749ZM306.152 169.726C296.504 183.69 294.03 169.798 294.509 160.091C294.874 152.73 315.8 155.779 306.152 169.726ZM282.291 147.444C276.134 156.808 270.073 156.645 269.574 150.547C268.462 136.51 288.467 138.062 282.291 147.444ZM254.191 126.677C251.199 131.964 248.59 133.244 244.984 127.345C241.378 121.463 257.183 121.391 254.191 126.677Z" fill="#D7002E"/>
<path d="M387.749 349.48C387.749 349.48 328.154 153.109 365.365 9.89065C367.859 0.256149 381.017 -3.31619 388.536 3.59394C438.809 49.872 572.615 199.928 387.749 349.48Z" fill="#F8455B"/>
<path opacity="0.5" d="M400.158 328.406C399.947 329.056 400.964 329.399 401.271 328.767C412.837 305.728 449.261 203.014 399.641 61.5815C399.487 61.1305 398.72 61.3109 398.835 61.78C407.332 96.1322 434.857 224.718 400.158 328.406Z" fill="white"/>
<path d="M534.597 11.4603C535.402 10.0711 533.657 8.60965 532.295 9.54784C510.525 24.3424 434.357 82.9793 415.426 190.113C398.125 288.136 403.035 359.565 406.008 386.087C406.603 391.319 412.971 394.044 417.536 390.994C444.619 372.916 517.641 318.573 523.28 254.722C530.032 178.386 496.12 77.729 534.597 11.4603Z" fill="#D7002E"/>
<path opacity="0.5" d="M489.425 85.848C489.425 85.848 430.137 153.127 412.472 383.489C412.472 383.489 443.257 152.856 489.425 85.848Z" fill="white"/>
<path d="M174.876 335.154C174.876 335.154 138.47 147.516 44.3882 42.0417C38.0585 34.9511 25.4758 37.062 22.2151 45.7764C0.444787 104.089 -45.6852 281.785 174.876 335.154Z" fill="#F8455B"/>
<path opacity="0.24" d="M155.215 322.344C155.694 322.813 154.985 323.481 154.448 323.084C134.634 308.271 58.9844 236.428 38.3842 98.676C38.3266 98.225 39.0363 98.0987 39.1514 98.5317C47.1307 130.593 80.5821 248.985 155.215 322.344Z" fill="white"/>
<path d="M21.3353 422.532C21.3353 427.043 25.2674 430.741 30.0818 430.741H502.66C507.475 430.741 511.407 427.043 511.407 422.532L515.339 167.074C515.339 162.563 509.681 153.74 499.304 154.408L37.4473 143.168C31.4245 143.023 25.5935 145.206 21.3162 149.212C17.0388 153.217 14.7179 158.684 14.8522 164.349L21.3353 422.532Z" fill="#7A252D"/>
<path d="M29.9668 414.648C29.9668 418.924 33.6879 422.424 38.2337 422.424H491.267C495.813 422.424 499.534 418.924 499.534 414.648L503.236 182.752C502.795 168.806 489.79 163.79 481.907 164.079L39.2695 152.911C35.0305 152.802 30.945 154.336 27.9336 157.15C24.9414 159.965 23.2918 163.826 23.3877 167.813L29.9668 414.648Z" fill="#E5E6EB"/>
<path d="M494.872 274.46C494.201 274.46 493.664 274.063 493.683 273.576L493.971 259.233C493.971 258.764 494.508 258.385 495.16 258.385H495.179C495.831 258.385 496.368 258.782 496.368 259.269L496.081 273.612C496.062 274.063 495.524 274.46 494.872 274.46Z" fill="#193D45"/>
<path d="M495.582 239.296C494.911 239.296 494.374 238.899 494.393 238.412L495.506 183.474C495.487 180.208 494.125 177.61 491.459 175.752C486.472 172.288 478.55 172.468 478.224 172.468L338.395 169.744C337.743 169.726 337.206 169.329 337.225 168.86C337.244 168.373 337.743 167.976 338.453 168.012L478.205 170.736C479.068 170.7 487.507 170.592 493.108 174.489C496.273 176.69 497.884 179.703 497.903 183.474L496.791 238.43C496.772 238.917 496.235 239.296 495.582 239.296Z" fill="#EE0033"/>
<path d="M1.29155 451.706H532.468C533.062 451.706 533.561 451.255 533.561 450.678V430.543C533.561 429.983 533.081 429.514 532.468 429.514H1.29155C0.696945 429.514 0.198242 429.965 0.198242 430.543V450.678C0.198242 451.237 0.677764 451.706 1.29155 451.706Z" fill="#7A252D"/>
<path d="M281.37 396.173H246.921V394.35H281.37C282.827 394.35 284.017 393.232 284.017 391.86V305.403H285.954V391.879C285.935 394.242 283.882 396.173 281.37 396.173Z" fill="#EE0033"/>
<path d="M292.246 306.323H246.94V304.501H292.246C292.879 304.501 293.435 304.212 293.78 303.707C294.125 303.202 294.164 302.606 293.895 302.065L293.876 302.011L277.63 261.416L279.433 260.766L295.66 301.343C296.178 302.426 296.082 303.689 295.411 304.699C294.701 305.709 293.531 306.323 292.246 306.323Z" fill="#EE0033"/>
<path d="M227.798 263.888L227.74 262.065L277.725 260.802L277.553 259.774C277.553 258.673 276.038 257.735 274.235 257.735L220.394 258.637L220.355 256.815L274.215 255.913C277.15 255.913 279.433 257.555 279.49 259.684L280.008 262.552L227.798 263.888Z" fill="#EE0033"/>
<g opacity="0.89">
<path opacity="0.89" d="M273.315 369.47H246.922V367.648H272.548V324.545H246.922V322.723H273.315C273.967 322.723 274.485 323.21 274.485 323.824V368.37C274.485 368.965 273.967 369.47 273.315 369.47Z" fill="#EE0033"/>
<g opacity="0.9">
<path opacity="0.9" d="M256.704 366.728H246.922C246.557 366.728 246.27 366.457 246.27 366.114C246.27 365.771 246.557 365.501 246.922 365.501H256.167V326.638H246.922C246.557 326.638 246.27 326.367 246.27 326.025C246.27 325.682 246.557 325.411 246.922 325.411H256.704C257.126 325.411 257.471 325.736 257.471 326.133V365.988C257.471 366.403 257.126 366.728 256.704 366.728Z" fill="#EE0033"/>
<path opacity="0.9" d="M270.86 366.728H259.639C259.064 366.728 258.584 366.295 258.584 365.735V326.422C258.584 325.88 259.044 325.429 259.639 325.429H270.86C271.435 325.429 271.915 325.862 271.915 326.422V365.735C271.896 366.295 271.435 366.728 270.86 366.728ZM259.869 365.519H270.61V326.656H259.869V365.519Z" fill="#EE0033"/>
</g>
</g>
<path d="M96.7734 396.173H62.5547C60.6367 396.173 59.083 394.711 59.083 392.907V305.421H61.0011V392.907C61.0011 393.701 61.6916 394.368 62.5356 394.368H96.7734V396.173Z" fill="#EE0033"/>
<path d="M96.2749 306.323H52.7726C51.4875 306.323 50.2983 305.709 49.6078 304.699C48.9173 303.689 48.8214 302.444 49.3584 301.343L65.5854 260.766L67.3885 261.416L51.1231 302.083C50.8545 302.624 50.8929 303.22 51.2382 303.725C51.5834 304.23 52.1397 304.519 52.7726 304.519H96.2749V306.323Z" fill="#EE0033"/>
<path d="M116.913 262.931L65.5273 262.607V259.792C65.5273 257.627 67.9825 255.931 71.109 255.931H124.125V257.753H71.109C69.1717 257.753 67.4646 258.71 67.4646 259.792V260.802L116.932 261.127L116.913 262.931Z" fill="#EE0033"/>
<g opacity="0.89">
<path opacity="0.89" d="M96.2749 369.47H71.7042C71.0521 369.47 70.5342 368.983 70.5342 368.369V323.823C70.5342 323.21 71.0521 322.723 71.7042 322.723H96.2749V324.545H72.4714V367.648H96.2941V369.47H96.2749Z" fill="#EE0033"/>
<g opacity="0.89">
<path opacity="0.89" d="M96.2738 366.728H88.2946C87.8726 366.728 87.5273 366.403 87.5273 366.006V326.151C87.5273 325.754 87.8726 325.429 88.2946 325.429H96.2738C96.6383 325.429 96.926 325.7 96.926 326.043C96.926 326.386 96.6383 326.656 96.2738 326.656H88.8316V365.519H96.2738C96.6383 365.519 96.926 365.79 96.926 366.132C96.926 366.457 96.6383 366.728 96.2738 366.728Z" fill="#EE0033"/>
<path opacity="0.89" d="M85.3793 366.728H74.1585C73.583 366.728 73.1035 366.295 73.1035 365.736V326.422C73.1035 325.88 73.5639 325.429 74.1585 325.429H85.3793C85.9547 325.429 86.4342 325.862 86.4342 326.422V365.736C86.4342 366.295 85.9547 366.728 85.3793 366.728ZM74.4078 365.519H85.1491V326.656H74.4078V365.519Z" fill="#EE0033"/>
</g>
</g>
<path d="M243.316 400.521H191.585V398.698H243.316C244.774 398.698 245.963 397.58 245.963 396.209V290.337H247.9V396.209C247.9 398.59 245.848 400.521 243.316 400.521Z" fill="#EE0033"/>
<path d="M144.917 400.521H101.357C98.0199 400.521 95.3154 397.977 95.3154 394.837V289.742H97.2527V394.837C97.2527 396.966 99.0941 398.698 101.357 398.698H144.917V400.521Z" fill="#EE0033"/>
<path d="M192.563 394.134H190.625V388.721H145.857V394.134H143.92V388.36C143.92 387.566 144.61 386.899 145.474 386.899H191.028C191.872 386.899 192.582 387.548 192.582 388.36V394.134H192.563Z" fill="#EE0033"/>
<path d="M192.563 401.946H143.92V395.505C143.92 393.935 145.263 392.672 146.931 392.672H189.551C191.22 392.672 192.563 393.935 192.563 395.505V401.946ZM145.857 400.124H190.625V395.505C190.625 394.946 190.146 394.495 189.551 394.495H146.931C146.337 394.495 145.857 394.946 145.857 395.505V400.124Z" fill="#EE0033"/>
<path d="M185.14 388.721H151.324V331.473C151.324 329.777 152.782 328.406 154.585 328.406H181.879C183.682 328.406 185.14 329.777 185.14 331.473V388.721ZM153.261 386.899H183.203V331.473C183.203 330.788 182.608 330.228 181.879 330.228H154.585C153.856 330.228 153.261 330.788 153.261 331.473V386.899Z" fill="#EE0033"/>
<path d="M181.918 325.989H154.547C152.955 325.989 151.65 324.762 151.65 323.264V321.406C151.65 319.981 152.84 318.79 154.355 318.682L181.726 316.895C182.532 316.841 183.318 317.112 183.893 317.617C184.469 318.122 184.814 318.862 184.814 319.602V323.246C184.814 324.762 183.529 325.989 181.918 325.989ZM181.937 318.104C181.899 318.104 181.86 318.104 181.822 318.104L154.451 319.89C153.607 319.944 152.955 320.612 152.955 321.406V323.264C152.955 324.094 153.684 324.78 154.566 324.78H181.937C182.819 324.78 183.548 324.094 183.548 323.264V319.62C183.548 319.205 183.376 318.808 183.03 318.519C182.723 318.249 182.34 318.104 181.937 318.104Z" fill="#EE0033"/>
<path d="M124.433 300.368H113.577C113.213 300.368 112.925 300.098 112.925 299.755V290.95C112.925 285.935 117.873 282.002 124.203 282.002H124.414C124.779 282.002 125.066 282.272 125.066 282.615V299.773C125.085 300.098 124.798 300.368 124.433 300.368ZM114.229 299.16H123.781V283.228C118.391 283.391 114.229 286.729 114.229 290.969V299.16Z" fill="#EE0033"/>
<path d="M124.434 331.094H115.783C114.364 331.094 112.944 329.453 112.944 328.262V302.371C112.944 302.029 113.232 301.758 113.596 301.758H124.453C124.817 301.758 125.105 302.029 125.105 302.371V330.481C125.086 330.824 124.798 331.094 124.434 331.094ZM114.229 302.967V328.262C114.229 328.821 115.15 329.886 115.783 329.886H123.782V302.985H114.229V302.967Z" fill="#EE0033"/>
<path d="M137.686 300.369H126.83C126.465 300.369 126.178 300.098 126.178 299.755V282.597C126.178 282.254 126.465 281.984 126.83 281.984H127.386C133.62 281.984 138.319 285.827 138.319 290.933V299.737C138.338 300.098 138.051 300.369 137.686 300.369ZM127.482 299.16H137.034V290.969C137.034 286.584 132.929 283.265 127.482 283.229V299.16Z" fill="#EE0033"/>
<path d="M135.826 331.094H126.849C126.485 331.094 126.197 330.824 126.197 330.481V302.371C126.197 302.029 126.485 301.758 126.849 301.758H137.706C138.07 301.758 138.358 302.029 138.358 302.371V328.262C138.339 329.398 137.284 331.094 135.826 331.094ZM127.482 329.886H135.826C136.382 329.886 137.054 328.893 137.054 328.262V302.967H127.502V329.886H127.482Z" fill="#EE0033"/>
<path d="M138.646 333.007H112.522C110.488 333.007 108.839 331.546 108.839 329.759V290.77C108.839 284.113 115.092 278.682 122.764 278.682H128.384C136.076 278.682 142.31 284.113 142.31 290.77V329.759C142.329 331.546 140.679 333.007 138.646 333.007ZM122.783 280.721C116.3 280.721 111.045 285.231 111.045 290.77V329.759C111.045 330.427 111.716 330.968 112.541 330.968H138.646C139.471 330.968 140.142 330.427 140.142 329.759V290.77C140.142 285.231 134.867 280.721 128.403 280.721H122.783Z" fill="#EE0033"/>
<path d="M153.414 388.721H152.647C151.822 388.721 151.132 388.09 151.132 387.296V329.741C151.132 329.002 151.765 328.406 152.57 328.406H153.414V330.228H153.069V386.917H153.414V388.721Z" fill="#EE0033"/>
<path d="M218.015 239.639H216.078V255.624H218.015V239.639Z" fill="#EE0033"/>
<path d="M205.567 239.639H203.63V246.387H205.567V239.639Z" fill="#EE0033"/>
<path d="M222.119 240.541H200.042V237.474C200.042 234.93 202.229 232.873 204.933 232.873H216.461C219.568 232.873 222.1 235.255 222.1 238.178V240.541H222.119ZM201.979 238.719H220.182V238.178C220.182 236.247 218.513 234.677 216.461 234.677H204.933C203.303 234.677 201.979 235.922 201.979 237.456V238.719Z" fill="#EE0033"/>
<path d="M91.2481 294.505L87.6613 286.314C86.7982 284.329 87.4503 282.038 89.2725 280.739L171.597 221.579L257.124 282.85L255.935 288.299C255.532 290.121 254.19 291.6 252.348 292.232C250.488 292.881 248.455 292.575 246.901 291.438L171.616 236.5L91.2481 294.505ZM171.597 223.888L90.4425 282.2C89.3301 282.994 88.9273 284.42 89.4643 285.628L92.0729 291.618L171.597 234.244L248.071 290.049C249.107 290.806 250.449 290.987 251.658 290.572C252.885 290.139 253.768 289.183 254.017 287.974L254.957 283.644L171.597 223.888Z" fill="#EE0033"/>
<path d="M142.864 380.638H110.046V341.703H142.864V380.638ZM111.964 378.816H140.927V343.526H111.964V378.816Z" fill="#EE0033"/>
<path d="M125.582 377.806H113.517C113.153 377.806 112.865 377.535 112.865 377.192V345.149C112.865 344.807 113.153 344.536 113.517 344.536H125.582C125.947 344.536 126.234 344.807 126.234 345.149V377.21C126.234 377.535 125.947 377.806 125.582 377.806ZM114.17 376.597H124.93V345.763H114.17V376.597Z" fill="#EE0033"/>
<path d="M139.335 377.914H127.27C126.906 377.914 126.618 377.643 126.618 377.301V345.24C126.618 344.897 126.906 344.626 127.27 344.626H139.335C139.7 344.626 139.987 344.897 139.987 345.24V377.301C139.987 377.643 139.7 377.914 139.335 377.914ZM127.922 376.705H138.683V345.871H127.922V376.705Z" fill="#EE0033"/>
<path d="M210.726 300.026H199.87C199.505 300.026 199.218 299.756 199.218 299.413V290.608C199.218 285.593 204.166 281.659 210.496 281.659H210.707C211.072 281.659 211.359 281.93 211.359 282.273V299.431C211.378 299.756 211.091 300.026 210.726 300.026ZM200.522 298.817H210.074V282.886C204.684 283.049 200.522 286.386 200.522 290.626V298.817Z" fill="#EE0033"/>
<path d="M210.727 330.752H202.076C200.657 330.752 199.237 329.11 199.237 327.919V302.029C199.237 301.686 199.525 301.415 199.889 301.415H210.746C211.11 301.415 211.398 301.686 211.398 302.029V330.138C211.379 330.463 211.091 330.752 210.727 330.752ZM200.522 302.624V327.919C200.522 328.478 201.443 329.543 202.076 329.543H210.075V302.642H200.522V302.624Z" fill="#EE0033"/>
<path d="M223.98 300.026H213.124C212.759 300.026 212.472 299.755 212.472 299.413V282.255C212.472 281.912 212.759 281.641 213.124 281.641H213.68C219.914 281.641 224.613 285.484 224.613 290.59V299.395C224.632 299.755 224.345 300.026 223.98 300.026ZM213.776 298.817H223.328V290.626C223.328 286.242 219.223 282.922 213.776 282.886V298.817Z" fill="#EE0033"/>
<path d="M222.119 330.752H213.142C212.778 330.752 212.49 330.481 212.49 330.138V302.029C212.49 301.686 212.778 301.415 213.142 301.415H223.999C224.363 301.415 224.651 301.686 224.651 302.029V327.919C224.632 329.056 223.577 330.752 222.119 330.752ZM213.775 329.525H222.119C222.675 329.525 223.347 328.532 223.347 327.901V302.606H213.795V329.525H213.775Z" fill="#EE0033"/>
<path d="M224.938 332.664H198.833C196.8 332.664 195.15 331.203 195.15 329.417V290.428C195.15 283.77 201.403 278.339 209.076 278.339H214.696C222.387 278.339 228.621 283.77 228.621 290.428V329.417C228.621 331.203 226.971 332.664 224.938 332.664ZM209.076 280.378C202.593 280.378 197.337 284.889 197.337 290.428V329.417C197.337 330.084 198.008 330.625 198.833 330.625H224.938C225.763 330.625 226.434 330.084 226.434 329.417V290.428C226.434 284.889 221.16 280.378 214.696 280.378H209.076Z" fill="#EE0033"/>
<path d="M229.159 380.296H196.341V341.361H229.159V380.296ZM198.278 378.473H227.241V343.183H198.278V378.473Z" fill="#EE0033"/>
<path d="M211.878 377.463H199.813C199.449 377.463 199.161 377.192 199.161 376.849V344.789C199.161 344.446 199.449 344.175 199.813 344.175H211.878C212.242 344.175 212.53 344.446 212.53 344.789V376.849C212.53 377.192 212.242 377.463 211.878 377.463ZM200.465 376.254H211.226V345.42H200.465V376.254Z" fill="#EE0033"/>
<path d="M225.631 377.571H213.566C213.202 377.571 212.914 377.301 212.914 376.958V344.897C212.914 344.554 213.202 344.283 213.566 344.283H225.631C225.995 344.283 226.283 344.554 226.283 344.897V376.958C226.283 377.301 225.995 377.571 225.631 377.571ZM214.218 376.362H224.979V345.51H214.218V376.362Z" fill="#EE0033"/>
<path d="M478.282 291.276H319.464V182.77H478.282V291.276ZM321.382 289.453H476.344V184.593H321.382V289.453Z" fill="#EE0033"/>
<path d="M474.56 288.551H322.13V185.495H474.56V288.551ZM323.434 287.342H473.275V186.722H323.434V287.342Z" fill="#EE0033"/>
<path d="M402.42 222.842H399.831V186.108H403.322V221.994C403.322 222.463 402.919 222.842 402.42 222.842Z" fill="#EE0033"/>
<path d="M445.999 186.108H442.911V218.241H445.999V186.108Z" fill="#EE0033"/>
<path d="M402.134 245.755H322.782V242.417H401.98C402.287 242.417 402.517 242.652 402.517 242.923V245.394C402.517 245.593 402.344 245.755 402.134 245.755Z" fill="#EE0033"/>
<path d="M432.363 226.504H415.177C414.812 226.504 414.524 226.234 414.524 225.891V188.399C414.524 188.057 414.812 187.786 415.177 187.786H432.363C432.727 187.786 433.015 188.057 433.015 188.399V225.891C433.015 226.234 432.727 226.504 432.363 226.504ZM415.829 225.278H431.73V188.995H415.829V225.278Z" fill="#EE0033"/>
<path d="M432.363 196.771H415.177C414.812 196.771 414.524 196.5 414.524 196.157V192.026C414.524 191.683 414.812 191.412 415.177 191.412H432.363C432.727 191.412 433.015 191.683 433.015 192.026V196.157C433.015 196.5 432.727 196.771 432.363 196.771ZM415.829 195.544H431.73V192.621H415.829V195.544Z" fill="#EE0033"/>
<path d="M432.363 205.557H415.177C414.812 205.557 414.524 205.287 414.524 204.944V200.812C414.524 200.47 414.812 200.199 415.177 200.199H432.363C432.727 200.199 433.015 200.47 433.015 200.812V204.944C433.015 205.287 432.727 205.557 432.363 205.557ZM415.829 204.349H431.73V201.426H415.829V204.349Z" fill="#EE0033"/>
<path d="M432.363 213.622H415.177C414.812 213.622 414.524 213.352 414.524 213.009V208.877C414.524 208.534 414.812 208.264 415.177 208.264H432.363C432.727 208.264 433.015 208.534 433.015 208.877V213.009C433.015 213.334 432.727 213.622 432.363 213.622ZM415.829 212.395H431.73V209.473H415.829V212.395Z" fill="#EE0033"/>
<path d="M432.363 222.156H415.177C414.812 222.156 414.524 221.885 414.524 221.543V217.411C414.524 217.068 414.812 216.798 415.177 216.798H432.363C432.727 216.798 433.015 217.068 433.015 217.411V221.543C433.015 221.885 432.727 222.156 432.363 222.156ZM415.829 220.947H431.73V218.024H415.829V220.947Z" fill="#EE0033"/>
<path d="M372.768 277.708H343.115C339.816 277.708 337.149 275.182 337.149 272.097V263.725C337.149 260.622 339.835 258.114 343.115 258.114H372.768C376.067 258.114 378.734 260.64 378.734 263.725V272.097C378.753 275.182 376.067 277.708 372.768 277.708ZM343.115 259.305C340.525 259.305 338.435 261.271 338.435 263.707V272.079C338.435 274.514 340.525 276.481 343.115 276.481H372.768C375.358 276.481 377.448 274.496 377.448 272.079V263.707C377.448 261.271 375.358 259.305 372.768 259.305H343.115Z" fill="#EE0033"/>
<path d="M383.029 269.21H382.243C380.996 269.21 379.979 268.254 379.979 267.081V266.63C379.979 265.458 380.996 264.501 382.243 264.501H383.029C384.276 264.501 385.293 265.458 385.293 266.63V267.081C385.293 268.254 384.276 269.21 383.029 269.21ZM382.243 265.71C381.706 265.71 381.265 266.125 381.265 266.63V267.081C381.265 267.587 381.706 268.002 382.243 268.002H383.029C383.566 268.002 384.007 267.587 384.007 267.081V266.63C384.007 266.125 383.566 265.71 383.029 265.71H382.243Z" fill="#EE0033"/>
<path d="M384.966 269.264H384.084C384.007 269.264 383.931 269.192 383.931 269.12V264.537C383.931 264.465 384.007 264.393 384.084 264.393H384.966C385.043 264.393 385.12 264.465 385.12 264.537V269.12C385.12 269.192 385.062 269.264 384.966 269.264Z" fill="#EE0033"/>
<path d="M369.967 256.707H369.488C368.241 256.707 367.225 255.751 367.225 254.578V253.838C367.225 252.665 368.241 251.709 369.488 251.709H369.967C371.214 251.709 372.231 252.665 372.231 253.838V254.578C372.212 255.751 371.214 256.707 369.967 256.707ZM369.469 252.936C368.932 252.936 368.491 253.351 368.491 253.856V254.596C368.491 255.101 368.932 255.516 369.469 255.516H369.948C370.485 255.516 370.927 255.101 370.927 254.596V253.856C370.927 253.351 370.485 252.936 369.948 252.936H369.469Z" fill="#EE0033"/>
<path d="M372.269 252.016V252.846C372.269 252.918 372.192 252.99 372.115 252.99H367.243C367.167 252.99 367.09 252.918 367.09 252.846V252.016C367.09 251.944 367.167 251.871 367.243 251.871H372.115C372.211 251.871 372.269 251.944 372.269 252.016Z" fill="#EE0033"/>
<path d="M346.47 256.707H345.991C344.744 256.707 343.728 255.751 343.728 254.578V253.838C343.728 252.665 344.744 251.709 345.991 251.709H346.47C347.717 251.709 348.734 252.665 348.734 253.838V254.578C348.734 255.751 347.717 256.707 346.47 256.707ZM345.991 252.936C345.454 252.936 345.013 253.351 345.013 253.856V254.596C345.013 255.101 345.454 255.516 345.991 255.516H346.47C347.007 255.516 347.449 255.101 347.449 254.596V253.856C347.449 253.351 347.007 252.936 346.47 252.936H345.991Z" fill="#EE0033"/>
<path d="M348.792 252.016V252.846C348.792 252.918 348.715 252.99 348.639 252.99H343.767C343.69 252.99 343.613 252.918 343.613 252.846V252.016C343.613 251.944 343.69 251.871 343.767 251.871H348.639C348.735 251.871 348.792 251.944 348.792 252.016Z" fill="#EE0033"/>
<path d="M358.207 256.49H357.727C356.48 256.49 355.464 255.534 355.464 254.361V253.621C355.464 252.449 356.48 251.492 357.727 251.492H358.207C359.453 251.492 360.47 252.449 360.47 253.621V254.361C360.47 255.534 359.453 256.49 358.207 256.49ZM357.727 252.719C357.19 252.719 356.749 253.134 356.749 253.639V254.379C356.749 254.884 357.19 255.299 357.727 255.299H358.207C358.744 255.299 359.185 254.884 359.185 254.379V253.639C359.185 253.134 358.744 252.719 358.207 252.719H357.727Z" fill="#EE0033"/>
<path d="M360.528 251.799V252.629C360.528 252.701 360.452 252.773 360.375 252.773H355.503C355.426 252.773 355.35 252.701 355.35 252.629V251.799C355.35 251.727 355.426 251.655 355.503 251.655H360.375C360.471 251.655 360.528 251.727 360.528 251.799Z" fill="#EE0033"/>
<path d="M347.277 284.293H346.798C345.551 284.293 344.534 283.337 344.534 282.164V281.424C344.534 280.252 345.551 279.295 346.798 279.295H347.277C348.524 279.295 349.54 280.252 349.54 281.424V282.164C349.54 283.337 348.524 284.293 347.277 284.293ZM346.798 280.522C346.26 280.522 345.819 280.937 345.819 281.442V282.182C345.819 282.687 346.26 283.102 346.798 283.102H347.277C347.814 283.102 348.255 282.687 348.255 282.182V281.442C348.255 280.937 347.814 280.522 347.277 280.522H346.798Z" fill="#EE0033"/>
<path d="M344.477 284.004V283.174C344.477 283.102 344.553 283.03 344.63 283.03H349.502C349.579 283.03 349.655 283.102 349.655 283.174V284.004C349.655 284.077 349.579 284.149 349.502 284.149H344.63C344.553 284.149 344.477 284.077 344.477 284.004Z" fill="#EE0033"/>
<path d="M370.751 284.293H370.271C369.024 284.293 368.008 283.337 368.008 282.164V281.425C368.008 280.252 369.024 279.296 370.271 279.296H370.751C371.997 279.296 373.014 280.252 373.014 281.425V282.164C373.014 283.337 371.997 284.293 370.751 284.293ZM370.271 280.522C369.734 280.522 369.293 280.937 369.293 281.443V282.182C369.293 282.687 369.734 283.102 370.271 283.102H370.751C371.288 283.102 371.729 282.687 371.729 282.182V281.443C371.729 280.937 371.288 280.522 370.751 280.522H370.271Z" fill="#EE0033"/>
<path d="M367.952 284.005V283.175C367.952 283.102 368.029 283.03 368.106 283.03H372.978C373.054 283.03 373.131 283.102 373.131 283.175V284.005C373.131 284.077 373.054 284.149 372.978 284.149H368.106C368.029 284.149 367.952 284.077 367.952 284.005Z" fill="#EE0033"/>
<path d="M359.014 284.51H358.535C357.288 284.51 356.271 283.554 356.271 282.381V281.641C356.271 280.468 357.288 279.512 358.535 279.512H359.014C360.261 279.512 361.278 280.468 361.278 281.641V282.381C361.278 283.554 360.261 284.51 359.014 284.51ZM358.535 280.739C357.998 280.739 357.557 281.154 357.557 281.659V282.399C357.557 282.904 357.998 283.319 358.535 283.319H359.014C359.551 283.319 359.993 282.904 359.993 282.399V281.659C359.993 281.154 359.551 280.739 359.014 280.739H358.535Z" fill="#EE0033"/>
<path d="M356.214 284.221V283.391C356.214 283.319 356.291 283.247 356.367 283.247H361.239C361.316 283.247 361.393 283.319 361.393 283.391V284.221C361.393 284.293 361.316 284.365 361.239 284.365H356.367C356.291 284.365 356.214 284.293 356.214 284.221Z" fill="#EE0033"/>
<path d="M334.329 269.228H333.543C332.296 269.228 331.279 268.272 331.279 267.099V266.648C331.279 265.475 332.296 264.519 333.543 264.519H334.329C335.576 264.519 336.592 265.475 336.592 266.648V267.099C336.592 268.272 335.576 269.228 334.329 269.228ZM333.543 265.728C333.006 265.728 332.564 266.143 332.564 266.648V267.099C332.564 267.604 333.006 268.019 333.543 268.019H334.329C334.866 268.019 335.307 267.604 335.307 267.099V266.648C335.307 266.143 334.866 265.728 334.329 265.728H333.543Z" fill="#EE0033"/>
<path d="M331.586 269.282H332.468C332.545 269.282 332.622 269.21 332.622 269.138V264.555C332.622 264.483 332.545 264.411 332.468 264.411H331.586C331.509 264.411 331.433 264.483 331.433 264.555V269.138C331.433 269.228 331.509 269.282 331.586 269.282Z" fill="#EE0033"/>
<path d="M459.927 197.709C453.962 197.709 447.632 196.085 447.632 193.072C447.632 190.059 453.962 188.435 459.927 188.435C465.892 188.435 472.222 190.059 472.222 193.072C472.222 196.085 465.892 197.709 459.927 197.709ZM459.927 189.662C453.444 189.662 448.917 191.466 448.917 193.09C448.917 194.714 453.444 196.518 459.927 196.518C466.41 196.518 470.937 194.714 470.937 193.09C470.937 191.466 466.41 189.662 459.927 189.662Z" fill="#EE0033"/>
<path d="M451.083 214.723H445.962C445.789 214.723 445.636 214.578 445.636 214.416V202.526C445.636 202.364 445.789 202.22 445.962 202.22H451.083C451.16 202.22 451.237 202.238 451.294 202.292C453.404 203.879 454.612 206.532 454.459 209.184C454.325 211.529 453.155 213.532 451.256 214.669C451.198 214.705 451.141 214.723 451.083 214.723ZM446.288 214.109H450.987C452.656 213.063 453.692 211.259 453.807 209.148C453.941 206.712 452.867 204.312 450.968 202.833H446.288V214.109V214.109Z" fill="#EE0033"/>
<path d="M449.854 213.748H446.114C445.942 213.748 445.788 213.604 445.788 213.442V203.464C445.788 203.302 445.942 203.158 446.114 203.158H449.835C450.315 203.158 450.756 203.32 451.101 203.627C452.559 204.962 453.384 206.965 453.288 208.949C453.211 210.717 452.425 212.305 451.12 213.315C450.775 213.604 450.315 213.748 449.854 213.748ZM446.44 213.153H449.854C450.18 213.153 450.487 213.045 450.718 212.864C451.888 211.944 452.578 210.555 452.655 208.949C452.732 207.127 451.983 205.305 450.66 204.078C450.449 203.879 450.161 203.771 449.854 203.771H446.459V213.153H446.44Z" fill="#EE0033"/>
<path d="M472.411 212.215H472.066C471.088 212.215 470.282 211.457 470.282 210.537V205.666C470.282 204.746 471.088 203.988 472.066 203.988H472.411C473.39 203.988 474.195 204.746 474.195 205.666V210.537C474.195 211.457 473.39 212.215 472.411 212.215ZM472.066 205.197C471.798 205.197 471.567 205.413 471.567 205.666V210.537C471.567 210.79 471.798 211.006 472.066 211.006H472.411C472.68 211.006 472.91 210.79 472.91 210.537V205.666C472.91 205.413 472.68 205.197 472.411 205.197H472.066Z" fill="#EE0033"/>
<path d="M467.923 210.609C466.216 210.609 465.449 209.798 465.161 209.31C464.701 208.553 464.701 207.614 465.18 206.839C465.717 205.973 466.715 205.467 467.942 205.467H470.935C471.107 205.467 471.261 205.612 471.261 205.774V210.303C471.261 210.465 471.107 210.609 470.935 210.609H467.923ZM467.942 206.081C466.964 206.081 466.159 206.46 465.737 207.145C465.372 207.741 465.372 208.444 465.717 209.004C466.12 209.635 466.888 209.996 467.923 209.996C467.923 209.996 467.923 209.996 467.942 209.996H470.609V206.081H467.942Z" fill="#EE0033"/>
<path d="M472.124 208.769C471.644 208.769 471.261 208.408 471.261 207.957C471.261 207.506 471.644 207.145 472.124 207.145C472.603 207.145 472.987 207.506 472.987 207.957C472.968 208.408 472.584 208.769 472.124 208.769ZM472.124 207.759C472.009 207.759 471.913 207.849 471.913 207.957C471.913 208.065 472.009 208.156 472.124 208.156C472.239 208.156 472.335 208.065 472.335 207.957C472.335 207.849 472.239 207.759 472.124 207.759Z" fill="#EE0033"/>
<path d="M456.568 220.767H443.16C443.026 220.767 442.911 220.659 442.911 220.532V217.952H456.568C456.779 217.952 456.952 218.115 456.952 218.313V220.406C456.952 220.605 456.779 220.767 456.568 220.767Z" fill="#EE0033"/>
<path d="M473.927 220.767H462.629C462.399 220.767 462.227 220.605 462.227 220.388V218.295C462.227 218.097 462.399 217.934 462.61 217.934H473.927V220.767Z" fill="#EE0033"/>
<path d="M463.244 219.865L462.534 220.316L458.985 215.3L459.503 214.975C459.599 214.903 459.733 214.939 459.81 215.03L463.244 219.865Z" fill="#EE0033"/>
<path d="M356.367 219.775H332.314C327.845 219.775 324.22 216.347 324.22 212.161V203.14C324.22 198.936 327.845 195.526 332.314 195.526H356.367C360.836 195.526 364.461 198.954 364.461 203.14V212.161C364.48 216.347 360.836 219.775 356.367 219.775ZM332.314 196.717C328.555 196.717 325.505 199.585 325.505 203.122V212.143C325.505 215.679 328.555 218.548 332.314 218.548H356.367C360.126 218.548 363.176 215.679 363.176 212.143V203.122C363.176 199.585 360.126 196.717 356.367 196.717H332.314Z" fill="#EE0033"/>
<path d="M356.75 219.775H344.187C339.929 219.775 336.457 216.509 336.457 212.504V202.779C336.457 198.774 339.929 195.508 344.187 195.508H356.75C361.009 195.508 364.48 198.774 364.48 202.779V212.504C364.48 216.509 361.009 219.775 356.75 219.775ZM344.187 196.717C340.638 196.717 337.742 199.441 337.742 202.779V212.504C337.742 215.842 340.638 218.566 344.187 218.566H356.75C360.299 218.566 363.195 215.842 363.195 212.504V202.779C363.195 199.441 360.299 196.717 356.75 196.717H344.187Z" fill="#EE0033"/>
<path d="M329.916 207.759H328.995C326.943 207.759 325.255 206.189 325.255 204.241V200.019C325.255 198.088 326.924 196.5 328.995 196.5H329.916C331.968 196.5 333.656 198.07 333.656 200.019V204.241C333.656 206.171 331.968 207.759 329.916 207.759ZM328.995 197.709C327.652 197.709 326.54 198.738 326.54 200.019V204.241C326.54 205.504 327.633 206.55 328.995 206.55H329.916C331.259 206.55 332.371 205.522 332.371 204.241V200.019C332.371 198.756 331.278 197.709 329.916 197.709H328.995Z" fill="#EE0033"/>
<path d="M329.916 218.818H328.995C326.943 218.818 325.255 217.249 325.255 215.3V211.078C325.255 209.148 326.924 207.56 328.995 207.56H329.916C331.968 207.56 333.656 209.13 333.656 211.078V215.3C333.656 217.231 331.968 218.818 329.916 218.818ZM328.995 208.769C327.652 208.769 326.54 209.797 326.54 211.078V215.3C326.54 216.563 327.633 217.61 328.995 217.61H329.916C331.259 217.61 332.371 216.581 332.371 215.3V211.078C332.371 209.815 331.278 208.769 329.916 208.769H328.995Z" fill="#EE0033"/>
<path d="M323.05 221.579H322.781C322.417 221.579 322.129 221.308 322.129 220.965V195.201C322.129 194.859 322.417 194.588 322.781 194.588H323.05C324.392 194.588 325.505 195.616 325.505 196.897V219.27C325.505 220.551 324.392 221.579 323.05 221.579ZM323.433 195.869V220.298C323.894 220.154 324.22 219.739 324.22 219.27V196.897C324.22 196.428 323.874 196.013 323.433 195.869Z" fill="#EE0033"/>
<path d="M391.238 187.118H364.98C364.673 187.118 364.404 186.884 364.404 186.577V183.51C364.404 183.221 364.654 182.969 364.98 182.969H391.238C391.545 182.969 391.814 183.203 391.814 183.51V186.577C391.795 186.866 391.545 187.118 391.238 187.118Z" fill="#EE0033"/>
<path d="M409.46 291.077H383.201C382.895 291.077 382.626 290.843 382.626 290.536V287.469C382.626 287.18 382.875 286.927 383.201 286.927H409.46C409.767 286.927 410.035 287.162 410.035 287.469V290.536C410.035 290.843 409.786 291.077 409.46 291.077Z" fill="#EE0033"/>
<path d="M389.148 227.316L388.783 226.432L402.018 221.543L402.517 222.734L389.608 227.497C389.435 227.587 389.224 227.497 389.148 227.316Z" fill="#EE0033"/>
<path d="M328.114 231.087H322.782C322.418 231.087 322.13 230.816 322.13 230.474V222.048C322.13 221.705 322.418 221.435 322.782 221.435H329.323C331.49 221.435 333.274 223.094 333.274 225.151V226.234C333.255 228.922 330.953 231.087 328.114 231.087ZM323.434 229.878H328.133C330.263 229.878 331.989 228.254 331.989 226.252V225.169C331.989 223.798 330.8 222.661 329.323 222.661H323.434V229.878V229.878Z" fill="#EE0033"/>
<path d="M328.114 195.129H322.782C322.418 195.129 322.13 194.858 322.13 194.516V186.09C322.13 185.747 322.418 185.476 322.782 185.476H329.323C331.49 185.476 333.274 187.136 333.274 189.193V190.276C333.255 192.964 330.953 195.129 328.114 195.129ZM323.434 193.92H328.133C330.263 193.92 331.989 192.296 331.989 190.294V189.211C331.989 187.84 330.8 186.703 329.323 186.703H323.434V193.92V193.92Z" fill="#EE0033"/>
<path d="M427.241 269.264H425.285C425.093 269.264 424.939 269.12 424.939 268.939V243.518C424.939 243.338 425.093 243.193 425.285 243.193H427.241C427.433 243.193 427.586 243.338 427.586 243.518V268.939C427.586 269.12 427.433 269.264 427.241 269.264Z" fill="#EE0033"/>
<path d="M426.569 261.272H425.955C424.459 261.272 423.251 260.135 423.251 258.728V253.604C423.251 252.196 424.459 251.06 425.955 251.06H426.569C428.065 251.06 429.274 252.196 429.274 253.604V258.728C429.274 260.135 428.065 261.272 426.569 261.272ZM425.955 252.269C425.169 252.269 424.536 252.864 424.536 253.604V258.728C424.536 259.467 425.169 260.063 425.955 260.063H426.569C427.356 260.063 427.989 259.467 427.989 258.728V253.604C427.989 252.864 427.356 252.269 426.569 252.269H425.955Z" fill="#EE0033"/>
<path d="M467.023 252.936H465.661C462.784 252.936 460.463 250.735 460.463 248.047V244.763C460.463 242.057 462.803 239.874 465.661 239.874H467.023C469.9 239.874 472.221 242.075 472.221 244.763V248.047C472.221 250.735 469.881 252.936 467.023 252.936ZM465.661 241.082C463.493 241.082 461.748 242.742 461.748 244.763V248.047C461.748 250.085 463.513 251.727 465.661 251.727H467.023C469.19 251.727 470.936 250.067 470.936 248.047V244.763C470.936 242.724 469.171 241.082 467.023 241.082H465.661Z" fill="#EE0033"/>
<path d="M467.023 264.97H465.661C462.784 264.97 460.463 262.769 460.463 260.081V256.797C460.463 254.091 462.803 251.908 465.661 251.908H467.023C469.9 251.908 472.221 254.109 472.221 256.797V260.081C472.221 262.769 469.881 264.97 467.023 264.97ZM465.661 253.117C463.493 253.117 461.748 254.776 461.748 256.797V260.081C461.748 262.12 463.513 263.761 465.661 263.761H467.023C469.19 263.761 470.936 262.102 470.936 260.081V256.797C470.936 254.758 469.171 253.117 467.023 253.117H465.661Z" fill="#EE0033"/>
<path d="M431.519 286.17H426.225C423.501 286.17 421.276 284.077 421.276 281.515V280.306C421.276 277.744 423.501 275.651 426.225 275.651H431.519C434.243 275.651 436.468 277.744 436.468 280.306V281.515C436.468 284.095 434.262 286.17 431.519 286.17ZM426.244 276.878C424.23 276.878 422.581 278.43 422.581 280.324V281.533C422.581 283.427 424.23 284.979 426.244 284.979H431.538C433.552 284.979 435.202 283.427 435.202 281.533V280.324C435.202 278.43 433.552 276.878 431.538 276.878H426.244Z" fill="#EE0033"/>
<path d="M445.559 286.17H440.265C437.541 286.17 435.316 284.077 435.316 281.515V280.306C435.316 277.744 437.541 275.651 440.265 275.651H445.559C448.283 275.651 450.508 277.744 450.508 280.306V281.515C450.508 284.095 448.283 286.17 445.559 286.17ZM440.265 276.878C438.251 276.878 436.602 278.43 436.602 280.324V281.533C436.602 283.427 438.251 284.979 440.265 284.979H445.559C447.573 284.979 449.223 283.427 449.223 281.533V280.324C449.223 278.43 447.573 276.878 445.559 276.878H440.265Z" fill="#EE0033"/>
<path d="M469.997 286.17H451.583C450.356 286.17 449.358 285.232 449.358 284.077V277.744C449.358 276.589 450.356 275.651 451.583 275.651C455.151 275.741 459.102 275.795 460.464 275.723V265.872C460.464 264.718 461.462 263.779 462.689 263.779H469.997C471.225 263.779 472.222 264.718 472.222 265.872V284.059C472.222 285.232 471.225 286.17 469.997 286.17ZM451.583 276.878C451.085 276.878 450.663 277.275 450.663 277.762V284.095C450.663 284.582 451.085 284.979 451.603 284.979H470.016C470.534 284.979 470.956 284.582 470.956 284.095V265.908C470.956 265.421 470.534 265.024 470.016 265.024H462.708C462.19 265.024 461.768 265.421 461.768 265.908V276.283C461.768 276.445 461.692 276.607 461.577 276.734C461.327 276.932 461.116 277.113 451.583 276.878Z" fill="#EE0033"/>
<path d="M470.054 252.936H469.593C468.404 252.936 467.426 252.016 467.426 250.897V241.912C467.426 240.794 468.404 239.874 469.593 239.874H470.054C471.243 239.874 472.221 240.794 472.221 241.912V250.897C472.221 252.016 471.243 252.936 470.054 252.936ZM469.593 241.082C469.114 241.082 468.711 241.461 468.711 241.912V250.897C468.711 251.348 469.114 251.727 469.593 251.727H470.054C470.533 251.727 470.936 251.348 470.936 250.897V241.912C470.936 241.461 470.533 241.082 470.054 241.082H469.593Z" fill="#EE0033"/>
<path d="M470.054 264.97H469.593C468.404 264.97 467.426 264.05 467.426 262.931V253.946C467.426 252.828 468.404 251.908 469.593 251.908H470.054C471.243 251.908 472.221 252.828 472.221 253.946V262.931C472.221 264.05 471.243 264.97 470.054 264.97ZM469.593 253.117C469.114 253.117 468.711 253.495 468.711 253.946V262.931C468.711 263.383 469.114 263.761 469.593 263.761H470.054C470.533 263.761 470.936 263.383 470.936 262.931V253.946C470.936 253.495 470.533 253.117 470.054 253.117H469.593Z" fill="#EE0033"/>
<path d="M470.054 284.203H469.593C468.404 284.203 467.426 283.283 467.426 282.164V265.854C467.426 264.736 468.404 263.816 469.593 263.816H470.054C471.243 263.816 472.221 264.736 472.221 265.854V282.164C472.221 283.283 471.243 284.203 470.054 284.203ZM469.593 265.024C469.114 265.024 468.711 265.403 468.711 265.854V282.164C468.711 282.615 469.114 282.994 469.593 282.994H470.054C470.533 282.994 470.936 282.615 470.936 282.164V265.854C470.936 265.403 470.533 265.024 470.054 265.024H469.593Z" fill="#EE0033"/>
<path d="M434.32 286.17H423.444C422.255 286.17 421.296 285.268 421.296 284.149V283.734C421.296 282.615 422.255 281.713 423.444 281.713H434.32C435.509 281.713 436.468 282.615 436.468 283.734V284.149C436.468 285.268 435.509 286.17 434.32 286.17ZM423.444 282.904C422.965 282.904 422.581 283.265 422.581 283.716V284.131C422.581 284.582 422.965 284.943 423.444 284.943H434.32C434.799 284.943 435.183 284.582 435.183 284.131V283.716C435.183 283.265 434.799 282.904 434.32 282.904H423.444Z" fill="#EE0033"/>
<path d="M448.34 286.17H437.465C436.275 286.17 435.316 285.268 435.316 284.149V283.734C435.316 282.615 436.275 281.713 437.465 281.713H448.34C449.529 281.713 450.488 282.615 450.488 283.734V284.149C450.508 285.268 449.529 286.17 448.34 286.17ZM437.465 282.904C436.985 282.904 436.602 283.265 436.602 283.716V284.131C436.602 284.582 436.985 284.943 437.465 284.943H448.34C448.82 284.943 449.203 284.582 449.203 284.131V283.716C449.203 283.265 448.82 282.904 448.34 282.904H437.465Z" fill="#EE0033"/>
<path d="M468.25 286.17H451.601C450.373 286.17 449.376 285.231 449.376 284.077V283.788C449.376 282.633 450.373 281.695 451.601 281.695H468.077C468.442 281.695 468.729 281.966 468.729 282.309C468.729 282.651 468.442 282.922 468.077 282.922H451.601C451.083 282.922 450.661 283.319 450.661 283.806V284.095C450.661 284.582 451.083 284.979 451.601 284.979H468.25C468.768 284.979 469.19 284.582 469.19 284.095V283.806C469.19 283.463 469.478 283.193 469.842 283.193C470.206 283.193 470.494 283.463 470.494 283.806V284.095C470.475 285.231 469.478 286.17 468.25 286.17Z" fill="#EE0033"/>
<path d="M323.05 276.265H320.134C319.846 276.265 319.616 276.048 319.616 275.777V254.109C319.616 253.838 319.846 253.622 320.134 253.622H323.05C323.337 253.622 323.567 253.838 323.567 254.109V275.777C323.548 276.048 323.318 276.265 323.05 276.265Z" fill="#EE0033"/>
<path d="M353.145 233.721H323.031V232.007H353.184C353.299 232.007 353.395 232.097 353.395 232.206V233.487C353.395 233.613 353.299 233.721 353.145 233.721Z" fill="#EE0033"/>
<path d="M403.323 233.487H376.623C376.47 233.487 376.354 233.378 376.354 233.234V231.953C376.354 231.845 376.45 231.755 376.565 231.755H403.016C403.189 231.755 403.323 231.881 403.323 232.043V233.487Z" fill="#EE0033"/>
<path d="M403.015 245.755H400.138C399.965 245.755 399.831 245.629 399.831 245.467V232.043C399.831 231.881 399.965 231.755 400.138 231.755H402.727C403.053 231.755 403.322 232.007 403.322 232.314V245.448C403.322 245.629 403.188 245.755 403.015 245.755Z" fill="#EE0033"/>
<path d="M381.265 232.025H349.827V233.487H381.265V232.025Z" fill="#EE0033"/>
<path d="M477.763 409.776H319.809V300.676H477.763V409.776ZM321.746 407.954H475.845V302.48H321.746V407.954Z" fill="#EE0033"/>
<path d="M474.944 407.287H322.763V303.472H474.944V407.287ZM324.048 406.06H473.659V304.663H324.048V406.06Z" fill="#EE0033"/>
<path d="M385.829 331.257H383.374V304.032H386.731V330.409C386.731 330.878 386.328 331.257 385.829 331.257Z" fill="#EE0033"/>
<path d="M386.482 344.699H323.741V341.487H386.328C386.635 341.487 386.865 341.722 386.865 341.992V344.338C386.865 344.536 386.693 344.699 386.482 344.699Z" fill="#EE0033"/>
<path d="M421.046 343.688H404.512C404.148 343.688 403.86 343.417 403.86 343.075V307.008C403.86 306.666 404.148 306.395 404.512 306.395H421.046C421.411 306.395 421.699 306.666 421.699 307.008V343.075C421.679 343.417 421.392 343.688 421.046 343.688ZM405.165 342.479H420.413V307.622H405.165V342.479Z" fill="#EE0033"/>
<path d="M421.046 315.091H404.512C404.148 315.091 403.86 314.821 403.86 314.478V310.509C403.86 310.166 404.148 309.895 404.512 309.895H421.046C421.411 309.895 421.699 310.166 421.699 310.509V314.478C421.679 314.821 421.392 315.091 421.046 315.091ZM405.165 313.883H420.413V311.122H405.165V313.883Z" fill="#EE0033"/>
<path d="M421.046 323.553H404.512C404.148 323.553 403.86 323.282 403.86 322.94V318.97C403.86 318.628 404.148 318.357 404.512 318.357H421.046C421.411 318.357 421.699 318.628 421.699 318.97V322.94C421.679 323.282 421.392 323.553 421.046 323.553ZM405.165 322.344H420.413V319.584H405.165V322.344Z" fill="#EE0033"/>
<path d="M421.046 331.311H404.512C404.148 331.311 403.86 331.041 403.86 330.698V326.729C403.86 326.386 404.148 326.115 404.512 326.115H421.046C421.411 326.115 421.699 326.386 421.699 326.729V330.698C421.679 331.023 421.392 331.311 421.046 331.311ZM405.165 330.084H420.413V327.324H405.165V330.084Z" fill="#EE0033"/>
<path d="M421.046 339.52H404.512C404.148 339.52 403.86 339.25 403.86 338.907V334.938C403.86 334.595 404.148 334.324 404.512 334.324H421.046C421.411 334.324 421.699 334.595 421.699 334.938V338.907C421.679 339.25 421.392 339.52 421.046 339.52ZM405.165 338.312H420.413V335.551H405.165V338.312Z" fill="#EE0033"/>
<path d="M423.827 331.708C423.462 331.708 423.174 331.438 423.174 331.095L423.155 321.226C423.155 320.883 423.443 320.612 423.807 320.612C424.172 320.612 424.46 320.883 424.46 321.226L424.479 331.095C424.46 331.438 424.172 331.708 423.827 331.708Z" fill="#EE0033"/>
<path d="M422.617 322.705C422.521 322.705 422.444 322.687 422.348 322.651C422.022 322.507 421.888 322.146 422.022 321.839L423.058 319.692C423.154 319.494 423.365 319.349 423.595 319.331C423.825 319.313 424.056 319.421 424.19 319.62C425.571 321.731 425.609 321.839 425.628 321.929C425.724 322.254 425.513 322.579 425.168 322.669C424.861 322.741 424.535 322.579 424.401 322.308C424.343 322.182 424.056 321.749 423.729 321.226L423.192 322.344C423.096 322.579 422.866 322.705 422.617 322.705Z" fill="#EE0033"/>
<path d="M334.462 361.802H334.117C332.87 361.802 331.854 360.846 331.854 359.673V359.078C331.854 357.905 332.87 356.949 334.117 356.949H334.462C335.709 356.949 336.725 357.905 336.725 359.078V359.673C336.725 360.846 335.709 361.802 334.462 361.802ZM334.117 358.176C333.58 358.176 333.139 358.591 333.139 359.096V359.691C333.139 360.197 333.58 360.612 334.117 360.612H334.462C334.999 360.612 335.44 360.197 335.44 359.691V359.096C335.44 358.591 334.999 358.176 334.462 358.176H334.117Z" fill="#EE0033"/>
<path d="M336.745 361.496V360.72C336.745 360.648 336.668 360.575 336.591 360.575H331.911C331.835 360.575 331.758 360.648 331.758 360.72V361.496C331.758 361.568 331.835 361.64 331.911 361.64H336.591C336.687 361.64 336.745 361.568 336.745 361.496Z" fill="#EE0033"/>
<path d="M449.413 391.536H446.152C441.51 391.536 437.731 387.982 437.731 383.615V373.115C437.731 368.749 441.51 365.194 446.152 365.194H449.413C454.054 365.194 457.833 368.749 457.833 373.115V383.615C457.833 387.982 454.054 391.536 449.413 391.536ZM446.152 366.403C442.22 366.403 439.017 369.416 439.017 373.115V383.615C439.017 387.314 442.22 390.327 446.152 390.327H449.413C453.345 390.327 456.548 387.314 456.548 383.615V373.115C456.548 369.416 453.345 366.403 449.413 366.403H446.152Z" fill="#EE0033"/>
<path d="M447.994 363.95H447.649C446.402 363.95 445.386 362.993 445.386 361.821V361.225C445.386 360.052 446.402 359.096 447.649 359.096H447.994C449.241 359.096 450.258 360.052 450.258 361.225V361.821C450.258 362.993 449.241 363.95 447.994 363.95ZM447.649 360.305C447.112 360.305 446.671 360.72 446.671 361.225V361.821C446.671 362.326 447.112 362.741 447.649 362.741H447.994C448.531 362.741 448.973 362.326 448.973 361.821V361.225C448.973 360.72 448.531 360.305 447.994 360.305H447.649Z" fill="#EE0033"/>
<path d="M450.277 359.403V360.179C450.277 360.251 450.2 360.323 450.124 360.323H445.443C445.367 360.323 445.29 360.251 445.29 360.179V359.403C445.29 359.331 445.367 359.259 445.443 359.259H450.124C450.22 359.259 450.277 359.331 450.277 359.403Z" fill="#EE0033"/>
<path d="M434.107 385.582H433.474C432.227 385.582 431.211 384.626 431.211 383.453V383.128C431.211 381.955 432.227 380.999 433.474 380.999H434.107C435.354 380.999 436.371 381.955 436.371 383.128V383.453C436.371 384.626 435.354 385.582 434.107 385.582ZM433.474 382.208C432.937 382.208 432.496 382.623 432.496 383.128V383.453C432.496 383.958 432.937 384.373 433.474 384.373H434.107C434.644 384.373 435.085 383.958 435.085 383.453V383.128C435.085 382.623 434.644 382.208 434.107 382.208H433.474Z" fill="#EE0033"/>
<path d="M431.557 380.963H432.382C432.458 380.963 432.535 381.035 432.535 381.107V385.51C432.535 385.582 432.458 385.654 432.382 385.654H431.557C431.48 385.654 431.403 385.582 431.403 385.51V381.107C431.403 381.035 431.461 380.963 431.557 380.963Z" fill="#EE0033"/>
<path d="M433.896 374.955H433.263C432.017 374.955 431 373.999 431 372.826V372.502C431 371.329 432.017 370.373 433.263 370.373H433.896C435.143 370.373 436.16 371.329 436.16 372.502V372.826C436.16 373.999 435.143 374.955 433.896 374.955ZM433.263 371.6C432.726 371.6 432.285 372.014 432.285 372.52V372.844C432.285 373.35 432.726 373.765 433.263 373.765H433.896C434.433 373.765 434.875 373.35 434.875 372.844V372.52C434.875 372.014 434.433 371.6 433.896 371.6H433.263Z" fill="#EE0033"/>
<path d="M431.328 370.354H432.153C432.23 370.354 432.307 370.427 432.307 370.499V374.901C432.307 374.973 432.23 375.045 432.153 375.045H431.328C431.252 375.045 431.175 374.973 431.175 374.901V370.499C431.175 370.409 431.252 370.354 431.328 370.354Z" fill="#EE0033"/>
<path d="M462.322 384.86H461.689C460.442 384.86 459.426 383.904 459.426 382.731V382.407C459.426 381.234 460.442 380.278 461.689 380.278H462.322C463.569 380.278 464.585 381.234 464.585 382.407V382.731C464.585 383.904 463.569 384.86 462.322 384.86ZM461.689 381.487C461.152 381.487 460.711 381.902 460.711 382.407V382.731C460.711 383.237 461.152 383.652 461.689 383.652H462.322C462.859 383.652 463.3 383.237 463.3 382.731V382.407C463.3 381.902 462.859 381.487 462.322 381.487H461.689Z" fill="#EE0033"/>
<path d="M464.241 384.878H463.416C463.339 384.878 463.263 384.806 463.263 384.734V380.332C463.263 380.26 463.339 380.187 463.416 380.187H464.241C464.318 380.187 464.394 380.26 464.394 380.332V384.734C464.394 384.824 464.337 384.878 464.241 384.878Z" fill="#EE0033"/>
<path d="M462.533 374.234H461.9C460.653 374.234 459.637 373.277 459.637 372.105V371.78C459.637 370.607 460.653 369.651 461.9 369.651H462.533C463.78 369.651 464.796 370.607 464.796 371.78V372.105C464.796 373.277 463.78 374.234 462.533 374.234ZM461.9 370.878C461.363 370.878 460.922 371.293 460.922 371.798V372.123C460.922 372.628 461.363 373.043 461.9 373.043H462.533C463.07 373.043 463.511 372.628 463.511 372.123V371.798C463.511 371.293 463.07 370.878 462.533 370.878H461.9Z" fill="#EE0033"/>
<path d="M464.47 374.27H463.646C463.569 374.27 463.492 374.198 463.492 374.125V369.723C463.492 369.651 463.569 369.579 463.646 369.579H464.47C464.547 369.579 464.624 369.651 464.624 369.723V374.125C464.624 374.198 464.547 374.27 464.47 374.27Z" fill="#EE0033"/>
<path d="M446.902 396.84H446.556C445.31 396.84 444.293 395.884 444.293 394.711V394.116C444.293 392.943 445.31 391.987 446.556 391.987H446.902C448.148 391.987 449.165 392.943 449.165 394.116V394.711C449.165 395.884 448.148 396.84 446.902 396.84ZM446.575 393.214C446.038 393.214 445.597 393.629 445.597 394.134V394.729C445.597 395.235 446.038 395.65 446.575 395.65H446.921C447.458 395.65 447.899 395.235 447.899 394.729V394.134C447.899 393.629 447.458 393.214 446.921 393.214H446.575Z" fill="#EE0033"/>
<path d="M449.203 396.534V395.758C449.203 395.686 449.126 395.614 449.049 395.614H444.369C444.293 395.614 444.216 395.686 444.216 395.758V396.534C444.216 396.606 444.293 396.678 444.369 396.678H449.049C449.126 396.678 449.203 396.606 449.203 396.534Z" fill="#EE0033"/>
<path d="M370.56 305.619H345.357C345.05 305.619 344.781 305.385 344.781 305.078V302.173C344.781 301.885 345.031 301.632 345.357 301.632H370.56C370.867 301.632 371.136 301.867 371.136 302.173V305.078C371.136 305.385 370.886 305.619 370.56 305.619Z" fill="#EE0033"/>
<path d="M428.928 409.686H403.725C403.418 409.686 403.149 409.452 403.149 409.145V406.24C403.149 405.952 403.399 405.699 403.725 405.699H428.928C429.235 405.699 429.504 405.934 429.504 406.24V409.145C429.485 409.452 429.235 409.686 428.928 409.686Z" fill="#EE0033"/>
<path d="M477.476 364.978V388.685C477.476 388.974 477.227 389.226 476.901 389.226H473.813C473.506 389.226 473.237 388.992 473.237 388.685V364.978C473.237 364.689 473.487 364.437 473.813 364.437H476.901C477.227 364.437 477.476 364.671 477.476 364.978Z" fill="#EE0033"/>
<path d="M336.574 356.354H331.548C327.309 356.354 323.876 353.124 323.876 349.137V344.392C323.876 344.049 324.164 343.778 324.528 343.778H344.649C345.013 343.778 345.301 344.049 345.301 344.392V348.163C345.282 352.691 341.369 356.354 336.574 356.354ZM325.161 345.005V349.137C325.161 352.457 328.019 355.145 331.548 355.145H336.574C340.659 355.145 343.978 352.024 343.978 348.181V345.005H325.161Z" fill="#EE0033"/>
<path d="M372.076 335.695L371.73 334.865L385.215 329.886L385.694 331.041L372.536 335.894C372.363 335.948 372.152 335.876 372.076 335.695Z" fill="#EE0033"/>
<path d="M434.798 304.032H431.825V334.938H434.798V304.032Z" fill="#EE0033"/>
<path d="M439.69 331.564H434.779C434.607 331.564 434.453 331.419 434.453 331.257V319.818C434.453 319.656 434.607 319.512 434.779 319.512H439.69C439.766 319.512 439.843 319.53 439.9 319.584C441.934 321.117 443.104 323.661 442.95 326.223C442.816 328.497 441.703 330.427 439.862 331.51C439.805 331.546 439.747 331.564 439.69 331.564ZM435.086 330.95H439.594C441.205 329.958 442.183 328.226 442.298 326.187C442.432 323.86 441.397 321.55 439.574 320.125H435.086V330.95Z" fill="#EE0033"/>
<path d="M438.5 330.644H434.913C434.74 330.644 434.587 330.499 434.587 330.337V320.739C434.587 320.576 434.74 320.432 434.913 320.432H438.5C438.96 320.432 439.401 320.594 439.727 320.901C441.128 322.2 441.914 324.112 441.837 326.025C441.761 327.721 440.993 329.254 439.747 330.229C439.401 330.481 438.96 330.644 438.5 330.644ZM435.239 330.03H438.5C438.807 330.03 439.094 329.94 439.325 329.76C440.456 328.876 441.108 327.54 441.185 325.989C441.262 324.239 440.552 322.489 439.267 321.316C439.075 321.136 438.788 321.027 438.5 321.027H435.239V330.03Z" fill="#EE0033"/>
<path d="M442.911 307.46H438.02C437.042 307.46 436.236 306.702 436.236 305.782V305.547C436.236 304.627 437.042 303.869 438.02 303.869H442.911C443.89 303.869 444.695 304.627 444.695 305.547V305.782C444.714 306.702 443.909 307.46 442.911 307.46ZM438.039 305.078C437.771 305.078 437.541 305.294 437.541 305.547V305.782C437.541 306.034 437.771 306.251 438.039 306.251H442.93C443.199 306.251 443.429 306.034 443.429 305.782V305.547C443.429 305.294 443.199 305.078 442.93 305.078H438.039Z" fill="#EE0033"/>
<path d="M440.495 312.692C439.996 312.692 439.497 312.565 439.037 312.331C438.04 311.79 437.483 310.779 437.483 309.552V306.846C437.483 306.503 437.771 306.233 438.136 306.233H442.758C443.123 306.233 443.41 306.503 443.41 306.846V309.552C443.41 310.797 442.873 311.826 441.914 312.349C441.454 312.583 440.974 312.692 440.495 312.692ZM438.749 307.459V309.552C438.749 310.346 439.075 310.96 439.67 311.266C440.169 311.537 440.763 311.537 441.243 311.284C441.799 310.978 442.087 310.364 442.087 309.552V307.459H438.749Z" fill="#EE0033"/>
<path d="M440.494 311.772C440.207 311.772 439.919 311.7 439.651 311.555C438.902 311.158 438.48 310.31 438.48 309.246V306.864C438.48 306.702 438.634 306.557 438.807 306.557H442.106C442.278 306.557 442.432 306.702 442.432 306.864V309.246C442.432 310.346 442.029 311.194 441.319 311.573C441.051 311.7 440.782 311.772 440.494 311.772ZM439.113 307.153V309.228C439.113 310.058 439.44 310.725 439.957 311.014C440.283 311.194 440.667 311.194 440.974 311.032C441.473 310.761 441.76 310.094 441.76 309.228V307.153H439.113Z" fill="#EE0033"/>
<path d="M440.341 306.557C439.881 306.557 439.497 306.197 439.497 305.764C439.497 305.331 439.881 304.97 440.341 304.97C440.801 304.97 441.185 305.331 441.185 305.764C441.166 306.197 440.801 306.557 440.341 306.557ZM440.341 305.583C440.226 305.583 440.149 305.673 440.149 305.764C440.149 305.872 440.245 305.944 440.341 305.944C440.437 305.944 440.533 305.854 440.533 305.764C440.533 305.673 440.437 305.583 440.341 305.583Z" fill="#EE0033"/>
<path d="M444.945 337.373H432.075C431.94 337.373 431.825 337.265 431.825 337.139V334.649H444.945C445.156 334.649 445.329 334.811 445.329 335.01V336.994C445.348 337.211 445.175 337.373 444.945 337.373Z" fill="#EE0033"/>
<path d="M474.291 337.409H454.573C454.343 337.409 454.17 337.247 454.17 337.031V335.046C454.17 334.847 454.343 334.685 454.554 334.685H474.31V337.409H474.291Z" fill="#EE0033"/>
<path d="M455.149 336.525L454.458 336.958L451.044 332.141L451.543 331.835C451.639 331.762 451.773 331.798 451.85 331.889L455.149 336.525Z" fill="#EE0033"/>
<path d="M466.522 332.719C462.379 332.719 459.138 326.566 459.138 318.7C459.138 310.834 462.379 304.681 466.522 304.681C470.665 304.681 473.888 310.834 473.888 318.7C473.907 326.548 470.665 332.719 466.522 332.719ZM466.522 305.89C463.223 305.89 460.442 311.754 460.442 318.7C460.442 325.646 463.223 331.51 466.522 331.51C469.821 331.51 472.603 325.646 472.603 318.7C472.603 311.754 469.821 305.89 466.522 305.89Z" fill="#EE0033"/>
<path d="M474.29 345.673H425.206V349.66H474.29V345.673Z" fill="#EE0033"/>
<path d="M385.637 407.575H323.74C323.203 407.575 322.781 407.16 322.781 406.673V364.978C322.781 364.473 323.222 364.076 323.74 364.076H338.375C339.871 364.076 341.08 365.212 341.08 366.62V391.825C341.08 392.095 341.31 392.312 341.598 392.312H384.409C385.618 392.312 386.596 393.232 386.596 394.369V406.673C386.615 407.178 386.174 407.575 385.637 407.575ZM324.699 405.771H384.678V394.387C384.678 394.26 384.563 394.134 384.409 394.134H341.617C340.255 394.134 339.162 393.106 339.162 391.825V366.62C339.162 366.223 338.816 365.898 338.394 365.898H324.719V405.771H324.699Z" fill="#EE0033"/>
<path d="M333.253 385.817H331.527C329.034 385.817 327.02 383.904 327.02 381.577V373.043C327.02 370.697 329.053 368.803 331.527 368.803H333.253C335.747 368.803 337.761 370.715 337.761 373.043V381.577C337.761 383.922 335.747 385.817 333.253 385.817ZM331.527 370.012C329.743 370.012 328.305 371.365 328.305 373.043V381.577C328.305 383.255 329.743 384.608 331.527 384.608H333.253C335.037 384.608 336.476 383.255 336.476 381.577V373.043C336.476 371.365 335.037 370.012 333.253 370.012H331.527Z" fill="#EE0033"/>
<path d="M332.736 384.878H332.007C329.725 384.878 327.864 383.128 327.864 380.981V377.481C327.864 375.334 329.725 373.584 332.007 373.584H332.736C335.019 373.584 336.879 375.334 336.879 377.481V380.981C336.879 383.128 335.019 384.878 332.736 384.878ZM332.007 374.811C330.434 374.811 329.149 376.02 329.149 377.499V380.999C329.149 382.479 330.434 383.687 332.007 383.687H332.736C334.309 383.687 335.594 382.479 335.594 380.999V377.499C335.594 376.02 334.309 374.811 332.736 374.811H332.007Z" fill="#EE0033"/>
<path d="M330.203 382.352C329.551 382.352 329.033 381.865 329.033 381.252C329.033 380.638 329.551 380.151 330.203 380.151C330.855 380.151 331.373 380.638 331.373 381.252C331.354 381.847 330.836 382.352 330.203 382.352ZM330.203 380.747C329.916 380.747 329.685 380.963 329.685 381.234C329.685 381.504 329.916 381.721 330.203 381.721C330.491 381.721 330.721 381.504 330.721 381.234C330.721 380.981 330.491 380.747 330.203 380.747Z" fill="#EE0033"/>
<path d="M329.494 370.048V373.494C329.494 373.512 329.494 373.512 329.475 373.512H329.36C329.341 373.512 329.341 373.512 329.341 373.494V370.048C329.341 370.03 329.341 370.03 329.36 370.03H329.475C329.494 370.03 329.494 370.03 329.494 370.048Z" fill="#EE0033"/>
<path d="M330.069 370.048V373.494C330.069 373.512 330.069 373.512 330.05 373.512H329.935C329.916 373.512 329.916 373.512 329.916 373.494V370.048C329.916 370.03 329.916 370.03 329.935 370.03H330.05C330.069 370.03 330.069 370.03 330.069 370.048Z" fill="#EE0033"/>
<path d="M330.76 370.048V373.494C330.76 373.512 330.76 373.512 330.741 373.512H330.626C330.606 373.512 330.606 373.512 330.606 373.494V370.048C330.606 370.03 330.606 370.03 330.626 370.03H330.741C330.741 370.03 330.76 370.03 330.76 370.048Z" fill="#EE0033"/>
<path d="M331.336 370.048V373.494C331.336 373.512 331.336 373.512 331.317 373.512H331.202C331.183 373.512 331.183 373.512 331.183 373.494V370.048C331.183 370.03 331.183 370.03 331.202 370.03H331.317C331.317 370.03 331.336 370.03 331.336 370.048Z" fill="#EE0033"/>
<path d="M332.045 370.048V373.494C332.045 373.512 332.045 373.512 332.026 373.512H331.911C331.892 373.512 331.892 373.512 331.892 373.494V370.048C331.892 370.03 331.892 370.03 331.911 370.03H332.026C332.026 370.03 332.045 370.03 332.045 370.048Z" fill="#EE0033"/>
<path d="M332.735 370.048V373.494C332.735 373.512 332.735 373.512 332.716 373.512H332.601C332.582 373.512 332.582 373.512 332.582 373.494V370.048C332.582 370.03 332.582 370.03 332.601 370.03H332.716C332.735 370.03 332.735 370.03 332.735 370.048Z" fill="#EE0033"/>
<path d="M333.427 370.048V373.494C333.427 373.512 333.427 373.512 333.408 373.512H333.293C333.273 373.512 333.273 373.512 333.273 373.494V370.048C333.273 370.03 333.273 370.03 333.293 370.03H333.408C333.408 370.03 333.427 370.03 333.427 370.048Z" fill="#EE0033"/>
<path d="M334.001 370.048V373.494C334.001 373.512 334.001 373.512 333.982 373.512H333.867C333.848 373.512 333.848 373.512 333.848 373.494V370.048C333.848 370.03 333.848 370.03 333.867 370.03H333.982C333.982 370.03 334.001 370.03 334.001 370.048Z" fill="#EE0033"/>
<path d="M334.634 370.048V373.494C334.634 373.512 334.634 373.512 334.615 373.512H334.5C334.48 373.512 334.48 373.512 334.48 373.494V370.048C334.48 370.03 334.48 370.03 334.5 370.03H334.615C334.615 370.03 334.634 370.03 334.634 370.048Z" fill="#EE0033"/>
<path d="M335.21 370.048V373.494C335.21 373.512 335.21 373.512 335.191 373.512H335.076C335.057 373.512 335.057 373.512 335.057 373.494V370.048C335.057 370.03 335.057 370.03 335.076 370.03H335.191C335.21 370.03 335.21 370.03 335.21 370.048Z" fill="#EE0033"/>
<path d="M361.087 405.627H354.335C353.031 405.627 351.976 404.634 351.976 403.408V396.497C351.976 395 353.28 393.773 354.872 393.773H360.223C362.295 393.773 363.983 395.361 363.983 397.309V402.902C364.002 404.4 362.698 405.627 361.087 405.627ZM354.872 394.982C353.99 394.982 353.261 395.668 353.261 396.497V403.408C353.261 403.967 353.74 404.418 354.335 404.418H361.087C361.969 404.418 362.698 403.732 362.698 402.902V397.309C362.698 396.028 361.585 394.982 360.223 394.982H354.872Z" fill="#EE0033"/>
<path d="M355.293 398.536C354.354 398.536 353.605 397.815 353.605 396.949C353.605 396.064 354.373 395.361 355.293 395.361C356.233 395.361 356.981 396.083 356.981 396.949C357 397.815 356.233 398.536 355.293 398.536ZM355.293 395.956C354.718 395.956 354.238 396.407 354.238 396.949C354.238 397.49 354.718 397.941 355.293 397.941C355.869 397.941 356.348 397.49 356.348 396.949C356.348 396.389 355.888 395.956 355.293 395.956Z" fill="#EE0033"/>
<path d="M355.428 403.822C354.488 403.822 353.74 403.101 353.74 402.235C353.74 401.351 354.507 400.647 355.428 400.647C356.368 400.647 357.116 401.369 357.116 402.235C357.135 403.101 356.368 403.822 355.428 403.822ZM355.428 401.242C354.853 401.242 354.373 401.694 354.373 402.235C354.373 402.776 354.853 403.227 355.428 403.227C356.004 403.227 356.483 402.776 356.483 402.235C356.483 401.675 356.004 401.242 355.428 401.242Z" fill="#EE0033"/>
<path d="M360.549 398.662C359.609 398.662 358.861 397.941 358.861 397.075C358.861 396.191 359.629 395.487 360.549 395.487C361.489 395.487 362.237 396.209 362.237 397.075C362.237 397.941 361.47 398.662 360.549 398.662ZM360.549 396.064C359.974 396.064 359.494 396.515 359.494 397.057C359.494 397.598 359.974 398.049 360.549 398.049C361.125 398.049 361.604 397.598 361.604 397.057C361.604 396.515 361.125 396.064 360.549 396.064Z" fill="#EE0033"/>
<path d="M360.664 403.931C359.724 403.931 358.976 403.209 358.976 402.343C358.976 401.459 359.743 400.755 360.664 400.755C361.603 400.755 362.351 401.477 362.351 402.343C362.371 403.227 361.603 403.931 360.664 403.931ZM360.664 401.351C360.088 401.351 359.609 401.802 359.609 402.343C359.609 402.884 360.088 403.335 360.664 403.335C361.239 403.335 361.718 402.884 361.718 402.343C361.718 401.802 361.258 401.351 360.664 401.351Z" fill="#EE0033"/>
<path d="M181.589 334.974L72.872 419.231C68.307 422.767 67.9234 429.208 72.0281 433.195L72.6994 433.845C76.3246 437.381 82.3282 437.471 86.0685 434.043L187.401 341L181.589 334.974Z" fill="#EF0F3F"/>
<path opacity="0.25" d="M250.714 347.061C284.738 335.732 302.733 301.077 290.909 269.656C279.084 238.234 241.917 221.946 207.894 233.275C173.87 244.604 155.875 279.259 167.699 310.68C179.524 342.101 216.691 358.389 250.714 347.061Z" fill="white"/>
<path d="M205.469 226.865C167.606 239.477 147.581 278.033 160.739 312.998C173.897 347.964 215.251 366.096 253.114 353.485C290.977 340.873 310.983 302.317 297.844 267.352C284.667 232.386 243.313 214.272 205.469 226.865ZM249.604 344.193C217.304 354.946 182.03 339.484 170.809 309.642C159.588 279.819 176.659 246.91 208.96 236.175C241.26 225.422 276.534 240.884 287.755 270.726C298.976 300.531 281.905 333.44 249.604 344.193Z" fill="#EF0F3F"/>
<path d="M168.737 318.916C168.641 318.916 168.545 318.862 168.507 318.79C167.739 317.365 167.03 315.885 166.378 314.406C166.32 314.279 166.378 314.135 166.512 314.099C166.646 314.045 166.8 314.099 166.838 314.225C167.471 315.687 168.181 317.148 168.948 318.573C169.005 318.7 168.967 318.844 168.833 318.898C168.814 318.898 168.775 318.916 168.737 318.916ZM162.541 301.054C162.426 301.054 162.311 300.964 162.292 300.856C161.544 296.544 161.276 292.142 161.506 287.775C162.177 275.399 166.723 263.527 174.683 253.423C182.816 243.085 193.998 235.327 207.003 230.997C219.24 226.919 232.341 226.162 244.885 228.796C245.019 228.832 245.115 228.958 245.077 229.084C245.038 229.211 244.904 229.301 244.77 229.265C232.321 226.649 219.317 227.406 207.175 231.448C194.267 235.742 183.161 243.446 175.086 253.694C167.202 263.707 162.676 275.507 162.024 287.775C161.793 292.106 162.043 296.49 162.791 300.766C162.81 300.892 162.714 301.018 162.58 301.036C162.58 301.054 162.561 301.054 162.541 301.054Z" fill="#EE0033"/>
<path d="M80.8517 433.646C76.6319 433.646 73.9082 432.257 72.7382 429.532C71.549 426.754 72.4505 423.506 74.9823 421.432L87.8911 410.949C88.0062 410.859 88.1596 410.877 88.2555 410.967C88.3514 411.075 88.3322 411.22 88.2363 411.31L75.3276 421.792C72.9492 423.723 72.1052 426.754 73.2177 429.334C74.311 431.86 76.8812 433.159 80.8517 433.159C80.89 433.159 80.9284 433.159 80.986 433.159C81.1202 433.159 81.2353 433.267 81.2353 433.394C81.2353 433.52 81.1202 433.628 80.986 433.628C80.9476 433.646 80.9092 433.646 80.8517 433.646Z" fill="#695FE0"/>
<path d="M92.0527 408.153C91.976 408.153 91.8993 408.117 91.8609 408.062C91.765 407.954 91.7842 407.81 91.8801 407.72L93.5488 406.366C93.6639 406.276 93.8174 406.294 93.9133 406.384C94.0092 406.493 93.99 406.637 93.8941 406.727L92.2253 408.08C92.1678 408.135 92.1103 408.153 92.0527 408.153Z" fill="white"/>
<path d="M108.529 420.692L95.9075 423.651L99.0532 445.897C99.0532 445.897 94.3155 450.353 92.7427 456.271C91.1699 462.207 89.7121 487.105 89.7121 487.105L86.7199 488.801L86.3555 490.226L95.0636 501.232L93.625 492.463C93.3948 491.074 93.7976 488.26 93.6634 488.188C98.4011 476.316 108.509 442.902 108.509 442.902V420.692H108.529Z" fill="url(#paint1_linear_477_5856)"/>
<path d="M112.231 490.389C112.097 490.389 111.963 490.389 111.829 490.389C112.442 483.244 115.224 451.76 118.005 439.961C121.15 426.61 113.267 399.925 113.267 399.925L99.0732 413.277L106.957 438.481C101.548 446.095 107.839 490.731 107.705 490.713V490.804L105.652 493.456L105.902 494.899L118.465 501.881L113.516 494.322C112.749 493.149 112.308 491.796 112.231 490.389Z" fill="url(#paint2_linear_477_5856)"/>
<path d="M96.2543 340.747C96.2543 340.747 68.6338 370.03 96.2543 385.041L99.0739 383.128C99.0739 383.128 85.3595 370.769 99.0739 355.65L96.2543 340.747Z" fill="url(#paint3_linear_477_5856)"/>
<path d="M119.308 503H115.28C114.532 503 113.823 502.675 113.362 502.116C112.115 500.582 109.526 497.605 108.279 497.533C106.611 497.425 106.822 503 106.822 503H105.882L104.692 496.072C104.386 494.322 105.325 492.608 106.975 491.778C106.975 491.778 107.359 494.43 109.43 495.603C111.502 496.775 117.831 500.979 117.831 500.979C117.831 500.979 118.618 500.871 119.462 501.015C120.766 501.232 120.593 503 119.308 503Z" fill="#F8455B"/>
<path d="M95.4095 502.567L91.7076 501.106C91.0171 500.835 90.4992 500.276 90.3074 499.59C89.7895 497.732 88.6194 494.033 87.5261 493.51C86.03 492.806 83.9393 498.02 83.9393 498.02L83.0762 497.678L84.8408 490.858C85.282 489.144 86.8548 487.881 88.7153 487.736C88.7153 487.736 87.9673 490.316 89.3867 492.157C90.8061 493.997 94.93 500.167 94.93 500.167C94.93 500.167 95.6972 500.348 96.4069 500.799C97.481 501.466 96.5795 503.036 95.4095 502.567Z" fill="#F8455B"/>
<path d="M116.873 377.373C116.873 377.373 116.413 380.043 117.084 387.386C117.755 394.729 121.016 411.996 120.345 428.486C120.345 428.486 111.119 430.507 95.0834 429.551C95.0834 429.551 88.3125 403.786 89.9621 393.99C91.6116 384.193 100.55 377.156 100.55 377.156L116.873 377.373Z" fill="#131C38"/>
<path d="M110.065 328.262L111.197 340.747H100.475L103.141 321.695L110.065 328.262Z" fill="url(#paint4_linear_477_5856)"/>
<path d="M97.2894 339.015C100.991 338.817 109.258 338.474 115.128 338.763C118.216 338.925 120.805 341 121.419 343.85L122.857 350.291C123.395 352.691 123.318 355.181 122.627 357.544L116.892 377.373C116.892 377.373 111.79 380.259 100.569 377.174C100.569 377.174 90.7295 355.091 94.7575 340.964C95.0644 339.863 96.081 339.087 97.2894 339.015Z" fill="#D7002E"/>
<path d="M121.15 342.696C122.723 346.611 124.162 350.706 125.696 354.549C126.482 356.48 127.269 358.356 128.113 360.088C128.535 360.954 129.014 361.748 129.436 362.47C129.878 363.173 130.357 363.769 130.606 364.04C130.664 364.076 130.491 364.112 130.434 364.112C130.395 364.112 131.508 364.274 131.834 364.328H133.157C135.056 364.238 137.185 363.931 139.334 363.534C143.669 362.777 148.176 361.712 152.799 360.9H152.837C153.719 360.738 154.582 361.297 154.736 362.127C154.851 362.668 154.621 363.21 154.218 363.552C152.357 365.104 150.382 366.367 148.33 367.594C147.294 368.189 146.239 368.767 145.184 369.326C144.091 369.849 142.997 370.372 141.866 370.859C139.583 371.798 137.224 372.664 134.5 373.205C133.79 373.313 133.081 373.439 132.352 373.53C131.527 373.548 130.779 373.62 129.878 373.584C129.398 373.548 128.918 373.476 128.439 373.421C128.19 373.385 127.998 373.367 127.691 373.295C127.365 373.205 127.039 373.097 126.713 372.988C126.041 372.754 125.6 372.483 125.063 372.195C124.603 371.906 124.2 371.617 123.797 371.31C122.32 370.12 121.38 368.947 120.575 367.81C119.769 366.674 119.117 365.537 118.542 364.436C117.391 362.217 116.489 360.016 115.741 357.797C114.264 353.359 113.248 348.992 112.826 344.356C112.615 342.136 114.379 340.17 116.739 339.989C118.695 339.827 120.46 340.928 121.112 342.569L121.15 342.696Z" fill="url(#paint5_linear_477_5856)"/>
<path d="M151.342 362.903L153.26 358.627L163.33 356.263C163.33 356.263 164.135 357.905 159.915 358.627C159.915 358.627 161.431 360.197 160.625 362.037C159.8 363.895 151.246 365.736 151.342 362.903Z" fill="url(#paint6_linear_477_5856)"/>
<path d="M114.591 313.846C114.974 314.063 117.986 324.058 115.454 328.262C112.922 332.466 105.211 327.757 103.121 321.695C101.049 315.633 104.406 308.199 114.591 313.846Z" fill="url(#paint7_linear_477_5856)"/>
<path d="M94.6046 321.695C92.8783 329.669 87.1432 327.486 83.0769 331.04C76.4978 336.796 67.08 330.86 57.9116 336.309C51.2942 340.242 48.1101 350.309 51.2942 358.446C55.6866 369.705 70.7052 374.342 78.4735 370.914C85.9156 367.63 84.8415 357.815 94.8539 354.026C99.0929 352.42 101.203 353.467 103.735 351.067C108.185 346.881 106.995 338.781 106.516 335.659C105.519 328.875 103.102 327.649 104.253 324.672C106.497 318.88 116.969 320.071 117.852 315.975C118.638 312.259 111.062 305.186 103.907 306.305C92.8591 308.037 95.3718 318.14 94.6046 321.695Z" fill="#131C38"/>
<path d="M54.5929 356.534C54.4586 356.534 54.3435 356.444 54.3052 356.317C52.8858 350.796 53.5379 346.25 56.2233 342.84C60.6732 337.175 69.3238 336.615 69.4197 336.615C69.554 336.597 69.7074 336.724 69.7266 336.868C69.7458 337.012 69.6115 337.139 69.4581 337.157C69.3813 337.157 60.9801 337.716 56.7028 343.165C54.1325 346.448 53.5188 350.815 54.8998 356.191C54.9381 356.335 54.8422 356.48 54.6888 356.516C54.6312 356.534 54.6121 356.534 54.5929 356.534Z" fill="#EE0033"/>
<path d="M82.9224 361.604C82.9032 361.604 82.9032 361.604 82.884 361.604C82.8073 361.586 82.7689 361.514 82.7881 361.441C84.1691 356.462 86.5859 353.016 89.9809 351.175C92.4553 349.84 94.757 349.714 96.7901 349.606C98.7466 349.498 100.454 349.407 101.816 348.271C104.635 345.907 104.482 340.224 101.336 331.383C101.317 331.311 101.355 331.239 101.432 331.203C101.509 331.185 101.585 331.221 101.624 331.293C104.808 340.242 104.942 346.015 102.027 348.469C100.588 349.678 98.8425 349.768 96.8285 349.876C94.8145 349.985 92.5512 350.111 90.1344 351.41C86.8161 353.214 84.4376 356.606 83.0758 361.514C83.0566 361.55 82.9991 361.604 82.9224 361.604Z" fill="#EE0033"/>
<path d="M98.6899 319.71C98.6708 319.71 98.6516 319.71 98.6516 319.71C98.5749 319.692 98.5365 319.602 98.5557 319.53C99.649 316.462 102.814 316.913 106.151 317.401C108.261 317.707 110.467 318.014 112.308 317.509C113.689 317.13 114.514 316.517 114.764 315.723C115.166 314.37 113.747 312.854 113.728 312.854C113.67 312.8 113.67 312.71 113.747 312.656C113.804 312.601 113.9 312.601 113.958 312.674C114.015 312.746 115.492 314.315 115.051 315.813C114.783 316.697 113.9 317.365 112.404 317.779C110.486 318.321 108.261 317.996 106.113 317.689C102.756 317.202 99.86 316.787 98.8242 319.638C98.805 319.674 98.7475 319.71 98.6899 319.71Z" fill="#EE0033"/>
<path d="M442.548 358.789C444.888 361.135 448.322 363.156 450.738 364.418C447.132 368.622 442.241 372.826 435.758 376.94L433.898 380.855L427.971 374.161C427.971 374.179 438.616 369.182 442.548 358.789Z" fill="url(#paint8_linear_477_5856)"/>
<path d="M410.784 485.68C410.784 485.553 410.784 485.445 410.823 485.319C412.741 478.156 422.293 473.682 422.293 473.682L426.071 473.952C428.239 480.267 427.97 484.146 427.625 485.878C427.606 485.932 427.606 485.968 427.587 486.022C424.46 486.293 418.035 486.455 410.784 485.68Z" fill="#F8455B"/>
<path d="M427.568 486.022C427.395 486.6 426.954 487.051 426.36 487.159C421.929 488.043 414.87 487.321 411.916 486.961C411.264 486.888 410.785 486.311 410.766 485.68C418.035 486.455 424.461 486.293 427.568 486.022Z" fill="#2416C7"/>
<path d="M427.587 468.666L425.995 475.919C425.88 476.442 425.439 476.839 424.921 476.893C424.269 476.947 423.367 476.983 422.446 476.857C421.622 476.749 421.046 475.955 421.2 475.107L422.312 468.666H427.587Z" fill="url(#paint9_linear_477_5856)"/>
<path d="M394.423 485.95C398.605 485.842 400.753 485.373 401.865 484.94C401.865 485.337 401.865 485.734 401.846 486.131C401.827 486.564 401.482 486.925 401.06 486.925L378.139 486.78C377.41 486.78 376.988 485.986 377.295 485.355C380.306 485.608 387.959 486.131 394.423 485.95Z" fill="#2416C7"/>
<path d="M377.296 485.373C377.315 485.319 377.353 485.264 377.392 485.21C379.425 482.558 384.565 477.254 394.77 474.944L399.661 474.8C399.661 474.8 401.828 478.354 401.886 484.958C400.773 485.391 398.606 485.842 394.444 485.968C387.96 486.13 380.307 485.607 377.296 485.373Z" fill="#F8455B"/>
<path d="M400.561 467.836C400.504 468.179 399.832 473.393 399.583 475.414C399.525 475.901 399.161 476.262 398.681 476.316C397.857 476.406 396.495 476.496 395.325 476.262C394.692 476.135 394.231 475.558 394.231 474.89V466.717L400.561 467.836Z" fill="url(#paint10_linear_477_5856)"/>
<path d="M404.475 372.772C404.475 372.772 392.679 414.918 392.89 467.944C392.89 468.918 393.618 469.748 394.616 469.947C396.093 470.236 398.279 470.596 400.082 470.542C401.041 470.524 401.847 469.839 402.02 468.955C403.669 459.843 413.164 408.459 418.573 400.124C418.573 400.124 422.121 445.879 420.99 469.604C420.97 470.199 421.411 470.705 422.044 470.777C422.984 470.885 424.5 470.957 426.437 470.759C427.166 470.687 427.76 470.163 427.856 469.478C429.026 461.756 435.816 415.82 435.529 382.731C435.509 380.873 430.273 372.754 430.273 372.754H404.475V372.772Z" fill="#131C38"/>
<path d="M388.074 321.767C389.992 319.512 391.661 317.094 393.061 314.604C395.018 311.122 393.215 316.859 393.752 312.926C408.425 302.967 430.502 308.019 439.038 309.029C441.838 309.354 444.408 310.653 446.25 312.674C453.577 320.648 469.631 342.461 450.719 364.437C448.302 363.174 444.869 361.153 442.529 358.807C444.619 353.268 444.792 346.178 440.4 337.482C440.246 338.167 440.074 338.853 439.843 339.52C433.801 357.526 433.475 372.501 433.495 375.965C433.495 376.435 433.188 376.849 432.727 377.03C424.767 380.025 409.48 378.239 404.34 377.517C403.4 377.391 402.767 376.561 402.901 375.677C405.414 358.501 392.486 330.229 389.072 323.138C388.822 322.615 388.496 322.164 388.074 321.767Z" fill="#D7002E"/>
<path d="M425.304 294.559L426.838 309.282C426.838 309.282 418.034 311.772 411.628 307.532L416.135 294.144L425.304 294.559Z" fill="url(#paint11_linear_477_5856)"/>
<path d="M415.081 277.78C414.87 277.961 406.143 294.108 406.143 294.108L416.04 298.601L426.743 284.474C426.743 284.456 418.629 274.623 415.081 277.78Z" fill="url(#paint12_linear_477_5856)"/>
<path d="M422.351 284.853C422.524 285.286 422.485 285.755 422.236 286.152L417.306 293.892C417.23 294.018 417.134 294.108 417.038 294.216C416.443 294.74 414.448 296.219 412.876 294.198C411.552 292.466 410.305 290.879 408.982 290.229C408.195 289.85 407.256 290.157 406.853 290.897C406.047 292.412 404.455 295.497 403.477 298.438C403.228 299.178 403.63 299.954 404.398 300.243C406.412 301 410.363 302.39 413.873 302.841C414.448 302.913 415.024 302.678 415.369 302.245C416.884 300.297 421.143 294.848 422.6 293.495C423.943 292.232 426.456 292.701 427.568 293.008C427.99 293.116 428.45 293.062 428.834 292.845C429.966 292.196 431.961 290.59 430.138 287.866C429.678 287.18 429.908 286.278 430.618 285.845C431.884 285.051 433.265 283.572 431.961 281.19C430.637 278.772 428.239 278.556 426.628 278.736C425.919 278.827 425.19 278.466 424.902 277.834C424.787 277.564 424.538 277.311 424.096 277.239C423.252 277.076 422.696 276.355 422.85 275.543C423.137 274.172 422.926 272.385 420.586 271.177C416.309 268.976 412.569 272.566 411.629 275.597C410.67 278.628 415.446 280.775 418.457 281.136C420.663 281.388 421.871 283.662 422.351 284.853Z" fill="#131C38"/>
<path d="M420.74 296.309C420.74 296.309 422.639 291.077 425.075 291.276C427.511 291.474 429.429 293.747 426.399 296.309C422.639 299.503 420.74 296.309 420.74 296.309Z" fill="url(#paint13_linear_477_5856)"/>
<path d="M441.225 336.128C444.428 327.883 443.258 317.924 443.258 317.816L442.376 317.906C442.395 317.996 443.527 327.775 440.4 335.84L441.225 336.128Z" fill="#8982E0"/>
<path d="M419.013 399.059C419.204 399.059 419.396 398.933 419.435 398.753C420.413 395.198 427.74 391.301 427.797 391.265C428.008 391.157 428.085 390.904 427.97 390.688C427.855 390.489 427.586 390.417 427.356 390.525C427.049 390.688 419.626 394.639 418.552 398.536C418.495 398.753 418.629 398.987 418.878 399.041C418.936 399.059 418.974 399.059 419.013 399.059Z" fill="#131C38"/>
<path d="M358.306 326.404C374.897 328.749 385.696 318.898 393.752 312.926C404.378 305.042 412.665 308.885 412.665 308.885L401.329 329.254C384.392 344.283 367.033 340.945 356.081 336.074C355.908 332.123 357.04 328.839 358.306 326.404Z" fill="#D7002E"/>
<path d="M335.001 317.094L340.506 319.872C347.104 323.643 353.012 325.646 358.325 326.404C357.04 328.839 355.928 332.123 356.1 336.056C349.138 332.953 344.764 329.236 344.764 329.236C332.278 322.254 335.001 317.094 335.001 317.094Z" fill="url(#paint14_linear_477_5856)"/>
<path d="M318.793 324.383C319.158 323.264 320.021 322.38 321.172 321.947L332.335 317.725C332.335 317.725 332.507 316.372 329.976 315.47C327.444 314.55 328.038 311.898 328.038 311.898C328.038 311.898 331.491 313.377 336.535 315.723C339.432 317.058 341.043 319.439 341.906 321.225L339.029 324.78C332.143 326.728 325.18 327.089 318.16 326.331L318.793 324.383Z" fill="url(#paint15_linear_477_5856)"/>
<defs>
<linearGradient id="paint0_linear_477_5856" x1="566.18" y1="567.268" x2="199.541" y2="146.553" gradientUnits="userSpaceOnUse">
<stop stop-color="white"/>
<stop offset="0.0001" stop-color="#FEFFFF"/>
<stop offset="1" stop-color="#E9EFFD"/>
</linearGradient>
<linearGradient id="paint1_linear_477_5856" x1="80.2953" y1="499.295" x2="112.282" y2="411.753" gradientUnits="userSpaceOnUse">
<stop stop-color="#FEBBBA"/>
<stop offset="1" stop-color="#FF928E"/>
</linearGradient>
<linearGradient id="paint2_linear_477_5856" x1="79.7552" y1="776.626" x2="183.966" y2="-518.208" gradientUnits="userSpaceOnUse">
<stop stop-color="#FEBBBA"/>
<stop offset="1" stop-color="#FF928E"/>
</linearGradient>
<linearGradient id="paint3_linear_477_5856" x1="83.986" y1="362.896" x2="99.0784" y2="362.896" gradientUnits="userSpaceOnUse">
<stop stop-color="#FEBBBA"/>
<stop offset="1" stop-color="#FF928E"/>
</linearGradient>
<linearGradient id="paint4_linear_477_5856" x1="100.469" y1="331.221" x2="111.188" y2="331.221" gradientUnits="userSpaceOnUse">
<stop stop-color="#FEBBBA"/>
<stop offset="1" stop-color="#FF928E"/>
</linearGradient>
<linearGradient id="paint5_linear_477_5856" x1="163.358" y1="336.969" x2="73.5412" y2="391.671" gradientUnits="userSpaceOnUse">
<stop stop-color="#FEBBBA"/>
<stop offset="1" stop-color="#FF928E"/>
</linearGradient>
<linearGradient id="paint6_linear_477_5856" x1="172.57" y1="352.094" x2="82.7535" y2="406.796" gradientUnits="userSpaceOnUse">
<stop stop-color="#FEBBBA"/>
<stop offset="1" stop-color="#FF928E"/>
</linearGradient>
<linearGradient id="paint7_linear_477_5856" x1="118.321" y1="331.217" x2="99.1888" y2="301.475" gradientUnits="userSpaceOnUse">
<stop stop-color="#FEBBBA"/>
<stop offset="1" stop-color="#FF928E"/>
</linearGradient>
<linearGradient id="paint8_linear_477_5856" x1="450.736" y1="369.827" x2="427.977" y2="369.827" gradientUnits="userSpaceOnUse">
<stop stop-color="#FEBBBA"/>
<stop offset="1" stop-color="#FF928E"/>
</linearGradient>
<linearGradient id="paint9_linear_477_5856" x1="423.106" y1="461.691" x2="425.995" y2="488.492" gradientUnits="userSpaceOnUse">
<stop stop-color="#FEBBBA"/>
<stop offset="1" stop-color="#FF928E"/>
</linearGradient>
<linearGradient id="paint10_linear_477_5856" x1="396.552" y1="464.553" x2="399.441" y2="491.353" gradientUnits="userSpaceOnUse">
<stop stop-color="#FEBBBA"/>
<stop offset="1" stop-color="#FF928E"/>
</linearGradient>
<linearGradient id="paint11_linear_477_5856" x1="415.904" y1="290.617" x2="426.982" y2="341.509" gradientUnits="userSpaceOnUse">
<stop stop-color="#FEBBBA"/>
<stop offset="1" stop-color="#FF928E"/>
</linearGradient>
<linearGradient id="paint12_linear_477_5856" x1="417.967" y1="280.822" x2="412.522" y2="314.89" gradientUnits="userSpaceOnUse">
<stop stop-color="#FEBBBA"/>
<stop offset="1" stop-color="#FF928E"/>
</linearGradient>
<linearGradient id="paint13_linear_477_5856" x1="423.291" y1="317.887" x2="424.257" y2="294.036" gradientUnits="userSpaceOnUse">
<stop stop-color="#FEBBBA"/>
<stop offset="1" stop-color="#FF928E"/>
</linearGradient>
<linearGradient id="paint14_linear_477_5856" x1="318.151" y1="289.381" x2="388.622" y2="385.233" gradientUnits="userSpaceOnUse">
<stop stop-color="#FEBBBA"/>
<stop offset="1" stop-color="#FF928E"/>
</linearGradient>
<linearGradient id="paint15_linear_477_5856" x1="307.957" y1="296.875" x2="378.428" y2="392.727" gradientUnits="userSpaceOnUse">
<stop stop-color="#FEBBBA"/>
<stop offset="1" stop-color="#FF928E"/>
</linearGradient>
</defs>
</svg>
