<?xml version="1.0" encoding="UTF-8"?>
<svg id="Layer_1" data-name="Layer 1" xmlns="http://www.w3.org/2000/svg" viewBox="0 0 600 200">
  <defs>
    <style>
      .cls-1 {
        fill: #606161;
        font-family: Bahnschrift-Bold, Bahnschrift;
        font-size: 40.33px;
        font-variation-settings: 'wght' 700, 'wdth' 100;
      }

      .cls-2 {
        fill: #e20c07;
      }

      .cls-3 {
        letter-spacing: 0em;
      }

      .cls-4 {
        letter-spacing: .02em;
      }
    </style>
  </defs>
  <text class="cls-1" transform="translate(433.2 69.11) scale(1.24 1)"><tspan class="cls-4" x="0" y="0">T</tspan><tspan x="20.2" y="0">E</tspan><tspan class="cls-3" x="44.31" y="0">C</tspan><tspan x="68.87" y="0">H</tspan></text>
  <path class="cls-2" d="M455.92,103.44c0,1.98,.8,3.76,2.1,5.06,1.29,1.29,3.08,2.09,5.06,2.09h12.48c4.11,0,8.02,.87,11.54,2.44,9.96,4.43,16.9,14.41,16.9,26,0,15.05-11.69,27.37-26.48,28.37-.65,.05-1.3,.07-1.96,.07h-57.22c.19-1.9,.29-3.83,.29-5.79,0-5.24-.7-10.32-2-15.14h56.48c3.95,0,7.15-3.2,7.15-7.15,0-1.97-.8-3.76-2.09-5.05-1.29-1.3-3.08-2.1-5.06-2.1h-12.92c-4.11,0-8.01-.87-11.54-2.44-9.96-4.43-16.9-14.4-16.9-26,0-15.32,12.11-27.81,27.28-28.41,.38-.02,.77-.03,1.16-.03h89.05v20.93h-86.16c-3.95,0-7.15,3.2-7.15,7.15Z"/>
  <g>
    <rect class="cls-2" x="245.48" y="108.39" width="16.42" height="16.42"/>
    <rect class="cls-2" x="225.1" y="128.41" width="16.42" height="16.42"/>
    <path class="cls-2" d="M225.1,124.8h16.42v-16.42h0c-9.07,0-16.42,7.35-16.42,16.42h0Z"/>
    <path class="cls-2" d="M261.9,128.41h-16.42v16.42h0c9.07,0,16.42-7.35,16.42-16.42h0Z"/>
  </g>
  <path class="cls-2" d="M304.26,40.85v126.61h-29.15V70.33c-34.62,6.07-61.92,33.38-67.99,67.99-.83,4.73-1.26,9.6-1.26,14.57s.43,9.84,1.26,14.57h-29.48c-.61-4.77-.93-9.63-.93-14.57s.32-9.8,.93-14.57c6.53-50.74,46.73-90.93,97.47-97.47,4.77-.61,9.63-.93,14.57-.93s9.8,.32,14.57,.93Z"/>
  <path class="cls-2" d="M136.34,138.61V39.81h29.15V168.09c-4.77,.61-9.63,.93-14.57,.93s-9.8-.32-14.57-.93c-50.74-6.53-90.94-46.73-97.47-97.47-.61-4.77-.93-9.76-.93-14.7s.48-11.41,1.09-16.18c18,0,39.13,0,56.94,0-7.38,10.14-13.05,24.36-13.05,37.87,0,30.97,23.63,56.73,53.42,61"/>
  <g>
    <rect class="cls-2" x="315.48" y="40.11" width="29.19" height="127.16"/>
    <path class="cls-2" d="M408.86,89.86c0-27.68-22.44-50.13-50.13-50.13-2.48,0-4.91,.18-7.29,.53v29.96c2.27-.85,4.72-1.31,7.29-1.31,11.55,0,20.95,9.4,20.95,20.95s-9.4,20.95-20.95,20.95c-2.56,0-5.02-.46-7.29-1.31v31.79c2.27-.85,4.72-1.31,7.29-1.31,11.55,0,20.95,9.4,20.95,20.95,0,2.28-.36,4.47-1.04,6.52h29.8c.28-2.14,.42-4.31,.42-6.52,0-13.89-5.65-26.46-14.77-35.54,9.12-9.08,14.77-21.65,14.77-35.54Z"/>
  </g>
</svg>