<svg width="454" height="65" viewBox="0 0 454 65" fill="none" xmlns="http://www.w3.org/2000/svg">
<path d="M85.3008 18.104H88.9507C88.8774 19.3003 88.5479 20.3623 87.9619 21.29C87.3841 22.2178 86.5744 22.9421 85.5327 23.4629C84.4992 23.9837 83.2541 24.2441 81.7974 24.2441C80.658 24.2441 79.6367 24.0488 78.7334 23.6582C77.8301 23.2594 77.057 22.6898 76.4141 21.9492C75.7793 21.2087 75.2951 20.3135 74.9614 19.2637C74.6278 18.2139 74.4609 17.0379 74.4609 15.7358V14.5029C74.4609 13.2008 74.6318 12.0249 74.9736 10.9751C75.3236 9.91715 75.82 9.0179 76.4629 8.27734C77.1139 7.53678 77.8911 6.96712 78.7944 6.56836C79.6978 6.1696 80.7069 5.97021 81.8218 5.97021C83.3029 5.97021 84.5521 6.23877 85.5693 6.77588C86.5947 7.31299 87.3882 8.05355 87.9497 8.99756C88.5194 9.94157 88.8612 11.0158 88.9751 12.2202H85.313C85.2723 11.5041 85.1299 10.8978 84.8857 10.4014C84.6416 9.89681 84.2713 9.51839 83.7749 9.26611C83.2866 9.0057 82.6356 8.87549 81.8218 8.87549C81.2114 8.87549 80.6784 8.98942 80.2227 9.21729C79.7669 9.44515 79.3844 9.79102 79.0752 10.2549C78.766 10.7188 78.534 11.3047 78.3794 12.0127C78.2329 12.7126 78.1597 13.5345 78.1597 14.4785V15.7358C78.1597 16.6554 78.2288 17.4652 78.3672 18.165C78.5055 18.8568 78.7171 19.4427 79.002 19.9229C79.2949 20.3949 79.6693 20.7529 80.125 20.9971C80.5889 21.2331 81.1463 21.3511 81.7974 21.3511C82.5623 21.3511 83.193 21.229 83.6895 20.9849C84.1859 20.7407 84.5643 20.3786 84.8247 19.8984C85.0933 19.4183 85.252 18.8201 85.3008 18.104ZM103.208 13.4653V16.3218H93.9312V13.4653H103.208ZM95.0176 6.22656V24H91.3555V6.22656H95.0176ZM105.821 6.22656V24H102.171V6.22656H105.821ZM116.453 9.26611L111.619 24H107.725L114.329 6.22656H116.807L116.453 9.26611ZM120.469 24L115.623 9.26611L115.232 6.22656H117.735L124.375 24H120.469ZM120.25 17.3838V20.2524H110.862V17.3838H120.25ZM115.391 1.46582L117.796 5.22559H114.915L111.57 1.46582H115.391ZM140.403 14.6982V15.5405C140.403 16.8914 140.22 18.104 139.854 19.1782C139.488 20.2524 138.971 21.168 138.304 21.9248C137.636 22.6735 136.839 23.2472 135.911 23.646C134.992 24.0448 133.97 24.2441 132.847 24.2441C131.732 24.2441 130.711 24.0448 129.783 23.646C128.864 23.2472 128.066 22.6735 127.391 21.9248C126.715 21.168 126.19 20.2524 125.816 19.1782C125.45 18.104 125.267 16.8914 125.267 15.5405V14.6982C125.267 13.3392 125.45 12.1266 125.816 11.0605C126.182 9.98633 126.699 9.0708 127.366 8.31396C128.042 7.55713 128.839 6.97933 129.759 6.58057C130.687 6.1818 131.708 5.98242 132.823 5.98242C133.946 5.98242 134.967 6.1818 135.887 6.58057C136.814 6.97933 137.612 7.55713 138.279 8.31396C138.955 9.0708 139.476 9.98633 139.842 11.0605C140.216 12.1266 140.403 13.3392 140.403 14.6982ZM136.705 15.5405V14.6738C136.705 13.7298 136.619 12.8997 136.448 12.1836C136.277 11.4674 136.025 10.8652 135.691 10.377C135.358 9.88867 134.951 9.52246 134.471 9.27832C133.991 9.02604 133.441 8.8999 132.823 8.8999C132.204 8.8999 131.655 9.02604 131.175 9.27832C130.703 9.52246 130.3 9.88867 129.966 10.377C129.641 10.8652 129.393 11.4674 129.222 12.1836C129.051 12.8997 128.965 13.7298 128.965 14.6738V15.5405C128.965 16.4764 129.051 17.3065 129.222 18.0308C129.393 18.7469 129.645 19.3532 129.979 19.8496C130.312 20.3379 130.719 20.7082 131.199 20.9604C131.679 21.2127 132.229 21.3389 132.847 21.3389C133.466 21.3389 134.015 21.2127 134.495 20.9604C134.975 20.7082 135.378 20.3379 135.704 19.8496C136.029 19.3532 136.277 18.7469 136.448 18.0308C136.619 17.3065 136.705 16.4764 136.705 15.5405ZM150.938 6.22656H154.039L158.604 19.2759L163.169 6.22656H166.27L159.849 24H157.359L150.938 6.22656ZM149.266 6.22656H152.354L152.916 18.9463V24H149.266V6.22656ZM164.854 6.22656H167.955V24H164.292V18.9463L164.854 6.22656ZM187.022 5.23779H189.341C189.341 6.43408 189.187 7.4554 188.877 8.30176C188.568 9.13997 188.035 9.78288 187.278 10.2305C186.53 10.6699 185.492 10.8896 184.166 10.8896V8.99756C185.028 8.99756 185.663 8.85107 186.07 8.55811C186.477 8.257 186.737 7.82568 186.851 7.26416C186.965 6.70264 187.022 6.02718 187.022 5.23779ZM180.979 6.22656H184.629V17.9697C184.629 19.3369 184.336 20.4884 183.75 21.4243C183.173 22.3602 182.371 23.0641 181.346 23.5361C180.328 24.0081 179.157 24.2441 177.83 24.2441C176.504 24.2441 175.324 24.0081 174.29 23.5361C173.265 23.0641 172.459 22.3602 171.873 21.4243C171.295 20.4884 171.006 19.3369 171.006 17.9697V6.22656H174.668V17.9697C174.668 18.7673 174.795 19.4183 175.047 19.9229C175.299 20.4274 175.661 20.7977 176.133 21.0337C176.613 21.2697 177.179 21.3877 177.83 21.3877C178.497 21.3877 179.063 21.2697 179.527 21.0337C179.999 20.7977 180.357 20.4274 180.601 19.9229C180.853 19.4183 180.979 18.7673 180.979 17.9697V6.22656ZM177.647 1.31934L180.052 5.0791H177.171L173.826 1.31934H177.647ZM203.453 6.22656V24H199.791L192.649 12.0859V24H188.987V6.22656H192.649L199.803 18.1528V6.22656H203.453ZM220.726 14.7104V21.7539C220.449 22.0876 220.022 22.4497 219.444 22.8403C218.866 23.2228 218.121 23.5524 217.21 23.8291C216.299 24.1058 215.196 24.2441 213.902 24.2441C212.754 24.2441 211.709 24.057 210.765 23.6826C209.821 23.3001 209.007 22.7427 208.323 22.0103C207.648 21.2778 207.127 20.3826 206.761 19.3247C206.395 18.2586 206.211 17.042 206.211 15.6748V14.564C206.211 13.1968 206.386 11.9801 206.736 10.9141C207.094 9.84798 207.603 8.94873 208.262 8.21631C208.921 7.48389 209.707 6.92643 210.618 6.54395C211.53 6.16146 212.543 5.97021 213.658 5.97021C215.204 5.97021 216.473 6.22249 217.466 6.72705C218.459 7.22347 219.216 7.9152 219.737 8.80225C220.266 9.68115 220.591 10.6903 220.713 11.8296H217.161C217.072 11.2274 216.901 10.7025 216.648 10.2549C216.396 9.80729 216.034 9.45736 215.562 9.20508C215.098 8.9528 214.496 8.82666 213.755 8.82666C213.145 8.82666 212.6 8.9528 212.12 9.20508C211.648 9.44922 211.249 9.81136 210.923 10.2915C210.598 10.7716 210.35 11.3657 210.179 12.0737C210.008 12.7817 209.922 13.6037 209.922 14.5396V15.6748C209.922 16.6025 210.012 17.4245 210.191 18.1406C210.37 18.8486 210.634 19.4468 210.984 19.9351C211.342 20.4152 211.782 20.7773 212.303 21.0215C212.824 21.2656 213.43 21.3877 214.122 21.3877C214.699 21.3877 215.18 21.3389 215.562 21.2412C215.953 21.1436 216.266 21.0256 216.502 20.8872C216.746 20.7407 216.933 20.6024 217.063 20.4722V17.3228H213.719V14.7104H220.726ZM236.863 16.1997H232.298L232.273 13.6851H236.106C236.782 13.6851 237.335 13.5996 237.767 13.4287C238.198 13.2497 238.519 12.9933 238.731 12.6597C238.951 12.3179 239.061 11.9028 239.061 11.4146C239.061 10.8612 238.955 10.4136 238.743 10.0718C238.54 9.72998 238.218 9.48177 237.779 9.32715C237.347 9.17253 236.79 9.09521 236.106 9.09521H233.567V24H229.905V6.22656H236.106C237.14 6.22656 238.064 6.32422 238.877 6.51953C239.699 6.71484 240.395 7.01188 240.965 7.41064C241.535 7.80941 241.97 8.31396 242.271 8.92432C242.572 9.52653 242.723 10.2427 242.723 11.0728C242.723 11.8052 242.556 12.4806 242.222 13.0991C241.897 13.7176 241.38 14.2222 240.672 14.6128C239.972 15.0034 239.056 15.2191 237.925 15.2598L236.863 16.1997ZM236.705 24H231.297L232.725 21.1436H236.705C237.347 21.1436 237.872 21.0418 238.279 20.8384C238.686 20.6268 238.987 20.342 239.183 19.9839C239.378 19.6258 239.476 19.2148 239.476 18.751C239.476 18.2301 239.386 17.7785 239.207 17.396C239.036 17.0135 238.759 16.7205 238.377 16.5171C237.994 16.3055 237.49 16.1997 236.863 16.1997H233.335L233.36 13.6851H237.754L238.597 14.6738C239.679 14.6576 240.55 14.8488 241.209 15.2476C241.876 15.6382 242.361 16.1468 242.662 16.7734C242.971 17.4001 243.125 18.0715 243.125 18.7876C243.125 19.9269 242.877 20.8872 242.381 21.6685C241.884 22.4416 241.156 23.0234 240.196 23.4141C239.244 23.8047 238.08 24 236.705 24ZM253.099 9.26611L248.265 24H244.371L250.975 6.22656H253.453L253.099 9.26611ZM257.115 24L252.269 9.26611L251.878 6.22656H254.38L261.021 24H257.115ZM256.895 17.3838V20.2524H247.508V17.3838H256.895ZM250.804 26.7954C250.804 26.3234 250.983 25.9287 251.341 25.6113C251.699 25.3021 252.179 25.1475 252.781 25.1475C253.375 25.1475 253.851 25.3021 254.209 25.6113C254.576 25.9287 254.759 26.3234 254.759 26.7954C254.759 27.2593 254.576 27.6499 254.209 27.9673C253.851 28.2847 253.375 28.4434 252.781 28.4434C252.179 28.4434 251.699 28.2847 251.341 27.9673C250.983 27.6499 250.804 27.2593 250.804 26.7954ZM277.134 6.22656V24H273.472L266.331 12.0859V24H262.669V6.22656H266.331L273.484 18.1528V6.22656H277.134ZM292.369 24H288.499L288.523 21.1436H292.369C293.329 21.1436 294.139 20.9279 294.798 20.4966C295.457 20.0571 295.953 19.4183 296.287 18.5801C296.629 17.7419 296.8 16.7287 296.8 15.5405V14.6738C296.8 13.7624 296.702 12.9608 296.507 12.269C296.32 11.5773 296.039 10.9954 295.665 10.5234C295.29 10.0514 294.83 9.69743 294.285 9.46143C293.74 9.21729 293.113 9.09521 292.405 9.09521H288.426V6.22656H292.405C293.593 6.22656 294.68 6.43001 295.665 6.83691C296.657 7.23568 297.516 7.80941 298.24 8.55811C298.965 9.3068 299.522 10.202 299.913 11.2437C300.311 12.2772 300.511 13.4287 300.511 14.6982V15.5405C300.511 16.8019 300.311 17.9535 299.913 18.9951C299.522 20.0368 298.965 20.932 298.24 21.6807C297.524 22.4212 296.666 22.995 295.665 23.4019C294.672 23.8006 293.573 24 292.369 24ZM290.574 6.22656V24H286.912V6.22656H290.574ZM293.65 13.9536V16.1265H285.093V13.9536H293.65ZM315.098 21.1436V24H305.638V21.1436H315.098ZM306.834 6.22656V24H303.172V6.22656H306.834ZM313.865 13.4653V16.2485H305.638V13.4653H313.865ZM315.086 6.22656V9.09521H305.638V6.22656H315.086ZM304.893 5.20117L308.348 2.36914H310.301L313.768 5.20117H311.18L309.324 3.62646L307.469 5.20117H304.893ZM312.876 3.52881L314.878 0.245117H317.649L314.878 3.52881H312.876ZM331.7 6.22656V24H328.038L320.896 12.0859V24H317.234V6.22656H320.896L328.05 18.1528V6.22656H331.7ZM347.52 20.2891L351.707 6.22656H355.784L349.595 24H346.91L347.52 20.2891ZM343.663 6.22656L347.837 20.2891L348.472 24H345.762L339.61 6.22656H343.663ZM371.275 4.85938H373.631C373.631 5.9987 373.468 6.96712 373.143 7.76465C372.825 8.56217 372.333 9.17253 371.666 9.5957C370.998 10.0189 370.14 10.2305 369.09 10.2305V8.33838C369.668 8.33838 370.115 8.20003 370.433 7.92334C370.75 7.64665 370.97 7.24788 371.092 6.72705C371.214 6.20622 371.275 5.58366 371.275 4.85938ZM371.824 14.6982V15.5405C371.824 16.8914 371.641 18.104 371.275 19.1782C370.917 20.2524 370.4 21.168 369.725 21.9248C369.057 22.6735 368.26 23.2472 367.332 23.646C366.412 24.0448 365.395 24.2441 364.28 24.2441C363.393 24.2441 362.559 24.118 361.778 23.8657C361.005 23.6053 360.305 23.231 359.678 22.7427C359.06 22.2463 358.527 21.644 358.079 20.936C357.632 20.228 357.286 19.4224 357.042 18.519C356.806 17.6157 356.688 16.6229 356.688 15.5405V14.6982C356.688 13.3392 356.871 12.1266 357.237 11.0605C357.611 9.98633 358.132 9.0708 358.799 8.31396C359.475 7.55713 360.272 6.97933 361.192 6.58057C362.12 6.1818 363.141 5.98242 364.256 5.98242C365.143 5.98242 365.973 6.11263 366.746 6.37305C367.527 6.62533 368.227 6.99967 368.846 7.49609C369.472 7.98438 370.005 8.58252 370.445 9.29053C370.892 9.99854 371.234 10.8042 371.47 11.7075C371.706 12.6108 371.824 13.6077 371.824 14.6982ZM368.125 15.5405V14.6738C368.125 13.9251 368.069 13.2456 367.955 12.6353C367.849 12.0249 367.686 11.4878 367.466 11.0239C367.255 10.5601 366.99 10.1735 366.673 9.86426C366.364 9.54688 366.006 9.3068 365.599 9.14404C365.2 8.98128 364.752 8.8999 364.256 8.8999C363.637 8.8999 363.088 9.02604 362.608 9.27832C362.128 9.52246 361.721 9.88867 361.387 10.377C361.062 10.8652 360.813 11.4674 360.643 12.1836C360.472 12.8997 360.386 13.7298 360.386 14.6738V15.5405C360.386 16.2892 360.439 16.9688 360.545 17.5791C360.659 18.1895 360.822 18.7306 361.033 19.2026C361.253 19.6665 361.517 20.0571 361.827 20.3745C362.144 20.6919 362.506 20.932 362.913 21.0947C363.328 21.2575 363.784 21.3389 364.28 21.3389C364.899 21.3389 365.444 21.2127 365.916 20.9604C366.396 20.7082 366.799 20.3379 367.125 19.8496C367.458 19.3532 367.706 18.7469 367.869 18.0308C368.04 17.3065 368.125 16.4764 368.125 15.5405ZM362.645 5.18896L365.037 1.4292H368.858L365.501 5.18896H362.645ZM378.746 6.22656V24H375.096V6.22656H378.746ZM12.7422 49.4653V52.3218H3.46484V49.4653H12.7422ZM4.55127 42.2266V60H0.88916V42.2266H4.55127ZM15.3545 42.2266V60H11.7046V42.2266H15.3545ZM33.1401 50.6982V51.5405C33.1401 52.8914 32.957 54.104 32.5908 55.1782C32.2246 56.2524 31.7078 57.168 31.0405 57.9248C30.3732 58.6735 29.5757 59.2472 28.6479 59.646C27.7284 60.0448 26.707 60.2441 25.584 60.2441C24.4691 60.2441 23.4478 60.0448 22.52 59.646C21.6004 59.2472 20.8029 58.6735 20.1274 57.9248C19.452 57.168 18.9271 56.2524 18.5527 55.1782C18.1865 54.104 18.0034 52.8914 18.0034 51.5405V50.6982C18.0034 49.3392 18.1865 48.1266 18.5527 47.0605C18.9189 45.9863 19.4357 45.0708 20.103 44.314C20.7785 43.5571 21.576 42.9793 22.4956 42.5806C23.4233 42.1818 24.4447 41.9824 25.5596 41.9824C26.6826 41.9824 27.7039 42.1818 28.6235 42.5806C29.5513 42.9793 30.3488 43.5571 31.0161 44.314C31.6916 45.0708 32.2124 45.9863 32.5786 47.0605C32.953 48.1266 33.1401 49.3392 33.1401 50.6982ZM29.4414 51.5405V50.6738C29.4414 49.7298 29.356 48.8997 29.1851 48.1836C29.0142 47.4674 28.7619 46.8652 28.4282 46.377C28.0946 45.8887 27.6877 45.5225 27.2075 45.2783C26.7274 45.026 26.1781 44.8999 25.5596 44.8999C24.9411 44.8999 24.3918 45.026 23.9116 45.2783C23.4396 45.5225 23.0368 45.8887 22.7031 46.377C22.3776 46.8652 22.1294 47.4674 21.9585 48.1836C21.7876 48.8997 21.7021 49.7298 21.7021 50.6738V51.5405C21.7021 52.4764 21.7876 53.3065 21.9585 54.0308C22.1294 54.7469 22.3817 55.3532 22.7153 55.8496C23.049 56.3379 23.4559 56.7082 23.936 56.9604C24.4162 57.2127 24.9655 57.3389 25.584 57.3389C26.2025 57.3389 26.7518 57.2127 27.2319 56.9604C27.7121 56.7082 28.1149 56.3379 28.4404 55.8496C28.766 55.3532 29.0142 54.7469 29.1851 54.0308C29.356 53.3065 29.4414 52.4764 29.4414 51.5405ZM26.5728 37.4536L30.2593 40.8472V40.9937H27.4639L25.5474 39.2114L23.6553 40.9937H20.9087V40.8105L24.5342 37.4536H26.5728ZM23.6431 62.8687C23.6431 62.3966 23.8221 62.002 24.1802 61.6846C24.5382 61.3753 25.0184 61.2207 25.6206 61.2207C26.2147 61.2207 26.6908 61.3753 27.0488 61.6846C27.415 62.002 27.5981 62.3966 27.5981 62.8687C27.5981 63.3325 27.415 63.7231 27.0488 64.0405C26.6908 64.3579 26.2147 64.5166 25.6206 64.5166C25.0184 64.5166 24.5382 64.3579 24.1802 64.0405C23.8221 63.7231 23.6431 63.3325 23.6431 62.8687ZM39.6709 42.2266V60H36.021V42.2266H39.6709ZM50.999 42.2266H54.0996L58.665 55.2759L63.2305 42.2266H66.3311L59.9102 60H57.4199L50.999 42.2266ZM49.3267 42.2266H52.415L52.9766 54.9463V60H49.3267V42.2266ZM64.915 42.2266H68.0156V60H64.3535V54.9463L64.915 42.2266ZM85.8257 50.6982V51.5405C85.8257 52.8914 85.6426 54.104 85.2764 55.1782C84.9102 56.2524 84.3934 57.168 83.7261 57.9248C83.0588 58.6735 82.2612 59.2472 81.3335 59.646C80.4139 60.0448 79.3926 60.2441 78.2695 60.2441C77.1546 60.2441 76.1333 60.0448 75.2056 59.646C74.286 59.2472 73.4884 58.6735 72.813 57.9248C72.1375 57.168 71.6126 56.2524 71.2383 55.1782C70.8721 54.104 70.689 52.8914 70.689 51.5405V50.6982C70.689 49.3392 70.8721 48.1266 71.2383 47.0605C71.6045 45.9863 72.1213 45.0708 72.7886 44.314C73.464 43.5571 74.2616 42.9793 75.1812 42.5806C76.1089 42.1818 77.1302 41.9824 78.2451 41.9824C79.3682 41.9824 80.3895 42.1818 81.3091 42.5806C82.2368 42.9793 83.0343 43.5571 83.7017 44.314C84.3771 45.0708 84.8979 45.9863 85.2642 47.0605C85.6385 48.1266 85.8257 49.3392 85.8257 50.6982ZM82.127 51.5405V50.6738C82.127 49.7298 82.0415 48.8997 81.8706 48.1836C81.6997 47.4674 81.4474 46.8652 81.1138 46.377C80.7801 45.8887 80.3732 45.5225 79.8931 45.2783C79.4129 45.026 78.8636 44.8999 78.2451 44.8999C77.6266 44.8999 77.0773 45.026 76.5972 45.2783C76.1252 45.5225 75.7223 45.8887 75.3887 46.377C75.0632 46.8652 74.8149 47.4674 74.644 48.1836C74.4731 48.8997 74.3877 49.7298 74.3877 50.6738V51.5405C74.3877 52.4764 74.4731 53.3065 74.644 54.0308C74.8149 54.7469 75.0672 55.3532 75.4009 55.8496C75.7345 56.3379 76.1414 56.7082 76.6216 56.9604C77.1017 57.2127 77.651 57.3389 78.2695 57.3389C78.888 57.3389 79.4373 57.2127 79.9175 56.9604C80.3976 56.7082 80.8005 56.3379 81.126 55.8496C81.4515 55.3532 81.6997 54.7469 81.8706 54.0308C82.0415 53.3065 82.127 52.4764 82.127 51.5405ZM79.2583 37.4536L82.9448 40.8472V40.9937H80.1494L78.2329 39.2114L76.3408 40.9937H73.5942V40.8105L77.2197 37.4536H79.2583ZM92.3564 42.2266V60H88.7065V42.2266H92.3564ZM116.099 50.7104V57.7539C115.822 58.0876 115.395 58.4497 114.817 58.8403C114.24 59.2228 113.495 59.5524 112.583 59.8291C111.672 60.1058 110.569 60.2441 109.275 60.2441C108.128 60.2441 107.082 60.057 106.138 59.6826C105.194 59.3001 104.38 58.7427 103.697 58.0103C103.021 57.2778 102.5 56.3826 102.134 55.3247C101.768 54.2586 101.585 53.042 101.585 51.6748V50.564C101.585 49.1968 101.76 47.9801 102.11 46.9141C102.468 45.848 102.977 44.9487 103.636 44.2163C104.295 43.4839 105.08 42.9264 105.992 42.5439C106.903 42.1615 107.916 41.9702 109.031 41.9702C110.577 41.9702 111.847 42.2225 112.84 42.7271C113.833 43.2235 114.59 43.9152 115.11 44.8022C115.639 45.6812 115.965 46.6903 116.087 47.8296H112.535C112.445 47.2274 112.274 46.7025 112.022 46.2549C111.77 45.8073 111.408 45.4574 110.936 45.2051C110.472 44.9528 109.869 44.8267 109.129 44.8267C108.519 44.8267 107.973 44.9528 107.493 45.2051C107.021 45.4492 106.622 45.8114 106.297 46.2915C105.971 46.7716 105.723 47.3657 105.552 48.0737C105.381 48.7817 105.296 49.6037 105.296 50.5396V51.6748C105.296 52.6025 105.385 53.4245 105.564 54.1406C105.743 54.8486 106.008 55.4468 106.358 55.9351C106.716 56.4152 107.155 56.7773 107.676 57.0215C108.197 57.2656 108.803 57.3877 109.495 57.3877C110.073 57.3877 110.553 57.3389 110.936 57.2412C111.326 57.1436 111.639 57.0256 111.875 56.8872C112.12 56.7407 112.307 56.6024 112.437 56.4722V53.3228H109.092V50.7104H116.099ZM122.947 42.2266V60H119.297V42.2266H122.947ZM140.379 40.8594H142.735C142.735 41.9987 142.572 42.9671 142.247 43.7646C141.929 44.5622 141.437 45.1725 140.77 45.5957C140.102 46.0189 139.244 46.2305 138.194 46.2305V44.3384C138.772 44.3384 139.219 44.2 139.537 43.9233C139.854 43.6466 140.074 43.2479 140.196 42.7271C140.318 42.2062 140.379 41.5837 140.379 40.8594ZM140.928 50.6982V51.5405C140.928 52.8914 140.745 54.104 140.379 55.1782C140.021 56.2524 139.504 57.168 138.829 57.9248C138.161 58.6735 137.364 59.2472 136.436 59.646C135.516 60.0448 134.499 60.2441 133.384 60.2441C132.497 60.2441 131.663 60.118 130.882 59.8657C130.109 59.6053 129.409 59.231 128.782 58.7427C128.164 58.2463 127.631 57.644 127.183 56.936C126.736 56.228 126.39 55.4224 126.146 54.519C125.91 53.6157 125.792 52.6229 125.792 51.5405V50.6982C125.792 49.3392 125.975 48.1266 126.341 47.0605C126.715 45.9863 127.236 45.0708 127.903 44.314C128.579 43.5571 129.376 42.9793 130.296 42.5806C131.224 42.1818 132.245 41.9824 133.36 41.9824C134.247 41.9824 135.077 42.1126 135.85 42.373C136.631 42.6253 137.331 42.9997 137.95 43.4961C138.576 43.9844 139.109 44.5825 139.549 45.2905C139.996 45.9985 140.338 46.8042 140.574 47.7075C140.81 48.6108 140.928 49.6077 140.928 50.6982ZM137.229 51.5405V50.6738C137.229 49.9251 137.173 49.2456 137.059 48.6353C136.953 48.0249 136.79 47.4878 136.57 47.0239C136.359 46.5601 136.094 46.1735 135.777 45.8643C135.468 45.5469 135.11 45.3068 134.703 45.144C134.304 44.9813 133.856 44.8999 133.36 44.8999C132.741 44.8999 132.192 45.026 131.712 45.2783C131.232 45.5225 130.825 45.8887 130.491 46.377C130.166 46.8652 129.917 47.4674 129.747 48.1836C129.576 48.8997 129.49 49.7298 129.49 50.6738V51.5405C129.49 52.2892 129.543 52.9688 129.649 53.5791C129.763 54.1895 129.926 54.7306 130.137 55.2026C130.357 55.6665 130.621 56.0571 130.931 56.3745C131.248 56.6919 131.61 56.932 132.017 57.0947C132.432 57.2575 132.888 57.3389 133.384 57.3389C134.003 57.3389 134.548 57.2127 135.02 56.9604C135.5 56.7082 135.903 56.3379 136.229 55.8496C136.562 55.3532 136.81 54.7469 136.973 54.0308C137.144 53.3065 137.229 52.4764 137.229 51.5405ZM131.749 41.189L134.141 37.4292H137.962L134.605 41.189H131.749ZM147.85 42.2266V60H144.2V42.2266H147.85ZM164.463 52.1997H159.898L159.874 49.6851H163.707C164.382 49.6851 164.935 49.5996 165.367 49.4287C165.798 49.2497 166.119 48.9933 166.331 48.6597C166.551 48.3179 166.661 47.9028 166.661 47.4146C166.661 46.8612 166.555 46.4136 166.343 46.0718C166.14 45.73 165.818 45.4818 165.379 45.3271C164.948 45.1725 164.39 45.0952 163.707 45.0952H161.167V60H157.505V42.2266H163.707C164.74 42.2266 165.664 42.3242 166.478 42.5195C167.299 42.7148 167.995 43.0119 168.565 43.4106C169.135 43.8094 169.57 44.314 169.871 44.9243C170.172 45.5265 170.323 46.2427 170.323 47.0728C170.323 47.8052 170.156 48.4806 169.822 49.0991C169.497 49.7176 168.98 50.2222 168.272 50.6128C167.572 51.0034 166.657 51.2191 165.525 51.2598L164.463 52.1997ZM164.305 60H158.897L160.325 57.1436H164.305C164.948 57.1436 165.472 57.0418 165.879 56.8384C166.286 56.6268 166.587 56.342 166.783 55.9839C166.978 55.6258 167.076 55.2148 167.076 54.751C167.076 54.2301 166.986 53.7785 166.807 53.396C166.636 53.0135 166.36 52.7205 165.977 52.5171C165.595 52.3055 165.09 52.1997 164.463 52.1997H160.936L160.96 49.6851H165.354L166.197 50.6738C167.279 50.6576 168.15 50.8488 168.809 51.2476C169.476 51.6382 169.961 52.1468 170.262 52.7734C170.571 53.4001 170.726 54.0715 170.726 54.7876C170.726 55.9269 170.477 56.8872 169.981 57.6685C169.485 58.4416 168.756 59.0234 167.796 59.4141C166.844 59.8047 165.68 60 164.305 60ZM180.699 45.2661L175.865 60H171.971L178.575 42.2266H181.053L180.699 45.2661ZM184.715 60L179.869 45.2661L179.478 42.2266H181.98L188.621 60H184.715ZM184.495 53.3838V56.2524H175.108V53.3838H184.495ZM175.853 41.25L179.307 38.418H181.26L184.727 41.25H182.139L180.284 39.6753L178.428 41.25H175.853ZM183.836 39.5776L185.838 36.2939H188.609L185.838 39.5776H183.836ZM196.702 42.2266V60H193.052V42.2266H196.702ZM202.171 42.2266V45.0952H187.669V42.2266H202.171ZM215.647 60H211.778L211.802 57.1436H215.647C216.608 57.1436 217.417 56.9279 218.077 56.4966C218.736 56.0571 219.232 55.4183 219.566 54.5801C219.908 53.7419 220.079 52.7287 220.079 51.5405V50.6738C220.079 49.7624 219.981 48.9608 219.786 48.269C219.598 47.5773 219.318 46.9954 218.943 46.5234C218.569 46.0514 218.109 45.6974 217.564 45.4614C217.019 45.2173 216.392 45.0952 215.684 45.0952H211.705V42.2266H215.684C216.872 42.2266 217.959 42.43 218.943 42.8369C219.936 43.2357 220.795 43.8094 221.519 44.5581C222.243 45.3068 222.801 46.202 223.191 47.2437C223.59 48.2772 223.79 49.4287 223.79 50.6982V51.5405C223.79 52.8019 223.59 53.9535 223.191 54.9951C222.801 56.0368 222.243 56.932 221.519 57.6807C220.803 58.4212 219.944 58.995 218.943 59.4019C217.951 59.8006 216.852 60 215.647 60ZM213.853 42.2266V60H210.191V42.2266H213.853ZM216.929 49.9536V52.1265H208.372V49.9536H216.929ZM241.05 50.6982V51.5405C241.05 52.8914 240.867 54.104 240.501 55.1782C240.135 56.2524 239.618 57.168 238.951 57.9248C238.283 58.6735 237.486 59.2472 236.558 59.646C235.639 60.0448 234.617 60.2441 233.494 60.2441C232.379 60.2441 231.358 60.0448 230.43 59.646C229.511 59.2472 228.713 58.6735 228.038 57.9248C227.362 57.168 226.837 56.2524 226.463 55.1782C226.097 54.104 225.914 52.8914 225.914 51.5405V50.6982C225.914 49.3392 226.097 48.1266 226.463 47.0605C226.829 45.9863 227.346 45.0708 228.013 44.314C228.689 43.5571 229.486 42.9793 230.406 42.5806C231.333 42.1818 232.355 41.9824 233.47 41.9824C234.593 41.9824 235.614 42.1818 236.534 42.5806C237.461 42.9793 238.259 43.5571 238.926 44.314C239.602 45.0708 240.123 45.9863 240.489 47.0605C240.863 48.1266 241.05 49.3392 241.05 50.6982ZM237.352 51.5405V50.6738C237.352 49.7298 237.266 48.8997 237.095 48.1836C236.924 47.4674 236.672 46.8652 236.338 46.377C236.005 45.8887 235.598 45.5225 235.118 45.2783C234.638 45.026 234.088 44.8999 233.47 44.8999C232.851 44.8999 232.302 45.026 231.822 45.2783C231.35 45.5225 230.947 45.8887 230.613 46.377C230.288 46.8652 230.04 47.4674 229.869 48.1836C229.698 48.8997 229.612 49.7298 229.612 50.6738V51.5405C229.612 52.4764 229.698 53.3065 229.869 54.0308C230.04 54.7469 230.292 55.3532 230.625 55.8496C230.959 56.3379 231.366 56.7082 231.846 56.9604C232.326 57.2127 232.876 57.3389 233.494 57.3389C234.113 57.3389 234.662 57.2127 235.142 56.9604C235.622 56.7082 236.025 56.3379 236.351 55.8496C236.676 55.3532 236.924 54.7469 237.095 54.0308C237.266 53.3065 237.352 52.4764 237.352 51.5405ZM234.483 37.4536L238.169 40.8472V40.9937H235.374L233.458 39.2114L231.565 40.9937H228.819V40.8105L232.444 37.4536H234.483ZM231.553 62.8687C231.553 62.3966 231.732 62.002 232.09 61.6846C232.448 61.3753 232.929 61.2207 233.531 61.2207C234.125 61.2207 234.601 61.3753 234.959 61.6846C235.325 62.002 235.508 62.3966 235.508 62.8687C235.508 63.3325 235.325 63.7231 234.959 64.0405C234.601 64.3579 234.125 64.5166 233.531 64.5166C232.929 64.5166 232.448 64.3579 232.09 64.0405C231.732 63.7231 231.553 63.3325 231.553 62.8687ZM258.152 42.2266V60H254.49L247.349 48.0859V60H243.687V42.2266H247.349L254.502 54.1528V42.2266H258.152ZM275.425 50.7104V57.7539C275.149 58.0876 274.721 58.4497 274.144 58.8403C273.566 59.2228 272.821 59.5524 271.91 59.8291C270.998 60.1058 269.896 60.2441 268.602 60.2441C267.454 60.2441 266.408 60.057 265.464 59.6826C264.52 59.3001 263.707 58.7427 263.023 58.0103C262.347 57.2778 261.827 56.3826 261.46 55.3247C261.094 54.2586 260.911 53.042 260.911 51.6748V50.564C260.911 49.1968 261.086 47.9801 261.436 46.9141C261.794 45.848 262.303 44.9487 262.962 44.2163C263.621 43.4839 264.406 42.9264 265.318 42.5439C266.229 42.1615 267.243 41.9702 268.357 41.9702C269.904 41.9702 271.173 42.2225 272.166 42.7271C273.159 43.2235 273.916 43.9152 274.437 44.8022C274.965 45.6812 275.291 46.6903 275.413 47.8296H271.861C271.771 47.2274 271.6 46.7025 271.348 46.2549C271.096 45.8073 270.734 45.4574 270.262 45.2051C269.798 44.9528 269.196 44.8267 268.455 44.8267C267.845 44.8267 267.299 44.9528 266.819 45.2051C266.347 45.4492 265.949 45.8114 265.623 46.2915C265.298 46.7716 265.049 47.3657 264.878 48.0737C264.708 48.7817 264.622 49.6037 264.622 50.5396V51.6748C264.622 52.6025 264.712 53.4245 264.891 54.1406C265.07 54.8486 265.334 55.4468 265.684 55.9351C266.042 56.4152 266.482 56.7773 267.002 57.0215C267.523 57.2656 268.13 57.3877 268.821 57.3877C269.399 57.3877 269.879 57.3389 270.262 57.2412C270.652 57.1436 270.966 57.0256 271.202 56.8872C271.446 56.7407 271.633 56.6024 271.763 56.4722V53.3228H268.418V50.7104H275.425ZM293.858 55.3491C293.858 55.0317 293.809 54.7469 293.711 54.4946C293.622 54.2342 293.451 53.9982 293.199 53.7866C292.946 53.5669 292.592 53.3512 292.137 53.1396C291.681 52.9281 291.091 52.7083 290.367 52.4805C289.561 52.2201 288.796 51.9271 288.072 51.6016C287.356 51.276 286.721 50.8976 286.167 50.4663C285.622 50.0269 285.191 49.5182 284.874 48.9404C284.564 48.3626 284.41 47.6912 284.41 46.9263C284.41 46.1857 284.572 45.5143 284.898 44.9121C285.223 44.3018 285.679 43.7809 286.265 43.3496C286.851 42.9102 287.543 42.5724 288.34 42.3364C289.146 42.1004 290.029 41.9824 290.989 41.9824C292.299 41.9824 293.443 42.2184 294.419 42.6904C295.396 43.1624 296.153 43.8094 296.69 44.6313C297.235 45.4533 297.508 46.3932 297.508 47.4512H293.87C293.87 46.9303 293.76 46.4746 293.541 46.084C293.329 45.6852 293.003 45.3719 292.564 45.144C292.133 44.9162 291.587 44.8022 290.928 44.8022C290.293 44.8022 289.764 44.8999 289.341 45.0952C288.918 45.2824 288.601 45.5387 288.389 45.8643C288.178 46.1816 288.072 46.5397 288.072 46.9385C288.072 47.2396 288.145 47.5122 288.292 47.7563C288.446 48.0005 288.674 48.2284 288.975 48.4399C289.276 48.6515 289.646 48.8509 290.086 49.0381C290.525 49.2253 291.034 49.4084 291.612 49.5874C292.58 49.8804 293.431 50.21 294.163 50.5762C294.904 50.9424 295.522 51.3534 296.019 51.8091C296.515 52.2648 296.889 52.7816 297.142 53.3594C297.394 53.9372 297.52 54.5923 297.52 55.3247C297.52 56.0978 297.369 56.7896 297.068 57.3999C296.767 58.0103 296.332 58.527 295.762 58.9502C295.193 59.3734 294.513 59.6948 293.724 59.9146C292.934 60.1343 292.051 60.2441 291.075 60.2441C290.196 60.2441 289.329 60.1302 288.475 59.9023C287.62 59.6663 286.843 59.3123 286.143 58.8403C285.451 58.3683 284.898 57.7661 284.483 57.0337C284.068 56.3013 283.86 55.4346 283.86 54.4336H287.535C287.535 54.987 287.62 55.4549 287.791 55.8374C287.962 56.2199 288.202 56.5291 288.511 56.7651C288.829 57.0011 289.203 57.172 289.634 57.2778C290.074 57.3836 290.554 57.4365 291.075 57.4365C291.709 57.4365 292.23 57.347 292.637 57.168C293.052 56.9889 293.357 56.7407 293.553 56.4233C293.756 56.106 293.858 55.7479 293.858 55.3491ZM307.237 45.2661L302.403 60H298.509L305.113 42.2266H307.591L307.237 45.2661ZM311.253 60L306.407 45.2661L306.016 42.2266H308.519L315.159 60H311.253ZM311.033 53.3838V56.2524H301.646V53.3838H311.033ZM308.165 40.7861H305.516L305.32 39.1504C305.727 39.126 306.053 39.0853 306.297 39.0283C306.549 38.9632 306.732 38.8737 306.846 38.7598C306.968 38.6458 307.029 38.5034 307.029 38.3325C307.029 38.1616 306.985 38.0233 306.895 37.9175C306.814 37.8035 306.692 37.7181 306.529 37.6611C306.366 37.596 306.179 37.5513 305.967 37.5269C305.756 37.4943 305.524 37.478 305.271 37.478L305.357 35.8667C306.114 35.8667 306.781 35.9196 307.359 36.0254C307.945 36.1312 308.433 36.2899 308.824 36.5015C309.214 36.7049 309.507 36.9531 309.703 37.2461C309.906 37.5391 310.008 37.8687 310.008 38.2349C310.008 38.7964 309.817 39.2155 309.434 39.4922C309.052 39.7607 308.628 39.9276 308.165 39.9927V40.7861ZM331.272 42.2266V60H327.61L320.469 48.0859V60H316.807V42.2266H320.469L327.623 54.1528V42.2266H331.272ZM347.093 56.2891L351.28 42.2266H355.357L349.168 60H346.482L347.093 56.2891ZM343.235 42.2266L347.41 56.2891L348.045 60H345.335L339.183 42.2266H343.235ZM360.911 42.2266V60H357.261V42.2266H360.911ZM376.268 57.1436V60H366.807V57.1436H376.268ZM368.003 42.2266V60H364.341V42.2266H368.003ZM375.035 49.4653V52.2485H366.807V49.4653H375.035ZM376.255 42.2266V45.0952H366.807V42.2266H376.255ZM371.531 37.417L375.218 40.8105V40.957H372.422L370.506 39.1748L368.614 40.957H365.867V40.7739L369.493 37.417H371.531ZM368.565 62.7466C368.565 62.2746 368.744 61.8799 369.102 61.5625C369.46 61.2533 369.94 61.0986 370.542 61.0986C371.137 61.0986 371.613 61.2533 371.971 61.5625C372.337 61.8799 372.52 62.2746 372.52 62.7466C372.52 63.2104 372.337 63.6011 371.971 63.9185C371.613 64.2358 371.137 64.3945 370.542 64.3945C369.94 64.3945 369.46 64.2358 369.102 63.9185C368.744 63.6011 368.565 63.2104 368.565 62.7466ZM386.595 42.2266V60H382.945V42.2266H386.595ZM392.063 42.2266V45.0952H377.562V42.2266H392.063ZM414.183 42.2266V60H410.521L403.379 48.0859V60H399.717V42.2266H403.379L410.533 54.1528V42.2266H414.183ZM424.815 45.2661L419.981 60H416.087L422.691 42.2266H425.169L424.815 45.2661ZM428.831 60L423.985 45.2661L423.594 42.2266H426.097L432.737 60H428.831ZM428.611 53.3838V56.2524H419.224V53.3838H428.611ZM436.058 42.2266H439.158L443.724 55.2759L448.289 42.2266H451.39L444.969 60H442.479L436.058 42.2266ZM434.385 42.2266H437.474L438.035 54.9463V60H434.385V42.2266ZM449.974 42.2266H453.074V60H449.412V54.9463L449.974 42.2266Z" fill="#B61414"/>
</svg>
